<?xml version="1.0" encoding="utf-8"?>
<!-- Generator: Adobe Illustrator 27.5.0, SVG Export Plug-In . SVG Version: 6.00 Build 0)  -->
<svg version="1.1" xmlns="http://www.w3.org/2000/svg" xmlns:xlink="http://www.w3.org/1999/xlink" x="0px" y="0px"
	 viewBox="0 0 750 500" style="enable-background:new 0 0 750 500;" xml:space="preserve">
<g id="BACKGROUND">
	<g>
		<rect style="fill:#FFFFFF;" width="750" height="500"/>
	</g>
</g>
<g id="OBJECTS">
	<g>
		<path style="fill:#F3E8E2;" d="M652.09,455.03l-73.94,0.38l-343.1,1.76l-165.09,0.85c0,0-65.65-95.13-24.14-213.25
			c31.71-90.25,92.67-65.76,147.24-80.41c93.5-25.11,71.64-97.81,144.5-123.25c106.43-37.14,136.36,62.95,172.76,94.86
			c48.16,42.23,91.11-1.77,172.06,96.43C734.9,296.11,652.09,455.03,652.09,455.03z"/>
		<g>
			<g>
				<g>
					<path style="fill:none;stroke:#CFB3A9;stroke-linecap:round;stroke-miterlimit:10;" d="M605.92,455.09
						c11.17-61.61,46.73-118.45,97.24-155.44"/>
					<g>
						<path style="fill:#CFB3A9;" d="M677.56,320.88c0.41-8.81,6.62-16.62,14.35-20.87c7.73-4.25,16.78-5.44,26.03-5.37
							c-5.42,6.3-10.89,12.66-17.53,17.66C693.77,317.31,685.78,320.92,677.56,320.88z"/>
						<path style="fill:none;stroke:#EDDDD5;stroke-width:0.5;stroke-linecap:round;stroke-miterlimit:10;" d="M712.37,297.35
							c-12.71,4.69-24.3,12.38-33.55,22.28"/>
					</g>
					<g>
						<path style="fill:#CFB3A9;" d="M666.4,332.66c7.35-3.89,15.74-6.03,24.03-5.34c8.29,0.69,16.43,4.35,21.91,10.61
							C695.62,341.9,680.8,340.58,666.4,332.66z"/>
						<path style="fill:none;stroke:#EDDDD5;stroke-width:0.5;stroke-linecap:round;stroke-miterlimit:10;" d="M667.54,332.68
							c12.72-0.81,25.56,0.3,37.95,3.3"/>
					</g>
					<g>
						<path style="fill:#CFB3A9;" d="M671.44,327.64c5.35-15.11,2.07-32.94-8.3-45.16c-1.08,7.62-2.17,15.29-1.85,22.98
							C661.6,313.15,663.42,320.94,671.44,327.64z"/>
						<path style="fill:none;stroke:#EDDDD5;stroke-width:0.5;stroke-linecap:round;stroke-miterlimit:10;" d="M671.09,326.67
							c-0.62-11.25-2.39-22.44-5.28-33.34"/>
					</g>
					<g>
						<path style="fill:#CFB3A9;" d="M658.29,341.77c2.3-14.71-4.81-30.47-17.37-38.47c0.33,7.12,0.67,14.31,2.65,21.16
							C645.56,331.3,649.39,337.86,658.29,341.77z"/>
						<path style="fill:none;stroke:#EDDDD5;stroke-width:0.5;stroke-linecap:round;stroke-miterlimit:10;" d="M643.55,310.63
							c5.98,9.64,10.88,19.95,14.55,30.69"/>
					</g>
					<g>
						<path style="fill:#CFB3A9;" d="M650.31,352.39c2.62-3.56,8.2-5.92,12.54-6.76c4.34-0.84,8.82-0.53,13.22-0.02
							c9.99,1.15,19.86,3.26,29.44,6.3c-8.63,1.97-17.31,3.94-26.15,4.41C670.52,356.79,660.1,355.94,650.31,352.39z"/>
						<path style="fill:none;stroke:#EDDDD5;stroke-width:0.5;stroke-linecap:round;stroke-miterlimit:10;" d="M651.27,351.91
							c13.53-2.13,27.37-2.3,40.94-0.49"/>
					</g>
					<g>
						<path style="fill:#CFB3A9;" d="M645.26,359.99c2.3-16.3-5.83-33.6-19.84-42.24c0.56,7.99,1.14,16.06,3.5,23.71
							C631.28,349.12,635.61,356.43,645.26,359.99z"/>
						<path style="fill:none;stroke:#EDDDD5;stroke-width:0.5;stroke-linecap:round;stroke-miterlimit:10;" d="M644.78,359.71
							c-4.52-11.5-9.72-22.73-15.58-33.61"/>
					</g>
					<g>
						<path style="fill:#CFB3A9;" d="M640.17,367.96c14.86-4.2,31.97,1.22,41.69,13.22c-7.53,0.3-15.15,0.47-22.53-1.07
							C651.95,378.57,644.74,375.16,640.17,367.96z"/>
						<path style="fill:none;stroke:#EDDDD5;stroke-width:0.5;stroke-linecap:round;stroke-miterlimit:10;" d="M640.73,368.41
							c11.02,1.11,21.83,4.31,31.67,9.38"/>
					</g>
					<g>
						<path style="fill:#CFB3A9;" d="M627.28,390.31c7.19-3.97,16.24-3.23,23.81-0.03c7.57,3.19,13.97,8.57,20.25,13.86
							c-8.01,0.35-16.1,0.7-23.96-0.86C639.51,401.72,631.79,398.02,627.28,390.31z"/>
						<path style="fill:none;stroke:#EDDDD5;stroke-width:0.5;stroke-linecap:round;stroke-miterlimit:10;" d="M627.77,390.39
							c11.26,1.06,22.29,4.48,32.18,9.98"/>
					</g>
					<g>
						<path style="fill:#CFB3A9;" d="M630.53,384.17c1.31-8.47,0.08-17.4-4.68-24.52c-4.76-7.12-12.26-12.36-20.58-14.39
							c1.7,7.92,3.44,15.94,7.14,23.13C616.1,375.6,621.32,382,630.53,384.17z"/>
						<path style="fill:none;stroke:#EDDDD5;stroke-width:0.5;stroke-linecap:round;stroke-miterlimit:10;" d="M630.76,383.77
							c-4.76-10.78-10.88-20.96-18.16-30.22"/>
					</g>
					<g>
						<path style="fill:#CFB3A9;" d="M619.64,408.02c0.97-8.49-1.67-17.32-7.12-23.9c-5.45-6.57-13.65-10.8-22.17-11.42
							C593.04,389.08,605.28,403.51,619.64,408.02z"/>
						<path style="fill:none;stroke:#EDDDD5;stroke-width:0.5;stroke-linecap:round;stroke-miterlimit:10;" d="M619.4,407.58
							c-5.17-10.93-12.48-20.84-21.39-29.01"/>
					</g>
					<g>
						<path style="fill:#CFB3A9;" d="M613.77,421.72c14.36-8.74,34.09-7.55,47.3,2.84c-7.66,1.9-15.38,3.81-23.27,4.13
							C629.92,429.01,621.76,427.65,613.77,421.72z"/>
						<path style="fill:none;stroke:#EDDDD5;stroke-width:0.5;stroke-linecap:round;stroke-miterlimit:10;" d="M613.74,422.15
							c13.06-2.45,26.65-1.97,39.5,1.38"/>
					</g>
					<g>
						<path style="fill:#CFB3A9;" d="M607.41,445.18c12.51-9.5,30.07-11.91,44.68-6.13c-6.69,3.46-13.44,6.94-20.72,8.84
							C624.08,449.8,616.12,450.03,607.41,445.18z"/>
						<path style="fill:none;stroke:#EDDDD5;stroke-width:0.5;stroke-linecap:round;stroke-miterlimit:10;" d="M608.43,445.13
							c11.05-3.43,22.65-5.12,34.22-4.97"/>
					</g>
					<g>
						<path style="fill:#CFB3A9;" d="M611.09,434.54c-0.35-7.38-5.29-13.98-11.52-17.95s-13.63-5.67-20.94-6.72
							c1.12,7.39,4.89,14.36,10.47,19.34C594.67,434.19,602.02,437.15,611.09,434.54z"/>
						<path style="fill:none;stroke:#EDDDD5;stroke-width:0.5;stroke-linecap:round;stroke-miterlimit:10;" d="M610.65,434.42
							c-7.5-7.27-15.74-13.78-24.55-19.4"/>
					</g>
				</g>
				<g>
					<path style="fill:none;stroke:#CFB3A9;stroke-miterlimit:10;" d="M564.13,455.59c-13.61-42.96-13-90.29,1.72-132.89"/>
					<path style="fill:#CFB3A9;" d="M562.37,332.71c-2.05-5.29-1.99-11.37,0.17-16.61c2.16-5.24,6.4-9.6,11.59-11.9
						c0.66-0.3,1.47-0.55,2.08-0.15c0.48,0.32,0.65,0.94,0.77,1.5C579.14,316.37,573.02,328.27,562.37,332.71z"/>
					<path style="fill:#CFB3A9;" d="M560.01,343.54c2.82-8.79,11.33-15.46,20.54-16.08c0.52-0.04,1.1-0.03,1.49,0.31
						c0.69,0.62,0.28,1.74-0.18,2.54c-2.23,3.85-4.81,7.61-8.33,10.32C570.01,343.34,565.38,344.94,560.01,343.54z"/>
					<path style="fill:#CFB3A9;" d="M558.25,349.35c1.36-9.04-3.61-18.69-11.77-22.81c-0.79-0.4-1.69-0.76-2.54-0.5
						c-1.46,0.45-1.79,2.34-1.77,3.87c0.06,4.65,1.05,9.4,3.6,13.28C548.33,347.09,552.61,350,558.25,349.35z"/>
					<path style="fill:#CFB3A9;" d="M556.43,358.56c5.31-9.49,15.99-15.71,26.86-15.67c0.78,0,1.71,0.14,2.03,0.85
						c0.3,0.68-0.18,1.44-0.65,2.02C578.11,353.79,567.98,358.8,556.43,358.56z"/>
					<path style="fill:#CFB3A9;" d="M555.22,368.95c-0.85-8.32-7.69-15.66-15.93-17.09c-1.11-0.19-2.37-0.25-3.26,0.44
						c-1.37,1.06-1.1,3.19-0.48,4.81C538.43,364.59,546.44,369.75,555.22,368.95z"/>
					<path style="fill:#CFB3A9;" d="M554.54,378.7c2.34-9.02,10.08-16.4,19.19-18.31c1.63-0.34,3.61-0.39,4.62,0.92
						c1.09,1.42,0.33,3.49-0.6,5.02C573.15,373.86,564.76,378.94,554.54,378.7z"/>
					<path style="fill:#CFB3A9;" d="M554.81,388.22c-0.54-4.26-2.69-8.31-5.92-11.13c-3.24-2.83-7.53-4.42-11.83-4.38
						c-1.43,0.01-3.01,0.28-3.9,1.4c-1.35,1.71-0.32,4.24,1.02,5.96C538.52,385.65,545.9,388.71,554.81,388.22z"/>
					<path style="fill:#CFB3A9;" d="M554.5,396.8c2.32-9.39,9.66-17.37,18.81-20.49c2.16-0.73,4.91-1.07,6.4,0.66
						c0.92,1.06,1.04,2.63,0.63,3.97c-0.41,1.34-1.28,2.48-2.19,3.55C572.55,391.02,564.59,395.48,554.5,396.8z"/>
					<path style="fill:#CFB3A9;" d="M555.51,404.89c-1.97-4.22-5.46-7.71-9.67-9.68c-4.22-1.97-9.13-2.41-13.63-1.22
						c-1.72,0.46-3.64,1.44-3.88,3.21c-0.28,2.03,1.79,3.54,3.65,4.39C538.58,404.63,546.06,405.75,555.51,404.89z"/>
					<path style="fill:#CFB3A9;" d="M555.8,417.96c-0.22-10.43,6.96-20.59,16.87-23.85c1.16-0.38,2.49-0.66,3.53-0.03
						c0.99,0.6,1.39,1.87,1.26,3.02c-0.13,1.14-0.7,2.19-1.3,3.17C571.65,407.74,564.88,413.82,555.8,417.96z"/>
					<path style="fill:#CFB3A9;" d="M557.37,426.8c-1.86-4.56-5.38-8.42-9.74-10.69c-4.37-2.27-9.55-2.93-14.35-1.82
						c-1.19,0.27-2.49,0.76-3,1.88c-0.79,1.73,0.8,3.58,2.34,4.7C539.38,425.78,548.12,427.9,557.37,426.8z"/>
					<path style="fill:#CFB3A9;" d="M558.39,433.55c0.74-9.15,7.19-17.6,15.82-20.73c1.26-0.46,2.8-0.76,3.83,0.08
						c1.43,1.17,0.78,3.48-0.13,5.09C573.78,425.39,566.77,431.13,558.39,433.55z"/>
					<path style="fill:#CFB3A9;" d="M560.83,443.28c-4.79-4.92-11.21-8.22-18-9.24c-2.36-0.36-4.9-0.42-7.01,0.72
						c-2.1,1.14-3.53,3.81-2.57,6c1,2.31,3.89,3,6.37,3.4C545.91,445.16,552.33,446.17,560.83,443.28z"/>
					<path style="fill:#CFB3A9;" d="M562.57,450c0.99-4.54,2.41-9.04,4.77-13.04c2.37-4,5.74-7.5,9.96-9.47
						c1.65-0.77,3.95-1.15,5.03,0.32c0.98,1.33,0.24,3.19-0.55,4.63c-2.23,4.06-4.82,7.96-8.12,11.21
						C570.36,446.88,566.3,449.45,562.57,450z"/>
				</g>
			</g>
			<g>
				<path style="fill:#CFB3A9;" d="M158.79,393.69c-0.21,0.04-0.43,0.09-0.63,0.13c-9.92,1.99-16.04,3.76-22.27,3.54
					c-6.37-0.21-12.99-2.78-16.67-8.18c-3.07-4.52-3.95-10.71-8.15-14.12c-5.94-4.84-15.57-1.68-21.31-6.78
					c-0.33-0.29-0.63-0.6-0.92-0.92c1.85-10.96,5.13-21.69,9.74-31.81c-5.33,5.03-10.33,10.41-14.94,16.11
					c-0.77-2.83-1.9-5.43-4.03-7.31c-4.43-3.94-11.79-3.31-15.4-8.05c-1.8-2.38-2.15-5.45-2.64-8.49v-0.01
					c4.27-4.1,9.21-7.44,14.55-9.81c-5.51,0.67-10.92,2.05-16.1,4.1c-0.92-1.95-2.29-3.62-3.78-5.2c-1.49-1.58-3.12-3.07-4.58-4.66
					c-7.39-8-11.14-19.5-9.92-30.52c9.4-5.06,20.55-6.2,30.84-3.72c-1.8,3.76-3.2,7.72-4.15,11.79c3.68-3.58,7.84-6.61,12.34-8.95
					c3.34,1.55,6.5,3.52,9.36,5.91c4.56,3.8,8.77,8.73,14.18,10.61c-0.4,3.16-0.82,6.31-1.23,9.47c1.71-3.05,3.66-5.96,5.85-8.68
					c5.46,0.12,11.31-1.95,15.79,1.16c5.24,3.64,5.07,12.09,9.59,16.66c4.1,4.15,11.04,4.13,14.85,8.55
					c4.63,5.37,2.17,13.89,4.14,20.79c1.79,6.25,7.1,10.74,9.66,16.69C167.3,372.03,163.03,383.62,158.79,393.69z"/>
				<path style="fill:none;stroke:#F0D9CE;stroke-linecap:round;stroke-miterlimit:10;" d="M49.43,286.85
					c43.13,23.22,85.12,64.99,109.64,108.6"/>
				<path style="fill:none;stroke:#F0D9CE;stroke-linecap:round;stroke-miterlimit:10;" d="M84.68,309.96
					c1.99-6.06,4.3-12.01,6.92-17.8"/>
				<path style="fill:none;stroke:#F0D9CE;stroke-linecap:round;stroke-miterlimit:10;" d="M78.54,305.36
					c-6.79,0.21-13.54,1.5-19.96,3.79"/>
				<path style="fill:none;stroke:#F0D9CE;stroke-linecap:round;stroke-miterlimit:10;" d="M103.95,326.4
					c-8.51,3-16.65,7.12-24.16,12.23"/>
				<path style="fill:none;stroke:#F0D9CE;stroke-linecap:round;stroke-miterlimit:10;" d="M62.26,294.23
					c-0.15-4.39,0.33-8.8,1.43-13.03"/>
				<path style="fill:none;stroke:#F0D9CE;stroke-linecap:round;stroke-miterlimit:10;" d="M110.02,332.45
					c0.62-8.49,2.61-16.88,5.88-24.69"/>
			</g>
			<g>
				<path style="fill:#CFB3A9;" d="M241.28,308.78c-0.37,7.2-6.43,12.3-8.03,19.29c-0.97,4.27-0.17,8.74-0.25,13.13
					c-0.15,7.28-2.76,14.31-6.33,20.26c-3.58,5.96-8.09,10.99-12.56,15.97c-0.04-0.03-0.09-0.06-0.13-0.1
					c-8.51-6.17-13.09-8.09-16.83-11.6c-3.75-3.51-6.6-8.97-6.28-14.81c0.14-2.79,1-5.61,0.51-8.33c-0.68-3.89-3.8-6.29-5.34-9.75
					c-3.11-6.92,0.7-15.73,0.38-23.6c4.9,0.47,9.76,1.18,14.58,2.16c-4.75-4.9-10.83-8.28-17.24-10.58
					c-0.01-0.01-0.01-0.01-0.01-0.01c-1.38-2.14-3.12-4-4.69-5.96c-2.49-3.11-4.75-7.17-4.13-11.52c0.63-4.43,4.07-7.71,4.87-12.1
					c0.69-3.84-0.74-7.62-1.47-11.39c-2.57-12.94,2.94-26.27,8.27-38.17c5.96,0.04,11.84,2.49,16.81,6.69
					c-1.1,2.13-2.2,4.27-3.29,6.39c2.12-1.14,4.23-2.3,6.36-3.45c2.99,3.23,5.5,7.15,7.28,11.55c1.06,2.61,1.91,5.42,3.11,7.92
					c-2.87,3.58-5.63,7.27-8.25,11.05c4.02-2.09,8.16-3.94,12.42-5.52c1.91,1.64,4.03,2.98,5.57,5.1
					c4.14,5.71,2.63,14.54,3.98,22.11c-5.76,5.37-11.16,11.14-16.13,17.27c6.58-3.19,13.58-5.48,20.75-6.77
					C238.23,298.65,241.58,303,241.28,308.78z"/>
				<g>
					<path style="fill:none;stroke:#F0D9CE;stroke-linecap:round;stroke-miterlimit:10;" d="M192.53,234.3
						c15.94,47.27,23.24,99.05,21.22,150.63"/>
					<path style="fill:none;stroke:#F0D9CE;stroke-linecap:round;stroke-miterlimit:10;" d="M199.39,256.72
						c3.9-5.37,6.99-11.43,9.48-17.9"/>
					<path style="fill:none;stroke:#F0D9CE;stroke-linecap:round;stroke-miterlimit:10;" d="M198.33,253.76
						c-5.94-0.21-11.82-1.72-17.28-4.44"/>
					<path style="fill:none;stroke:#F0D9CE;stroke-linecap:round;stroke-miterlimit:10;" d="M205.87,284.49
						c-7.82-0.83-15.56-2.51-23.1-5"/>
					<path style="fill:none;stroke:#F0D9CE;stroke-linecap:round;stroke-miterlimit:10;" d="M207.21,288.85
						c6.62-6.69,12.62-14.3,17.84-22.62"/>
					<path style="fill:none;stroke:#F0D9CE;stroke-linecap:round;stroke-miterlimit:10;" d="M212.56,322.77
						c8.24-5.05,16.05-11.15,23.28-18.16"/>
					<path style="fill:none;stroke:#F0D9CE;stroke-linecap:round;stroke-miterlimit:10;" d="M211.71,325.54
						c-7.1-0.78-14.21-1.56-21.31-2.34"/>
				</g>
			</g>
		</g>
		<g>
			<g>
				<g>
					<polygon style="fill:#F08D30;" points="91.37,207.05 54.06,176.17 91.02,191.26 					"/>
					<polygon style="fill:#A36624;" points="92.37,194.03 91.34,206.94 89.84,196.26 					"/>
					<polygon style="fill:#FEAA3F;" points="102.86,187.68 92.27,194.85 89.87,196.49 76.93,205.27 47.86,170.38 					"/>
					<polygon style="fill:#A36624;" points="92.27,194.85 89.87,196.49 47.86,170.38 					"/>
				</g>
				<path style="fill:none;stroke:#FFFFFF;stroke-width:2;stroke-miterlimit:10;stroke-dasharray:12,12,12,12,12,12;" d="
					M95.14,205.72c10.13,9.84,13.01,28.2,10.64,42.13c-1.29,7.56-5.13,15.29-12.08,18.53c-6.96,3.23-17.01-0.37-18.21-7.94
					c-0.9-5.68,3.41-11.23,8.75-13.36c5.34-2.13,11.38-1.53,16.98-0.19c19.71,4.7,36.43,17.65,55.52,24.44
					c29.68,10.55,63.23,5.26,91.77-8.09c28.54-13.35,47.49-40.16,73.89-58.26c22.95-15.74,55.02-11.41,82.21-5.5
					c24.8,5.39,49.07,18.08,62.89,39.36s14.51,51.98-2.67,70.66c-17.92,19.47-47.62,20.8-74.08,21.43
					c-29.77,0.7-60.02,2.32-88.14,12.15c-28.12,9.82-54.24,28.99-66.07,56.32"/>
			</g>
			<g>
				<g>
					<path style="fill:#FEFFFE;" d="M258.18,192.62l5.18-5.18l-5.41-5.41c0.65-1.12,1.14-2.31,1.46-3.54h7.65v-7.33h-7.65
						c-0.32-1.22-0.81-2.42-1.46-3.54l5.41-5.41l-5.18-5.18l-5.41,5.41c-1.12-0.65-2.31-1.14-3.54-1.46v-7.65h-7.33v7.65
						c-1.22,0.32-2.42,0.81-3.54,1.46l-5.41-5.41l-5.18,5.18l5.41,5.41c-0.65,1.12-1.14,2.31-1.46,3.54h-7.65v7.33h7.65
						c0.32,1.22,0.81,2.42,1.46,3.54l-5.41,5.41l5.18,5.18l5.41-5.41c1.12,0.65,2.31,1.14,3.54,1.46v7.65h7.33v-7.65
						c1.22-0.32,2.42-0.81,3.54-1.46L258.18,192.62z M238.68,181.71c-3.8-3.8-3.8-9.97,0-13.77c3.8-3.8,9.97-3.8,13.77,0
						s3.8,9.97,0,13.77C248.65,185.51,242.48,185.51,238.68,181.71z"/>
				</g>
				<g>
					<path style="fill:#FEFFFE;" d="M331.11,157.79l9.88-9.88l-10.32-10.32c1.24-2.14,2.17-4.41,2.79-6.74h14.6v-13.98h-14.6
						c-0.62-2.34-1.54-4.61-2.79-6.74L341,99.81l-9.88-9.88l-10.32,10.32c-2.14-1.24-4.41-2.17-6.74-2.79v-14.6h-13.98v14.6
						c-2.34,0.62-4.61,1.54-6.74,2.79l-10.32-10.32l-9.88,9.88l10.32,10.32c-1.24,2.14-2.17,4.41-2.79,6.74h-14.6v13.98h14.6
						c0.62,2.34,1.54,4.61,2.79,6.74l-10.32,10.32l9.88,9.88l10.32-10.32c2.14,1.24,4.41,2.17,6.74,2.79v14.6h13.98v-14.6
						c2.34-0.62,4.61-1.54,6.74-2.79L331.11,157.79z M293.93,136.99c-7.25-7.25-7.25-19.01,0-26.27c7.25-7.25,19.01-7.25,26.27,0
						c7.26,7.25,7.25,19.01,0,26.27C312.95,144.25,301.18,144.25,293.93,136.99z"/>
				</g>
				<g>
					<path style="fill:#F3E8E2;" d="M215.63,145.07l13.59-8.12l-8.48-14.19c1.96-2,3.6-4.24,4.93-6.64l16.04,4.04l3.86-15.35
						l-16.03-4.04c-0.03-2.74-0.42-5.49-1.2-8.18l14.19-8.48l-8.12-13.59L220.22,79c-2-1.96-4.24-3.6-6.64-4.93l4.04-16.03
						l-15.35-3.86l-4.04,16.03c-2.74,0.03-5.49,0.42-8.18,1.2l-8.48-14.19l-13.59,8.12l8.48,14.19c-1.96,2-3.6,4.24-4.93,6.64
						l-16.03-4.04l-3.86,15.35l16.03,4.04c0.03,2.74,0.42,5.49,1.2,8.18l-14.19,8.48l8.12,13.59l14.19-8.48
						c2,1.96,4.24,3.6,6.64,4.93l-4.04,16.03l15.35,3.86l4.04-16.04c2.74-0.03,5.49-0.42,8.18-1.2L215.63,145.07z M180.54,111.94
						c-5.96-9.97-2.71-22.89,7.26-28.85c9.97-5.96,22.89-2.71,28.85,7.26c5.96,9.97,2.71,22.89-7.26,28.85
						C199.42,125.17,186.5,121.92,180.54,111.94z"/>
				</g>
			</g>
			<g>
				<g>
					<rect x="449.24" y="164.63" style="fill:#FCF7F5;" width="15.22" height="31.02"/>
					<rect x="580.54" y="102.59" style="fill:#FCF7F5;" width="13.62" height="93.07"/>
					<rect x="547.9" y="126.86" style="fill:#FCF7F5;" width="14.42" height="68.79"/>
					<rect x="513.61" y="144.69" style="fill:#FCF7F5;" width="14.82" height="50.96"/>
					<rect x="480.03" y="139.68" style="fill:#FCF7F5;" width="15.22" height="55.98"/>
				</g>
				<g>
					<polygon style="fill:#FCF7F5;" points="582.47,84.79 559.95,89.05 573.2,102.58 					"/>
					<polyline style="fill:none;stroke:#FCF7F5;stroke-miterlimit:10;" points="571.87,92.14 526.34,127.53 493.39,125.45 
						453.16,151.82 					"/>
				</g>
				<polyline style="fill:none;stroke:#FCF7F5;stroke-miterlimit:10;" points="432.73,93.56 432.96,195.82 602.73,195.65 				"/>
			</g>
		</g>
		<g>
			<g>
				<path style="fill:#E8545D;" d="M329.2,349.67c-36.03,27.68-46.1,60.74-39.46,112.18l44.03-39.58L329.2,349.67z"/>
				<path style="fill:#E8545D;" d="M438.85,349.67c36.03,27.68,46.1,60.74,39.46,112.18l-44.03-39.58L438.85,349.67z"/>
				<g>
					<path style="fill:#F8C88C;" d="M445.03,291.45l-1.91,31.28l-0.99,16.12l-0.07,1.07l-0.14,2.13l-4.39,71.67h-107.1l-4.39-71.67
						l-0.2-3.2l-2.4-39.14c-0.71-11.47-0.94-22.96-0.7-34.45c0.04-1.75,0.09-3.55,0.13-5.39c0.02-0.7,0.04-1.42,0.07-2.13
						c0.2-6.35,0.47-12.82,0.87-18.15c2.27-30.1,8.97-59.63,19.8-87.64c3.73-9.65,7.94-19.13,12.64-28.38l6.27-12.33l13.06-25.71
						l5.79-11.4c1.1-2.16,4.14-2.16,5.24,0l24.72,48.49c3.31,6.48,6.38,13.07,9.2,19.76c1.36,3.19,2.65,6.39,3.89,9.63
						c10.76,28.04,17.39,57.6,19.63,87.72c0.4,5.4,0.7,11.78,0.89,18.02c0.03,0.72,0.05,1.43,0.08,2.13
						c0.2,6.47,0.3,12.63,0.37,17.18C445.44,281.86,445.33,286.66,445.03,291.45z"/>
					<path style="fill:#CB1B3F;" d="M424.42,152c-2.23-0.28-4.45-0.53-6.68-0.76c-24.56-2.59-49.27-2.42-74.12,0.7
						c3.73-9.65,7.94-19.13,12.64-28.38l6.27-12.33l13.06-25.71l5.79-11.4c1.1-2.16,4.14-2.16,5.24,0l24.72,48.49
						c3.31,6.48,6.38,13.07,9.2,19.76C421.89,145.56,423.18,148.77,424.42,152z"/>
					<g>
						<g>
							<polygon style="fill:#D19F6D;" points="346.83,403.22 344.65,403.24 341.51,340.11 343.67,339.93 							"/>
							<polygon style="fill:#D19F6D;" points="442.07,339.92 441.93,342.05 326.04,342.05 325.91,339.92 							"/>
							<path style="fill:#D19F6D;" d="M445.01,259.87H322.88c0.02-0.7,0.04-1.42,0.07-2.13h121.99
								C444.97,258.45,444.99,259.17,445.01,259.87z"/>
						</g>
						<g>
							<ellipse style="fill:#FFE7BF;" cx="337.96" cy="351.53" rx="1.9" ry="1.87"/>
							<ellipse style="fill:#FFE7BF;" cx="338.79" cy="370.34" rx="1.9" ry="1.87"/>
							<ellipse style="fill:#FFE7BF;" cx="339.86" cy="389.15" rx="1.9" ry="1.87"/>
						</g>
						<g>
							<ellipse style="fill:#FFE7BF;" cx="332.12" cy="335.52" rx="1.9" ry="1.87"/>
							<ellipse style="fill:#FFE7BF;" cx="348.23" cy="335.52" rx="1.9" ry="1.87"/>
							<ellipse style="fill:#FFE7BF;" cx="370" cy="335.52" rx="1.9" ry="1.87"/>
							<ellipse style="fill:#FFE7BF;" cx="397.02" cy="335.52" rx="1.9" ry="1.87"/>
							<ellipse style="fill:#FFE7BF;" cx="419.38" cy="335.52" rx="1.9" ry="1.87"/>
							<ellipse style="fill:#FFE7BF;" cx="435.03" cy="335.52" rx="1.9" ry="1.87"/>
						</g>
						<g>
							<ellipse style="fill:#FFE7BF;" cx="329.94" cy="252.39" rx="1.9" ry="1.87"/>
							<ellipse style="fill:#FFE7BF;" cx="346.06" cy="252.39" rx="1.9" ry="1.87"/>
							<ellipse style="fill:#FFE7BF;" cx="367.83" cy="252.39" rx="1.9" ry="1.87"/>
							<ellipse style="fill:#FFE7BF;" cx="394.84" cy="252.39" rx="1.9" ry="1.87"/>
							<ellipse style="fill:#FFE7BF;" cx="417.2" cy="252.39" rx="1.9" ry="1.87"/>
							<ellipse style="fill:#FFE7BF;" cx="432.86" cy="252.39" rx="1.9" ry="1.87"/>
						</g>
					</g>
					<path style="fill:#CB1B3F;" d="M322.65,418.3v-0.61c0-2.19,1.77-3.96,3.96-3.96h114.82c2.19,0,3.96,1.77,3.96,3.96v0.61
						c0,2.19-1.77,3.96-3.96,3.96H326.62C324.43,422.26,322.65,420.49,322.65,418.3z"/>
					<path style="fill:#CB1B3F;" d="M322.65,403.35v-0.61c0-2.19,1.77-3.96,3.96-3.96h114.82c2.19,0,3.96,1.77,3.96,3.96v0.61
						c0,2.19-1.77,3.96-3.96,3.96H326.62C324.43,407.32,322.65,405.54,322.65,403.35z"/>
					<g>
						<g>
							
								<ellipse transform="matrix(0.9941 -0.1087 0.1087 0.9941 -18.8096 44.5541)" style="fill:#D19F6D;" cx="399.289" cy="194.817" rx="26.061" ry="33.091"/>
							
								<ellipse transform="matrix(0.9941 -0.1087 0.1087 0.9941 -18.7782 44.9262)" style="fill:#FFF3CF;" cx="402.699" cy="194.707" rx="26.061" ry="33.091"/>
						</g>
						<g>
							<path style="fill:#D19F6D;" d="M411.02,218.2c-1.77,0.9-3.69,1.48-5.72,1.68c-10.96,1.09-21.01-9.3-22.45-23.2
								c-1.03-9.98,2.65-19.06,8.86-23.79c2.45-1.87,5.28-3.07,8.38-3.38c10.96-1.09,21.01,9.3,22.45,23.2
								C423.71,204.05,418.8,214.22,411.02,218.2z"/>
							<g>
								<path style="fill:#3B3147;" d="M420.01,199.14c-0.05,1.37-0.21,2.71-0.44,4.01c-0.19,1.07-0.44,2.11-0.74,3.12
									c0,0.01-0.01,0.02-0.01,0.03c-0.36,1.22-0.79,2.37-1.3,3.49c-0.82,1.81-1.83,3.47-3,4.94c-0.56,0.72-1.16,1.38-1.8,2
									c-0.45,0.44-0.93,0.86-1.42,1.24c-0.09,0.09-0.19,0.16-0.29,0.23c-0.11,0.06-0.21,0.1-0.32,0.15
									c-0.95,0.47-1.95,0.84-2.97,1.1c-0.79,0.21-1.6,0.36-2.42,0.44c-10.96,1.09-21.01-9.3-22.45-23.2
									c-0.11-1.04-0.17-2.08-0.15-3.1c-0.02-1.36,0.05-2.68,0.22-3.97c0.03-0.39,0.08-0.75,0.15-1.13
									c0.13-0.76,0.28-1.51,0.45-2.25c0.25-1.02,0.54-2.02,0.89-2.98c0.62-1.72,1.39-3.31,2.31-4.77l2.02-2.76
									c0.13-0.16,0.27-0.32,0.41-0.47c0.61-0.67,1.25-1.3,1.94-1.87c0.2-0.18,0.41-0.33,0.62-0.5c0.73-0.38,1.48-0.7,2.25-0.96
									c1.11-0.37,2.27-0.62,3.46-0.74c10.96-1.09,21.01,9.3,22.45,23.2C420.03,196.01,420.09,197.59,420.01,199.14z"/>
								<path style="opacity:0.5686;fill:#93869E;enable-background:new    ;" d="M420.01,199.14l-26.05-27.2
									c1.11-0.37,2.27-0.62,3.46-0.74c10.96-1.09,21.01,9.3,22.45,23.2C420.03,196.01,420.09,197.59,420.01,199.14z"/>
								<path style="opacity:0.5686;fill:#93869E;enable-background:new    ;" d="M418.82,206.3c-0.36,1.22-0.79,2.37-1.3,3.49
									l-30.81-31.29l2.02-2.76L418.82,206.3z"/>
								<path style="opacity:0.5686;fill:#93869E;enable-background:new    ;" d="M410.69,218.35l-27.78-28.73
									c-0.16,1.29-0.24,2.61-0.22,3.97l25.03,25.86L410.69,218.35z"/>
							</g>
						</g>
						<g>
							<ellipse style="fill:#E0B26C;" cx="402.33" cy="223.38" rx="1.29" ry="1.27"/>
							<ellipse style="fill:#E0B26C;" cx="401.77" cy="166.07" rx="1.29" ry="1.27"/>
							<ellipse style="fill:#E0B26C;" cx="416.64" cy="172.44" rx="1.29" ry="1.27"/>
							<ellipse style="fill:#E0B26C;" cx="424.16" cy="186.35" rx="1.29" ry="1.27"/>
							<ellipse style="fill:#E0B26C;" cx="385.91" cy="173.4" rx="1.29" ry="1.27"/>
							<ellipse style="fill:#E0B26C;" cx="379.76" cy="191.41" rx="1.29" ry="1.27"/>
							<ellipse style="fill:#E0B26C;" cx="384.55" cy="211.21" rx="1.29" ry="1.27"/>
							<ellipse style="fill:#E0B26C;" cx="424.73" cy="204.22" rx="1.29" ry="1.27"/>
							<ellipse style="fill:#E0B26C;" cx="418.09" cy="217.24" rx="1.29" ry="1.27"/>
						</g>
					</g>
					<path style="opacity:0.1608;fill:#FFFFFF;enable-background:new    ;" d="M445.03,291.45l-1.91,31.28
						c-0.64-29.83-2.29-62.71-5.8-94.9c-3.3-30.27-10.96-55.94-19.58-76.59c-11.51-27.56-24.76-46.21-31.76-55.01
						c-2.48-3.12-7.22-3.24-9.87-0.27l-13.58,15.27l13.06-25.71l5.79-11.4c1.1-2.16,4.14-2.16,5.24,0l24.72,48.49
						c3.31,6.48,6.38,13.07,9.2,19.76c1.36,3.19,2.65,6.39,3.89,9.63c10.76,28.04,17.39,57.6,19.63,87.72
						c0.4,5.4,0.7,11.78,0.89,18.02c0.03,0.72,0.05,1.43,0.08,2.13c0.2,6.47,0.3,12.63,0.37,17.18
						C445.44,281.86,445.33,286.66,445.03,291.45z"/>
				</g>
				<rect x="379.14" y="349.67" style="fill:#E8545D;" width="9.78" height="112.18"/>
			</g>
			<g>
				<g>
					<g>
						<polygon style="fill:#923F56;" points="596.13,453.31 599.22,427.11 579.27,423.78 578.33,451.99 						"/>
						<g>
							<path style="fill:#10173A;" d="M602.5,462.95c-0.47,1.31-43.97,1.19-44.73-0.46c-0.38-0.82-0.34-1.69,0.04-2.57
								c1.73-4.06,10.76-8.43,20.23-10.35c2.26-0.46,13.95-0.12,19.21,0.07c1.5,0.05,2.77,1.13,3.07,2.6l1.37,6.72L602.5,462.95z"/>
							<path style="fill:#424469;" d="M602.5,462.95c-0.47,1.31-43.97,1.19-44.73-0.46c-0.38-0.82-0.34-1.69,0.04-2.57l43.88-0.96
								L602.5,462.95z"/>
						</g>
					</g>
					<g>
						<polygon style="fill:#923F56;" points="645.74,453.06 640.15,426.61 660.35,423.78 662.04,450.49 						"/>
						<g>
							<path style="fill:#10173A;" d="M639.37,462.95c0.47,1.31,43.97,1.19,44.73-0.46c0.38-0.82,0.34-1.69-0.04-2.57
								c-1.73-4.06-10.76-8.43-20.23-10.35c-2.38-0.48-15.12-0.08-19.93,0.09c-1.08,0.04-1.99,0.81-2.21,1.87l-1.51,7.43
								L639.37,462.95z"/>
							<path style="fill:#424469;" d="M639.37,462.95c0.47,1.31,43.97,1.19,44.73-0.46c0.38-0.82,0.34-1.69-0.04-2.57l-43.88-0.96
								L639.37,462.95z"/>
						</g>
					</g>
					<g>
						<g>
							<polygon style="fill:#336D93;" points="665.44,437.48 638.88,443.44 614.49,328.07 614.37,327.5 606.74,396.42 601.5,444.18 
								573.68,439.68 586.05,294.6 587.48,278.33 641.43,275.77 644.77,298.57 							"/>
							<polygon style="fill:#215175;" points="644.77,298.57 586.05,294.6 587.48,278.33 641.43,275.77 							"/>
							<polygon style="fill:#215175;" points="614.49,328.07 614.37,327.5 606.74,396.42 603.09,320.57 614.15,323.86 							"/>
						</g>
						<g>
							
								<line style="fill:none;stroke:#93BDC9;stroke-width:0.5;stroke-linecap:round;stroke-miterlimit:10;" x1="638.58" y1="439.14" x2="664.36" y2="433.33"/>
							<g>
								
									<line style="fill:none;stroke:#93BDC9;stroke-width:0.5;stroke-linecap:round;stroke-miterlimit:10;" x1="638.67" y1="287.17" x2="662.39" y2="433.33"/>
								<path style="fill:none;stroke:#93BDC9;stroke-width:0.5;stroke-linecap:round;stroke-miterlimit:10;" d="M640.18,296.81
									c0,0-6.75,0.4-7.9-9.05"/>
							</g>
							<g>
								
									<line style="fill:none;stroke:#93BDC9;stroke-width:0.5;stroke-linecap:round;stroke-miterlimit:10;" x1="608.39" y1="285.8" x2="607.7" y2="318.6"/>
								<path style="fill:none;stroke:#93BDC9;stroke-width:0.5;stroke-linecap:round;stroke-miterlimit:10;" d="M613.9,286.64
									c0,0,2.61,14.99-5.85,15.56"/>
							</g>
							
								<line style="fill:none;stroke:#93BDC9;stroke-width:0.5;stroke-linecap:round;stroke-miterlimit:10;" x1="574.95" y1="434.36" x2="601" y2="439.14"/>
							<path style="fill:none;stroke:#93BDC9;stroke-width:0.5;stroke-linecap:round;stroke-miterlimit:10;" d="M591.5,288.27
								c0.48,4.64-1.36,9.47-4.83,12.6"/>
						</g>
					</g>
				</g>
				<g>
					<g>
						<path style="fill:#923F56;" d="M587.48,208.93l-12.21,19.69c0,0-5.07-7.03-9.55-13.93c-2.72-4.18-5.21-8.31-6.24-10.79
							c-5.06-12.3-6.67-45.58-6.67-45.58l10.16-2.5c0,0,6.93,30.54,12.46,40.09c0.75,1.29,2.36,3.18,4.15,5.12
							C583.15,204.87,587.48,208.93,587.48,208.93z"/>
						<path style="fill:#782E49;" d="M587.48,208.93l-12.21,19.69c0,0-5.07-7.03-9.55-13.93c2.96-5.85,7.91-10.7,13.86-13.66
							C583.15,204.87,587.48,208.93,587.48,208.93z"/>
					</g>
					<g>
						<path style="fill:#923F56;" d="M560.86,161.41c3.69-3.51,6.99-7.47,9.79-11.76c0.3-0.47,0.61-0.95,0.71-1.5
							c0.1-0.55-0.07-1.18-0.53-1.47c-0.72-0.45-1.63,0.14-2.29,0.71c-1.72,1.47-3.44,2.94-5.62,4.48
							c-1.93-4.89-3.37-9.99-4.29-15.2c-0.1-0.57-0.2-1.15-0.48-1.64c-0.29-0.49-0.8-0.88-1.37-0.84c-0.54,0.05-0.99,0.49-1.21,1
							c-0.22,0.51-0.25,1.08-0.27,1.63c-0.09,2.91,0.19,5.83,0.44,9.51c-1.67-3.65-3.35-7.29-5.02-10.94
							c-0.21-0.46-0.47-0.96-0.94-1.11c-0.52-0.16-1.1,0.22-1.36,0.72s-0.27,1.09-0.26,1.66c0.09,3.98,1.17,7.92,2.89,11.93
							c-2.24-2.85-4.48-5.7-6.72-8.55c-0.33-0.42-0.74-0.88-1.27-0.86c-0.53,0.02-0.94,0.55-1.02,1.09
							c-0.08,0.54,0.08,1.07,0.26,1.58c1.21,3.55,2.96,6.9,4.74,10.37c-1.79-1.44-3.57-2.87-5.36-4.31
							c-0.45-0.36-0.98-0.74-1.54-0.61c-0.63,0.14-0.99,0.9-0.91,1.56c0.08,0.66,0.47,1.22,0.87,1.74
							c4.53,5.89,11.4,9.81,18.7,10.67c0.69,0.08,1.41,0.13,2.06-0.12C561.52,160.89,562.08,160.25,560.86,161.41z"/>
						<path style="fill:none;stroke:#782E49;stroke-linecap:round;stroke-miterlimit:10;" d="M561.71,151.81
							c-2.01-0.63-4.14-0.11-5.8,1.4"/>
					</g>
					<path style="fill:#FAAD3E;" d="M602.5,219.82l-19.92-18.93c0,0-13.34,13.18-14.42,25.66l19.1,25.28L602.5,219.82z"/>
				</g>
				<g>
					<g>
						<path style="fill:#FAAD3E;" d="M644.69,288.95l-1.33,0.02l-4.4,0.08l-6.47,0.11l-18.29,0.31l-5.89,0.1l-16.73,0.29l-5.12,0.09
							l-0.75,0.01c0,0-0.67-6.63-1.27-15.67c-0.45-6.64-0.87-14.6-0.98-22.17c-0.02-1.66-0.03-3.3-0.01-4.9v-0.46
							c0.07-8.34,0.66-15.67,2.17-19.47c1.6-3.99,6.89-7.63,13.91-10.29c0.3-0.11,0.61-0.22,0.91-0.33
							c1.43-0.51,2.93-0.98,4.48-1.41c1.1-0.3,2.22-0.58,3.36-0.83c4.28-0.97,8.84-1.58,13.39-1.75c0.79-0.03,1.57-0.05,2.36-0.05
							c4.19-0.01,8.32,0.36,12.18,1.21c0.33,0.07,0.66,0.14,0.98,0.22c0.97,0.24,1.83,0.99,2.58,2.16
							c2.75,4.24,4.2,14.04,4.91,25.12v0.01c0.05,0.77,0.1,1.55,0.14,2.34c0.1,1.74,0.17,3.51,0.24,5.29v0.13
							C645.75,268.61,644.69,288.95,644.69,288.95z"/>
						<path style="fill:#F5A038;" d="M644.69,288.95l-58.98,1.01c0,0-0.67-6.63-1.27-15.67c26.55,4.65,50.71-15.45,60.62-25.18
							C645.75,268.61,644.69,288.95,644.69,288.95z"/>
					</g>
					<path style="fill:#FFC76E;" d="M583.46,252.12c13.03,2.15,36.49,3.14,61.6-3.14c-0.07-1.78-0.14-3.55-0.24-5.29
						c-21.95,5.08-40.05,5.28-55.61,4.05c-1.83-0.14-3.63-0.31-5.39-0.48c-0.13-0.02-0.25-0.03-0.37-0.04"/>
				</g>
				<g>
					<g>
						<path style="fill:#923F56;" d="M641.96,132.21c-0.25-0.5-0.5-1.02-0.53-1.58c-0.03-0.56,0.2-1.17,0.7-1.4
							c0.77-0.36,1.6,0.33,2.19,0.97c1.53,1.66,3.07,3.32,5.05,5.1c2.49-4.63,4.52-9.53,6.04-14.59c0.17-0.55,0.33-1.12,0.67-1.57
							c0.34-0.46,0.9-0.78,1.45-0.67c0.53,0.11,0.93,0.6,1.09,1.13c0.16,0.53,0.13,1.1,0.08,1.65c-0.26,2.9-0.87,5.77-1.55,9.39
							c2.09-3.43,4.17-6.85,6.26-10.28c0.26-0.43,0.58-0.9,1.06-0.99c0.54-0.1,1.07,0.34,1.26,0.87c0.2,0.53,0.14,1.12,0.06,1.67
							c-0.55,3.94-2.09,7.73-4.26,11.51c2.56-2.57,5.12-5.14,7.68-7.71c0.38-0.38,0.84-0.78,1.36-0.7c0.52,0.08,0.87,0.66,0.89,1.2
							c0.02,0.54-0.21,1.06-0.44,1.54c-1.62,3.38-3.75,6.5-5.92,9.74c1.94-1.22,3.88-2.43,5.83-3.65c0.49-0.3,1.05-0.62,1.6-0.43
							c0.61,0.21,0.88,1.01,0.72,1.66c-0.16,0.65-0.61,1.16-1.06,1.62c-5.19,5.32-12.47,8.41-19.82,8.41
							c-0.69,0-1.41-0.03-2.03-0.36C649.71,144.43,644.24,136.8,641.96,132.21z"/>
						<path style="fill:none;stroke:#782E49;stroke-linecap:round;stroke-miterlimit:10;" d="M651.1,135.19
							c1.74,0.09,3.39,0.91,4.34,2.17"/>
					</g>
					<g>
						<path style="fill:#CF7E2D;" d="M638.24,202.41l-0.86-6.05c0,0,9.03,1.28,14.87,6.45s7.72,13.65,7.72,13.65l-13.38-3.06
							L638.24,202.41z"/>
						<g>
							<path style="fill:#923F56;" d="M663.58,188.4c-0.76,4.34-3.81,11.22-7.01,17.6c-4.15,8.28-8.56,15.72-8.56,15.72
								l-17.47-11.67c0,0,4.25-6.9,8.17-14.03c2.69-4.88,5.23-9.87,6.13-12.83c2.99-9.73,4.32-40.47,4.32-40.47l10.81,0.24
								C659.97,142.96,665.37,178.18,663.58,188.4z"/>
							<path style="fill:#782E49;" d="M656.57,206c-4.15,8.28-8.56,15.72-8.56,15.72l-17.47-11.67c0,0,4.25-6.9,8.17-14.03
								C640.89,199.42,646.16,205.35,656.57,206z"/>
						</g>
						<path style="fill:#FAAD3E;" d="M620.2,217.31l17.23-21.04c3.58,8.68,17.16,17.93,22.54,20.13l-16.53,26.96L620.2,217.31z"/>
					</g>
				</g>
				<g>
					<g>
						<g>
							<path style="fill:#923F56;" d="M623.18,214.25c0,0-10.54,10.12-16.49,9.68c-6.08-0.46-7.09-6.41-7.09-6.41
								c0.72-0.64,1.4-1.44,1.98-2.46c1.4-2.44,2.27-6.16,1.85-12.12l16.3-4.45c-0.21,2.61-0.37,5.09-0.22,7.35
								C619.72,209.26,620.63,212.17,623.18,214.25z"/>
							<path style="fill:#782E49;" d="M619.51,205.84c-3.9,4.36-11.06,10.87-17.93,9.22c1.4-2.44,2.27-6.16,1.85-12.12l16.3-4.45
								C619.52,201.1,619.36,203.58,619.51,205.84z"/>
						</g>
						<g>
							<path style="fill:#782E49;" d="M586.46,193.307c0.516-2.324,3.386-3.663,6.411-2.991c3.024,0.672,5.058,3.1,4.542,5.424
								c-0.516,2.324-3.386,3.663-6.411,2.991C587.977,198.059,585.944,195.631,586.46,193.307z"/>
							<path style="fill:#0C1A3A;" d="M589.92,177.34c0,0-0.51,4.58-0.3,8.15c0.28,4.7,1.5,9.45,3.23,10.6
								c0.25-5.66,0.64-11.78,2.62-17.01C593.31,178.47,589.92,177.34,589.92,177.34z"/>
							<path style="fill:#923F56;" d="M625.51,186.54v0.05c-0.01,0.33-0.03,0.66-0.06,0.99c-0.04,0.62-0.1,1.25-0.17,1.89
								c-1.55,13.45-12.01,21.21-20.91,20.91c-9.98-0.33-13.81-10.85-12.69-23c0.12-1.34,0.25-2.6,0.39-3.78
								c0.34-3.1,0.72-5.65,1.23-7.75c1.88-7.93,5.4-9.29,14.6-8.84C622.02,167.7,626.03,175.83,625.51,186.54z"/>
							<path style="fill:#782E49;" d="M625.56,187.5c-0.04,0.03-0.07,0.05-0.11,0.08c-1.44,1.07-2.88,2.14-4.33,3.48
								c-1.81-2.23-3.15-4.83-4.03-7.57c-0.7,0.78-1.99,0.51-2.9,0c-0.92-0.5-1.84-1.21-2.88-1.1c-1.32,0.13-2.23,1.51-3.54,1.68
								c-1.86,0.25-3.29-2.03-5.17-1.96c-1.62,0.06-2.76,1.83-4.38,1.94c-1.25,0.08-2.35-0.87-3.6-1.04
								c-0.88-0.12-1.73,0.16-2.55,0.59c0.34-3.1,0.72-5.65,1.23-7.75c9.17-1.96,18.55-2.91,27.9-2.62
								c2.48,3.93,3.96,8.49,4.31,13.31v0.05C625.53,186.89,625.55,187.19,625.56,187.5z"/>
							<path style="fill:#0C1A3A;" d="M627.58,189.76c-0.67,1.44-1.09,3.25-0.85,4.93c-1.61,0.73-3.28,1.34-4.77,1.82
								c-1.9-4.67-3.13-9.59-3.83-14.9c-0.79,0.97-2.42,0.58-3.5-0.09s-2.21-1.57-3.47-1.35c-1.18,0.21-1.98,1.34-3.16,1.61
								c-2.17,0.48-3.96-2.23-6.18-2c-1.81,0.19-2.91,2.24-4.71,2.45c-1.07,0.13-2.08-0.43-3.13-0.67c-0.88-0.2-1.61,0.31-2.39,0.7
								c-0.8,0.4-2.45,0-3.56-0.94c-0.5-0.41-0.89-0.94-1.04-1.55c-0.24-1.01-0.13-2.08-0.37-3.1c-0.37-1.58-1.35-3.29-0.49-4.69
								c0.71-1.15,2.35-1.46,3.27-2.48c1.08-1.2,0.88-3.08,1.89-4.34c1.03-1.27,2.94-1.5,4.63-1.43c1.69,0.08,3.47,0.33,5.01-0.34
								c1.5-0.65,2.75-2.16,4.39-1.96c1.25,0.15,2.1,1.26,3.25,1.74c1.67,0.71,3.59,0,5.33-0.54c1.74-0.55,3.93-0.81,5.16,0.47
								c0.35,0.36,0.58,0.81,0.82,1.25c0.26,0.47,0.53,0.92,0.98,1.23c0.68,0.47,1.54,0.48,2.4,0.49c0.96,0.02,1.92,0.25,2.72,0.74
								c1.83,1.14,2,2.85,1.56,4.53c-0.23,0.9,0.03,1.85,0.56,2.63c0.65,0.95,0.81,2.27,0.68,3.44c-0.19,1.69-0.8,3.37-0.49,5.04
								c0.18,0.96,0.65,1.85,0.73,2.81C629.16,186.84,628.25,188.31,627.58,189.76z"/>
							<path style="fill:#923F56;" d="M623.924,190.363c3-0.775,5.914,0.465,6.51,2.769c0.596,2.305-1.353,4.801-4.353,5.576
								c-3,0.775-5.914-0.465-6.51-2.769C618.975,193.635,620.924,191.139,623.924,190.363z"/>
							<path style="fill:#243A57;" d="M619.88,164.35c-1.42-0.65-3.09-0.74-4.56-0.2c-1.67,0.62-3.1,1.99-4.88,2.1
								c-2.37,0.15-4.69-2-6.91-1.16c-1.17,0.44-1.99,1.64-3.22,1.84c-1.29,0.21-2.47-0.75-3.75-1.01c-1.5-0.29-3.15,0.51-3.83,1.88
								c-0.53,1.05-0.54,2.38-1.35,3.24c-0.85,0.9-2.39,1.09-2.87,2.22c-0.37,0.9,0.14,1.89,0.25,2.86
								c0.13,1.25-0.44,2.44-0.69,3.67c-0.1,0.48-0.12,1.01-0.04,1.53c-0.5-0.41-0.89-0.94-1.04-1.55c-0.24-1.01-0.13-2.08-0.37-3.1
								c-0.37-1.58-1.35-3.29-0.49-4.69c0.71-1.15,2.35-1.46,3.27-2.48c1.08-1.2,0.88-3.08,1.89-4.34c1.03-1.27,2.94-1.5,4.63-1.43
								c1.69,0.08,3.47,0.33,5.01-0.34c1.5-0.65,2.75-2.16,4.39-1.96c1.25,0.15,2.1,1.26,3.25,1.74c1.67,0.71,3.59,0,5.33-0.54
								c1.74-0.55,3.93-0.81,5.16,0.47C619.41,163.46,619.64,163.91,619.88,164.35z"/>
						</g>
					</g>
					<g>
						<path style="fill:none;stroke:#0C1A3A;stroke-linecap:round;stroke-miterlimit:10;" d="M614.78,187.79
							c-1.92-1.66-5.05-2.13-7.5-1.13"/>
						<path style="fill:none;stroke:#0C1A3A;stroke-linecap:round;stroke-miterlimit:10;" d="M598.21,186.96
							c-1.8-1.35-4.41-1.49-6.34-0.35"/>
						<path style="fill:none;stroke:#571B38;stroke-linecap:round;stroke-miterlimit:10;" d="M599.82,192.71
							c-0.48,1.99-0.49,4.09-0.02,6.08"/>
						<ellipse style="fill:#0C1A3A;" cx="608.41" cy="192.71" rx="1.12" ry="1.38"/>
						<ellipse style="fill:#0C1A3A;" cx="595.04" cy="192.21" rx="1.12" ry="1.38"/>
						<g>
							<path style="fill:#571B38;" d="M600.47,201.9c0.07,0.36,0.17,0.7,0.28,1.02c0.39,1.09,0.99,1.97,1.74,2.56
								c0.38,0.3,0.8,0.52,1.25,0.66c1.57,0.48,3.39-0.18,4.39-1.58c0.72-1.02,0.99-2.37,0.77-3.63c-0.02-0.17-0.06-0.34-0.12-0.51
								c-0.08-0.31-0.2-0.6-0.35-0.88C605.87,200.73,602.42,201.51,600.47,201.9z"/>
							<path style="fill:#FFFFFF;" d="M600.47,201.9c0.07,0.36,0.17,0.7,0.28,1.02c0.17,0.1,0.32,0.15,0.46,0.15
								c0.56-0.02,5.41-1.47,7.57-2.65c-0.08-0.31-0.2-0.6-0.35-0.88C605.87,200.73,602.42,201.51,600.47,201.9z"/>
							<path style="fill:#AD5E8F;" d="M602.49,205.48c0.38,0.3,0.8,0.52,1.25,0.66c1.57,0.48,3.39-0.18,4.39-1.58
								c0.72-1.02,0.99-2.37,0.77-3.63C607.36,201.27,604.43,202.32,602.49,205.48z"/>
						</g>
					</g>
				</g>
			</g>
			<g>
				<g>
					<g>
						<path style="fill:#E67253;" d="M306.85,383.21c0,11.93-43.88,51.1-43.88,51.1l-8.75-10.45c0,0,29.91-39.16,29.41-41.94
							c-0.26-1.45-2.19-4.53-4.89-8.28c-1.99-2.74-4.39-5.85-6.86-8.96c-7.09-8.89-14.74-17.71-14.74-17.71l20.65-29.51
							c0,0,10.29,19.07,18.63,37.02c1.13,2.43,2.22,4.84,3.25,7.18C303.8,371.07,306.85,379.35,306.85,383.21z"/>
						<path style="fill:#BF4B39;" d="M299.67,361.66l-20.93,11.98c-1.99-2.74-4.39-5.85-6.86-8.96l24.54-10.2
							C297.55,356.91,298.65,359.32,299.67,361.66z"/>
					</g>
					<g>
						<path style="fill:#E67253;" d="M241.17,433.25l4.33,4.37l6.55-1.14v7.03c0,0,14.54,16.58,17.17,15.89
							c1.09-0.28,0.48-4.95-0.63-10.32c-1.55-7.56-4.07-16.53-4.07-16.53l-8.96-10.59c-1.54,0.49-3.17,1.4-4.77,2.51
							C245.79,427.92,241.17,433.25,241.17,433.25z"/>
						<path style="fill:#101840;" d="M241.17,433.25l4.33,4.37l6.55-1.14v7.03c0,0,14.54,16.58,17.17,15.89
							c1.09-0.28,0.48-4.95-0.63-10.32c-5.91-4.16-14.08-17.95-17.8-24.61C245.79,427.92,241.17,433.25,241.17,433.25z"/>
					</g>
				</g>
				<g>
					<g>
						<path style="fill:#F08C3A;" d="M61.73,447.53L61.73,447.53c0-10.77,8.73-19.5,19.5-19.5h155.5v39H81.23
							C70.46,467.03,61.73,458.3,61.73,447.53z"/>
						<path style="fill:#FFAA40;" d="M88.99,447.53L88.99,447.53c0-10.77,8.73-19.5,19.5-19.5h155.5v39h-155.5
							C97.72,467.03,88.99,458.3,88.99,447.53z"/>
						<path style="fill:#EDE2CC;" d="M102.38,449.03v-3c0-7.73,6.27-14,14-14h147.61v31H116.38
							C108.65,463.03,102.38,456.76,102.38,449.03z"/>
						<g>
							<g>
								<defs>
									<path id="SVGID_1_" d="M102.38,449.03v-3c0-7.73,6.27-14,14-14h147.61v31H116.38
										C108.65,463.03,102.38,456.76,102.38,449.03z"/>
								</defs>
								<clipPath id="SVGID_00000150806960567356428190000005732905399705519801_">
									<use xlink:href="#SVGID_1_"  style="overflow:visible;"/>
								</clipPath>
								<g style="clip-path:url(#SVGID_00000150806960567356428190000005732905399705519801_);">
									
										<line style="fill:none;stroke:#BFB19B;stroke-linecap:round;stroke-miterlimit:10;" x1="99.16" y1="434.98" x2="240" y2="435.18"/>
									
										<line style="fill:none;stroke:#BFB19B;stroke-linecap:round;stroke-miterlimit:10;" x1="99.16" y1="437.98" x2="226.24" y2="438.18"/>
									
										<line style="fill:none;stroke:#BFB19B;stroke-linecap:round;stroke-miterlimit:10;" x1="99.16" y1="442.48" x2="174.66" y2="442.68"/>
									
										<line style="fill:none;stroke:#BFB19B;stroke-linecap:round;stroke-miterlimit:10;" x1="99.16" y1="446.98" x2="154.66" y2="447.18"/>
									
										<line style="fill:none;stroke:#BFB19B;stroke-linecap:round;stroke-miterlimit:10;" x1="99.16" y1="451.48" x2="179.16" y2="451.68"/>
									
										<line style="fill:none;stroke:#BFB19B;stroke-linecap:round;stroke-miterlimit:10;" x1="99.16" y1="454.98" x2="195.16" y2="455.18"/>
									
										<line style="fill:none;stroke:#BFB19B;stroke-linecap:round;stroke-miterlimit:10;" x1="99.16" y1="459.48" x2="250.49" y2="459.68"/>
								</g>
							</g>
						</g>
					</g>
					<g>
						<path style="fill:#35838F;" d="M51.18,408.53L51.18,408.53c0-10.77,8.73-19.5,19.5-19.5h155.5v39H70.68
							C59.91,428.03,51.18,419.3,51.18,408.53z"/>
						<path style="fill:#449DA3;" d="M78.44,408.53L78.44,408.53c0-10.77,8.73-19.5,19.5-19.5h155.5v39H97.94
							C87.17,428.03,78.44,419.3,78.44,408.53z"/>
						<path style="fill:#EDE2CC;" d="M91.83,410.03v-3c0-7.73,6.27-14,14-14h147.61v31H105.83
							C98.1,424.03,91.83,417.76,91.83,410.03z"/>
						<g>
							<g>
								<defs>
									<path id="SVGID_00000018196232820929150010000005793197328097520027_" d="M91.83,410.03v-3c0-7.73,6.27-14,14-14h147.61v31
										H105.83C98.1,424.03,91.83,417.76,91.83,410.03z"/>
								</defs>
								<clipPath id="SVGID_00000004524166071334445800000001587515279182990006_">
									<use xlink:href="#SVGID_00000018196232820929150010000005793197328097520027_"  style="overflow:visible;"/>
								</clipPath>
								<g style="clip-path:url(#SVGID_00000004524166071334445800000001587515279182990006_);">
									
										<line style="fill:none;stroke:#BFB19B;stroke-linecap:round;stroke-miterlimit:10;" x1="88.61" y1="395.98" x2="229.45" y2="396.18"/>
									
										<line style="fill:none;stroke:#BFB19B;stroke-linecap:round;stroke-miterlimit:10;" x1="88.61" y1="398.98" x2="215.69" y2="399.18"/>
									
										<line style="fill:none;stroke:#BFB19B;stroke-linecap:round;stroke-miterlimit:10;" x1="88.61" y1="403.48" x2="164.11" y2="403.68"/>
									
										<line style="fill:none;stroke:#BFB19B;stroke-linecap:round;stroke-miterlimit:10;" x1="88.61" y1="407.98" x2="144.11" y2="408.18"/>
									
										<line style="fill:none;stroke:#BFB19B;stroke-linecap:round;stroke-miterlimit:10;" x1="88.61" y1="412.48" x2="168.61" y2="412.68"/>
									
										<line style="fill:none;stroke:#BFB19B;stroke-linecap:round;stroke-miterlimit:10;" x1="88.61" y1="415.98" x2="184.61" y2="416.18"/>
									
										<line style="fill:none;stroke:#BFB19B;stroke-linecap:round;stroke-miterlimit:10;" x1="88.61" y1="420.48" x2="239.94" y2="420.68"/>
								</g>
							</g>
						</g>
					</g>
					<g>
						<path style="fill:#C7404F;" d="M45.82,369.53L45.82,369.53c0-10.77,8.73-19.5,19.5-19.5H218v39H65.32
							C54.55,389.03,45.82,380.3,45.82,369.53z"/>
						<path style="fill:#E8545D;" d="M72.64,369.53L72.64,369.53c0-10.77,8.73-19.5,19.5-19.5h152.68v39H92.14
							C81.37,389.03,72.64,380.3,72.64,369.53z"/>
						<path style="fill:#EDE2CC;" d="M85.82,371.03v-3c0-7.73,6.27-14,14-14h145v31h-145C92.08,385.03,85.82,378.76,85.82,371.03z"
							/>
						<g>
							<g>
								<defs>
									<path id="SVGID_00000038386950945372954760000011395753246888498352_" d="M85.82,371.03v-3c0-7.73,6.27-14,14-14h145v31
										h-145C92.08,385.03,85.82,378.76,85.82,371.03z"/>
								</defs>
								<clipPath id="SVGID_00000079448950687416772800000003388447583887425711_">
									<use xlink:href="#SVGID_00000038386950945372954760000011395753246888498352_"  style="overflow:visible;"/>
								</clipPath>
								<g style="clip-path:url(#SVGID_00000079448950687416772800000003388447583887425711_);">
									
										<line style="fill:none;stroke:#BFB19B;stroke-linecap:round;stroke-miterlimit:10;" x1="82.65" y1="356.98" x2="221.21" y2="357.18"/>
									
										<line style="fill:none;stroke:#BFB19B;stroke-linecap:round;stroke-miterlimit:10;" x1="82.65" y1="359.98" x2="207.68" y2="360.18"/>
									
										<line style="fill:none;stroke:#BFB19B;stroke-linecap:round;stroke-miterlimit:10;" x1="82.65" y1="364.48" x2="156.93" y2="364.68"/>
									
										<line style="fill:none;stroke:#BFB19B;stroke-linecap:round;stroke-miterlimit:10;" x1="82.65" y1="368.98" x2="137.25" y2="369.18"/>
									
										<line style="fill:none;stroke:#BFB19B;stroke-linecap:round;stroke-miterlimit:10;" x1="82.65" y1="373.48" x2="161.36" y2="373.68"/>
									
										<line style="fill:none;stroke:#BFB19B;stroke-linecap:round;stroke-miterlimit:10;" x1="82.65" y1="376.98" x2="177.1" y2="377.18"/>
									
										<line style="fill:none;stroke:#BFB19B;stroke-linecap:round;stroke-miterlimit:10;" x1="82.65" y1="381.48" x2="231.53" y2="381.68"/>
								</g>
							</g>
						</g>
					</g>
				</g>
				<g>
					<g>
						<g>
							<g>
								<path style="fill:#FC8C60;" d="M308.72,306.25c0,0-20.11,10.85-28.83,6.97c-2.98-1.33-6.56-6.28-9.62-11.38
									c-3.81-6.36-6.81-12.93-6.81-12.93l0.71-4.88l3.33-22.75c0,0,1.93-1.79,5.68,2.4c1.32,1.47,3.13,6.3,4.98,12.03
									c1.67,5.17,3.36,11.07,4.75,15.91c1.45,5.09,2.56,9,2.92,9.61c1.15,1.95,19.82-0.35,19.82-0.35L308.72,306.25z"/>
								<path style="fill:#E67253;" d="M282.91,291.62l-12.64,10.22c-3.81-6.36-6.81-12.93-6.81-12.93l0.71-4.88l13.99-8.32
									C279.83,280.88,281.52,286.78,282.91,291.62z"/>
							</g>
							<path style="fill:#F5EBEB;" d="M261.7,264.65l5.46-5.53c0,0,5.06,1.21,7.3,4.16c2.24,2.95,9.58,24.19,9.58,24.19l-17.63,9.38
								L261.7,264.65z"/>
							<g>
								<path style="fill:#FC8C60;" d="M307.57,307c0,0,11.3,0.05,13.08-0.47c1.95-0.58,6.95-4.69,7.25-6.83
									c0.5-3.56-19.61,0.24-19.61,0.24l-8.38,3.15L307.57,307z"/>
								<path style="fill:#FC8C60;stroke:#AB3A30;stroke-linecap:round;stroke-miterlimit:10;" d="M319.37,302.76
									c0.71-0.47,1.42-0.93,2.13-1.4"/>
							</g>
						</g>
						<g>
							<g>
								<g>
									<path style="fill:#8AC2D4;" d="M290.95,300.06v-28.11c0-1.04,0.85-1.89,1.89-1.89h42.83c1.04,0,1.89,0.85,1.89,1.89v28.11
										H290.95z"/>
									<rect x="293.19" y="272.06" style="fill:#F0F9FA;" width="42.13" height="26"/>
									<g>
										<g>
											<rect x="297.43" y="292.25" style="fill:#CB1B3F;" width="1.9" height="3.72"/>
											<rect x="302.71" y="288.54" style="fill:#CB1B3F;" width="1.9" height="7.43"/>
											<rect x="308.2" y="287.31" style="fill:#CB1B3F;" width="1.9" height="8.66"/>
											<rect x="313.39" y="289.53" style="fill:#CB1B3F;" width="1.9" height="6.44"/>
											<rect x="318.46" y="284.99" style="fill:#CB1B3F;" width="1.9" height="10.98"/>
											<rect x="323.9" y="283.09" style="fill:#CB1B3F;" width="1.9" height="12.88"/>
											<rect x="329.18" y="280.04" style="fill:#CB1B3F;" width="1.9" height="15.92"/>
										</g>
										<g>
											<polyline style="fill:none;stroke:#356D94;stroke-width:0.5;stroke-linecap:round;stroke-miterlimit:10;" points="
												298.39,288.24 308.83,283.13 314.26,284.51 328.94,277.04 											"/>
											<polygon style="fill:#356D94;" points="327.79,276.09 330.84,275.9 329.29,278.53 											"/>
										</g>
									</g>
									<g>
										<rect x="293.19" y="272.06" style="fill:#4A7C9F;" width="42.13" height="2.02"/>
										<g>
											<circle style="fill:#F0F9FA;" cx="329.1" cy="273.07" r="0.45"/>
											<circle style="fill:#F0F9FA;" cx="331.12" cy="273.07" r="0.45"/>
											<circle style="fill:#F0F9FA;" cx="333.13" cy="273.07" r="0.45"/>
										</g>
									</g>
								</g>
								<g>
									<rect x="277.57" y="300.06" style="fill:#4A7C9F;" width="58.72" height="2.24"/>
									<rect x="277.57" y="300.06" style="fill:#65A1BF;" width="46.84" height="2.24"/>
								</g>
							</g>
							<path style="fill:#FC8C60;stroke:#AB3A30;stroke-linecap:round;stroke-miterlimit:10;" d="M319.37,302.8
								c-2.59-0.85-5.34-1.11-8.56,0.15"/>
						</g>
					</g>
					<g>
						<path style="fill:#101840;" d="M244.82,237.1c-3.68-0.75-10.9,3.94-13.51,6.55s-3.69,6.56-2.78,10.08
							c0.24,0.92,0.6,1.86,0.41,2.78c-0.46,2.17-3.35,2.64-5.39,3.64c-3.4,1.68-4.95,5.93-3.95,9.5s4.17,6.34,7.78,7.57
							s7.59,1.06,11.31,0.19c3.02-0.71,6.03-1.95,8.03-4.23c2.01-2.29,2.74-5.8,1.08-8.35c-0.91-1.39-2.38-2.34-3.6-3.49
							s-2.25-2.76-1.87-4.36c0.53-2.26,3.36-3.08,5.15-4.61C249.51,250.64,248.55,237.87,244.82,237.1z"/>
						<path style="fill:#CB1B3F;" d="M247.01,241.61c0.05,0.64-0.01,1.28-0.21,1.91c-0.91,2.77-4.22,4.16-7.41,3.12
							s-5.03-4.13-4.13-6.9c0.2-0.62,0.53-1.17,0.95-1.64c0.21,2.15,1.88,4.18,4.34,4.98C243.03,243.89,245.57,243.23,247.01,241.61
							z"/>
					</g>
					<path style="fill:#FEFFFE;" d="M229.35,264.69c2.58-5.59,13.18-8.03,22.87-8.03s16.96,2.33,18.57,5.7
						c1.6,3.36,4.72,12.93,4.38,20.86c-0.28,6.52-1.5,23.79-1.5,23.79l-39.09,2C234.58,309,226.17,271.58,229.35,264.69z"/>
					<g>
						<g>
							<path style="fill:#FC8C60;" d="M273.47,372.67l-4.39-10.52l-1.55-3.71c-1.18,0.67-2.37,1.34-3.59,1.95
								c-4.18,2.11-8.47,4-12.59,6.21c-1.93,1.03-3.84,2.13-5.73,3.26c0.73,1.37,1.46,2.75,2.21,4.14c1.71,3.16,3.48,6.38,5.28,9.62
								c15.59,27.92,42.56,67.65,42.56,67.65l13.61-3.38L273.47,372.67z"/>
							<path style="fill:#BF4B39;" d="M273.47,372.67l-20.36,10.94c-1.8-3.24-3.57-6.46-5.28-9.62l21.25-11.84L273.47,372.67z"/>
						</g>
						<g>
							<path style="fill:#FC8C60;" d="M298.09,467.03l5.96-1.56l2.3-6.24l6.08,3.53c0,0,21.63-4.26,22.36-6.88
								c0.3-1.09-4.04-2.9-9.25-4.64c-7.32-2.45-16.34-4.77-16.34-4.77l-13.66,2.44c-0.35,1.57-0.38,3.45-0.22,5.38
								C295.8,460.36,298.09,467.03,298.09,467.03z"/>
							<path style="fill:#101840;" d="M298.09,467.03l5.96-1.56l2.3-6.24l6.08,3.53c0,0,21.63-4.26,22.36-6.88
								c0.3-1.09-4.04-2.9-9.25-4.64c-6.56,3.03-22.59,3.17-30.22,3.05C295.8,460.36,298.09,467.03,298.09,467.03z"/>
						</g>
					</g>
					<g>
						<g>
							<g>
								<path style="fill:#FC8C60;" d="M240,258.65c0,0,9.33,8.62,13.79,8.03c4.45-0.57,7.19-8.3,7.19-8.3s-1.59-0.17-2.44-2.85
									c-0.5-1.54-0.76-3.91-0.34-7.55c0.02-0.19-14.22-7.44-13.88-3.91c0.22,2.28,0.21,4.22,0.04,5.87
									C243.65,257.11,240,258.65,240,258.65z"/>
								<path style="fill:#E67253;" d="M244.36,249.94c4.18,2.93,9.09,4.87,14.17,5.59c-0.5-1.54-0.76-3.91-0.34-7.55
									c0.02-0.19-14.22-7.44-13.88-3.91C244.54,246.35,244.52,248.29,244.36,249.94z"/>
							</g>
							<g>
								<path style="fill:#E67253;" d="M269.601,232.1c3.026-0.665,5.893,0.681,6.404,3.006c0.511,2.325-1.529,4.748-4.555,5.413
									c-3.026,0.665-5.893-0.681-6.404-3.006C264.536,235.188,266.575,232.765,269.601,232.1z"/>
								<g>
									<path style="fill:#FC8C60;" d="M257.61,252.17c-7.72,0.27-16.6-5.53-19.84-15.85c-0.46-1.44-0.8-2.98-1.01-4.6
										c-0.02-0.15-0.04-0.3-0.06-0.46c-1.39-12.12,2-23.19,17.38-22.46c5.29,0.25,9.09,2.42,11.7,6.13
										c2.48,3.5,3.9,8.36,4.52,14.24c0.05,0.49,0.1,0.98,0.13,1.47C271.27,242.14,267.2,251.85,257.61,252.17z"/>
									<path style="fill:#E67253;" d="M270.43,230.64c-1.47-4.39-5.21-8.32-8.9-10.91c-0.94,2.99-2.99,5.95-5.95,7.79
										c-2.97,1.85-6.32,2.96-9.56,4.23c-2.94,1.16-5.88,2.5-8.25,4.57c-0.46-1.44-0.8-2.98-1.01-4.6
										c5.86-5.77,11.61-11.58,17.36-17.4c3.78,0.15,7.71,0.37,11.66,0.61c2.48,3.5,3.9,8.36,4.52,14.24
										C270.35,229.66,270.41,230.15,270.43,230.64z"/>
								</g>
								<g>
									<path style="fill:#101840;" d="M273.46,224.47c-0.41,3.03-1.41,5.97-2.91,8.42c-0.48-4.49-1.4-7.8-3.85-10.56
										c-1.69-1.91-3.73-3.47-5.91-4.84c-0.29,1.36-0.83,2.67-1.56,3.85c-2.05,3.29-5.39,5.63-8.87,7.46
										c-2.22,1.17-4.55,2.18-6.61,3.59c-2.07,1.41-3.9,3.31-4.63,5.66c-1.91-1.01-4.4-1.58-5.72-3.78
										c-3.22-5.36-3.49-12.29-0.68-17.87c0.98-1.93,2.31-3.68,3.9-5.18c2.99-2.82,6.89-4.75,11.03-5.29
										c2.67-0.34,5.57-0.03,7.99,1.08c1.8-0.31,3.62-0.5,5.45-0.43c3.27,0.13,6.63,1.18,8.89,3.54c1.63,1.69,2.59,3.92,3.13,6.2
										C273.73,218.91,273.83,221.73,273.46,224.47z"/>
									<path style="fill:#243A57;" d="M273.46,224.47c-0.6-3.06-1.77-6.18-3.77-8.77c-2.82-3.65-7.46-6.05-12.05-5.51
										c-6.73-2.83-14.69-2.36-21.02,1.03c2.99-2.82,6.89-4.75,11.03-5.29c2.67-0.34,5.57-0.03,7.99,1.08
										c1.8-0.31,3.62-0.5,5.45-0.43c3.27,0.13,6.63,1.18,8.89,3.54c1.63,1.69,2.59,3.92,3.13,6.2
										C273.73,218.91,273.83,221.73,273.46,224.47z"/>
								</g>
								<path style="fill:#FC8C60;" d="M231.548,234.886c0.596-2.305,3.51-3.545,6.51-2.769c3,0.775,4.949,3.272,4.353,5.576
									c-0.596,2.305-3.51,3.545-6.51,2.769C232.901,239.688,230.952,237.191,231.548,234.886z"/>
							</g>
						</g>
						<g>
							<path style="fill:none;stroke:#101840;stroke-linecap:round;stroke-miterlimit:10;" d="M249.33,232.89
								c1.5-1.66,3.93-2.14,5.83-1.13"/>
							<path style="fill:none;stroke:#101840;stroke-linecap:round;stroke-miterlimit:10;" d="M264.53,231.23
								c1.42-1.35,3.48-1.5,5-0.35"/>
							<path style="fill:none;stroke:#CC453B;stroke-linecap:round;stroke-miterlimit:10;" d="M262.41,237
								c0.48,1.39,0.49,2.86,0.02,4.25"/>
							<ellipse style="fill:#0C1A3A;" cx="254.23" cy="237" rx="0.94" ry="1.14"/>
							<ellipse style="fill:#0C1A3A;" cx="266.52" cy="236.54" rx="0.94" ry="1.14"/>
							<path style="fill:none;stroke:#CC453B;stroke-linecap:round;stroke-miterlimit:10;" d="M261.47,244.84
								c-2.21,0.39-4.58-0.25-6.3-1.7"/>
						</g>
					</g>
					<g>
						<g>
							<polygon style="fill:#356D94;" points="243.79,278.47 272.77,276.71 276.01,283.2 273.89,310.03 234.46,310.16 
								232.61,302.79 							"/>
							<path style="fill:#356D94;" d="M249.29,279.47c0,0-2.21-16.08-8.44-22.31l-5.26,1.59c0,0,7.69,9.53,7.69,22.48L249.29,279.47
								z"/>
							<path style="fill:#356D94;" d="M267.42,278.21c0,0-0.77-12.12-8.19-21.31l6.52,1.25c0,0,6.27,7.15,7.02,18.8"/>
							<path style="fill:#356D94;" d="M235.6,307.71c0,0-9.36,12.91-9.36,28.08c0,15.17,21.02,44.81,21.02,44.81l54.48-20.45
								c0,0-24.88-43.66-25.73-46.84c-0.73-2.74-2.12-8.53-2.12-8.53L235.6,307.71z"/>
							<g>
								<path style="fill:none;stroke:#75A5BA;stroke-width:0.5;stroke-linecap:round;stroke-miterlimit:10;" d="M235.21,310.6
									c0,0,25.3,0.08,38.08-3.14"/>
								<path style="fill:none;stroke:#75A5BA;stroke-width:0.5;stroke-linecap:round;stroke-miterlimit:10;" d="M237.94,310.6
									c0,0-8.36,12.79-7.94,23.56c0.61,15.78,18.59,41.52,18.59,41.52"/>
								<path style="fill:none;stroke:#75A5BA;stroke-width:0.5;stroke-linecap:round;stroke-miterlimit:10;" d="M241.98,310.6
									c0,0-2.31,9.94-8.35,8.8"/>
								<path style="fill:none;stroke:#75A5BA;stroke-width:0.5;stroke-linecap:round;stroke-miterlimit:10;" d="M259.91,278.21
									c0,0,0.36,4.02,0.58,6.42s0.7,25.04,0.7,25.04s-0.07,4.15,0,5.96c0.15,4.11,7.53,20.18,7.53,20.18"/>
								<path style="fill:#356D94;stroke:#75A5BA;stroke-width:0.5;stroke-miterlimit:10;" d="M251.22,285.18l16.93-1.2
									c0,0,0.95,7.24,0.13,9.45c-0.99,2.66-7.08,5.49-7.08,5.49s-7.89-2.1-8.75-4.83S251.22,285.18,251.22,285.18z"/>
								<path style="fill:none;stroke:#75A5BA;stroke-width:0.5;stroke-linecap:round;stroke-miterlimit:10;" d="M264.64,309.17
									c0,0-0.23,3.99,0.05,5.43s3.02,7.05,2.82,8.4c-0.2,1.35-2.77,3.33-2.77,3.33"/>
								
									<line style="fill:none;stroke:#75A5BA;stroke-width:0.5;stroke-linecap:round;stroke-miterlimit:10;" x1="245.6" y1="376.98" x2="299.7" y2="357.58"/>
							</g>
						</g>
						<g>
							<circle style="fill:#EDD795;" cx="246.86" cy="281.57" r="2.04"/>
							<circle style="fill:#EDD795;" cx="270.54" cy="279.53" r="2.04"/>
						</g>
					</g>
					<g>
						<g>
							<g>
								<path style="fill:#FC8C60;" d="M275.2,319.75l-2.62,9.03c0,0-36.57-8.44-40.32-12.69c-1.85-2.08-3.68-10.55-4.97-17.88
									c-0.95-5.42-1.61-10.22-1.76-11.36c-0.03-0.17-0.04-0.26-0.04-0.26l3.44-0.17l13.39-0.67c0,0,0.83,6.31,1.79,12.1
									c0.68,4.16,1.44,8.07,2,9.17C247.06,308.89,275.2,319.75,275.2,319.75z"/>
								<path style="fill:#E67253;" d="M244.11,297.85l-16.82,0.36c-0.95-5.42-1.61-10.22-1.76-11.36l3.4-0.43l13.39-0.67
									C242.32,285.75,243.15,292.06,244.11,297.85z"/>
							</g>
							<g>
								<path style="fill:#FC8C60;" d="M273.16,319.54c4.8-1.7,8.8,0.69,13.21,0.04c0.76-0.11,1.76-0.06,1.99,0.68
									c0.22,0.73-0.56,1.33-1.23,1.69c-1.71,0.91-4.42,0.32-6.03,1.2c0.31,1.04,1.45,2.9,3.42,4.77c1.97,1.87,4.49,3.05,6.93,4.24
									c0.49,0.24,1.04,0.56,1.1,1.1c0.05,0.44-0.28,0.84-0.68,1.03c-0.4,0.18-0.85,0.19-1.29,0.16c-3.04-0.15-6.01-1.36-8.4-3.37
									c1.11,2.05,3.42,3.12,5.04,4.8c0.38,0.4,0.74,0.85,0.89,1.38c0.15,0.53,0.06,1.16-0.34,1.55c-0.4,0.38-1.14,0.39-1.5,0.03
									c-0.67,0.75-1.99,0.76-2.83-0.04c-0.59,0.42-1.17,1.31-2.84,0.48c-0.65-0.32-1.3-0.65-1.87-1.1
									c-3.52-2.77-6.14-6.1-7.92-9.92C270.67,325.77,271.56,322.77,273.16,319.54z"/>
								<path style="fill:none;stroke:#AB3A30;stroke-linecap:round;stroke-miterlimit:10;" d="M285.81,338.08
									c-2.41-1.45-4.54-3.37-6.24-5.61"/>
								<path style="fill:none;stroke:#AB3A30;stroke-linecap:round;stroke-miterlimit:10;" d="M282.69,338.44
									c-2.14-1.14-4.01-2.8-5.41-4.79"/>
							</g>
						</g>
						<path style="fill:#FEFFFE;" d="M239.07,268.93c-1.2-3.33-4.9-8.69-4.9-8.69s-5.22,2.09-7.92,8.22c-2.78,6.31-2,25.63-2,25.63
							l20.58,2.25C244.82,296.35,243.65,281.62,239.07,268.93z"/>
					</g>
				</g>
				<g>
					<g>
						<g>
							<polygon style="fill:#923F56;" points="191.82,338.72 178.32,341.37 170.71,305.71 167.82,292.16 177.26,284.3 
								183.42,279.17 184.07,283.76 186.67,302.21 							"/>
							<polygon style="fill:#782E49;" points="186.67,302.21 170.71,305.71 167.82,292.16 177.26,284.3 184.07,283.76 							"/>
						</g>
						<path style="fill:#3A8E99;" d="M166.08,262.25l2.8-10.85c0,0,8.49-0.71,12.59,5.98c4.41,7.2,10.35,38.95,10.35,38.95
							l-22.44,2.22L166.08,262.25z"/>
					</g>
					<g>
						<g>
							<path style="fill:#10173A;" d="M224.51,447.91l-34.93-12.66c0-1.27,0.13-2.43,0.37-3.49c1.57-7.24,7.7-9.88,7.7-9.88
								l15.84,5.09c9.27,7.11,11.28,13.45,11.47,17.24C225.08,446.54,224.51,447.91,224.51,447.91z"/>
							<path style="fill:#424469;" d="M224.51,447.91l-34.93-12.66c0-1.27,0.13-2.43,0.37-3.49l35.01,12.45
								C225.08,446.54,224.51,447.91,224.51,447.91z"/>
						</g>
						<g>
							<g>
								<path style="fill:#10173A;" d="M182.01,447.91l-34.93-12.66c0-1.27,0.13-2.43,0.37-3.49c1.57-7.24,7.7-9.88,7.7-9.88
									l15.84,5.09c9.27,7.11,11.28,13.45,11.47,17.24C182.58,446.54,182.01,447.91,182.01,447.91z"/>
								<path style="fill:#424469;" d="M182.01,447.91l-34.93-12.66c0-1.27,0.13-2.43,0.37-3.49l35.01,12.45
									C182.58,446.54,182.01,447.91,182.01,447.91z"/>
							</g>
							<g>
								<path style="fill:#215175;" d="M170.04,318.14c0,0,47.03,5.78,49.62,12.13c2.59,6.34-5.06,98.68-5.06,98.68l-20.02-5.2
									c0,0-0.68-69.48-4.69-71.78s-31.57-2.92-31.57-2.92l-14.37-23.55L170.04,318.14z"/>
								<g>
									<g>
										<path style="fill:#356D94;" d="M172.23,427.92l-20.31-4.2c0,0,4.01-70.22,2.3-73.44c-0.6-1.12-22.85,1.02-29.59-3.16
											c-5.91-3.67-6.51-14.67-5.9-23.63c0.48-7.01,1.71-12.77,1.71-12.77l16.92-3.19l17.44-3.3l6.13,4.05l14.81,9.78
											c-0.05,0.13-0.1,0.26-0.15,0.38c-3.34,8.36-11.14,10.7-11.14,10.7s17.39,0.26,20.52,7.47
											C187.84,343.23,172.23,427.92,172.23,427.92z"/>
										<path style="fill:#215175;" d="M175.74,318.06c-0.05,0.13-0.1,0.26-0.15,0.38c-7.73,3.27-30.17,11.09-56.86,5.05
											c0.48-7.01,1.71-12.77,1.71-12.77l16.92-3.19c7.75,0.24,16.19,0.51,23.57,0.75L175.74,318.06z"/>
									</g>
									<g>
										<path style="fill:none;stroke:#1B476E;stroke-linecap:round;stroke-miterlimit:10;" d="M122.34,316.63
											c0,0-3.89,20.94,4.13,26.7c8.34,5.98,29.67,2.04,31.49,5.71c1.52,3.07-3.74,70.88-3.74,70.88"/>
										
											<line style="fill:none;stroke:#1B476E;stroke-linecap:round;stroke-miterlimit:10;" x1="152.82" y1="420.24" x2="172.23" y2="424.87"/>
										<path style="fill:none;stroke:#1B476E;stroke-linecap:round;stroke-miterlimit:10;" d="M126.95,318.27
											c0,0,2.77,10.22-5.22,11.52"/>
									</g>
								</g>
							</g>
						</g>
					</g>
					<g>
						<path style="fill:#439EA4;" d="M175.65,305.65c0.09,7.28,1.07,12.91,1.07,12.91c-11.66,3.29-34.3,6.75-58.18-0.13
							c0,0,1.15-16.78,3.41-34.91c2.62-21.08,6.74-43.98,12.29-44.39c10.87-0.81,9.76,9.78,19.53,11.53
							c9.76,1.74,19.58-1.4,24.26,3.45c3.15,3.27-1.62,33.4-2.29,46.37C175.65,302.26,175.62,304,175.65,305.65z"/>
						<path style="fill:#3A8E99;" d="M176.72,318.56c-11.66,3.29-34.3,6.75-58.18-0.13c0,0,1.15-16.78,3.41-34.91
							c6.73,9.91,21.75,23.2,53.7,22.13C175.74,312.93,176.72,318.56,176.72,318.56z"/>
					</g>
					<g>
						<g>
							<path style="fill:#0C1A3A;" d="M133.8,223.63c0.43-0.17,0.96-0.02,1.24,0.34c0.28,0.36,0.29,0.91,0.02,1.28
								c-0.37,0.52-1.21,0.73-1.25,1.37c-0.04,0.5,0.47,0.86,0.93,1.05c0.47,0.19,1.01,0.36,1.22,0.81c0.4,0.84-0.65,1.87-0.21,2.69
								c0.55,1.03,2.61,0.23,3.07,1.31c0.3,0.69-0.44,1.5-0.19,2.21c0.16,0.45,0.68,0.69,1.15,0.68c0.48-0.01,0.92-0.23,1.62-0.19
								c0.34-0.37,1.02-0.1,1.24,0.36c0.22,0.46,0.16,0.99,0.19,1.5c0.03,0.51,0.21,1.08,0.69,1.26c0.69,0.26,1.45-0.5,2.16-0.3
								c0.96,0.27,0.84,1.89,1.75,2.29c0.85,0.38,1.68-0.63,2.6-0.76c1.37-0.2,2.37,1.52,3.75,1.55c1.52,0.04,2.55-1.94,4.06-1.82
								c0.65,0.05,1.2,0.5,1.77,0.81c0.57,0.31,1.36,0.48,1.36-0.13c2.91-3.41,5.82-6.82,8.74-10.24c0.18-0.21,0.38-0.47,0.33-0.75
								c-0.07-0.39-0.55-0.52-0.95-0.57c-10.63-1.44-21.13-3.86-31.32-7.23c-0.68-0.23-1.4-0.46-2.11-0.34
								C134.95,220.93,134.24,221.52,133.8,223.63z"/>
							<g>
								<path style="fill:#923F56;" d="M144.91,245.02c0,0,8.37,12.44,14.33,12.36c6.1-0.09,7.46-5.97,7.46-5.97
									c-0.68-0.68-1.31-1.52-1.83-2.57c-1.25-2.52-1.89-6.29-1.12-12.21l-16-5.42c0.05,2.62,0.06,5.1-0.22,7.35
									C147.12,241.95,147.34,244.24,144.91,245.02z"/>
								<path style="fill:#782E49;" d="M147.54,238.55c3.63,4.59,10.38,11.52,17.34,10.28c-1.25-2.52-1.89-6.29-1.12-12.21l-16-5.42
									C147.81,233.82,147.82,236.3,147.54,238.55z"/>
							</g>
							
								<ellipse transform="matrix(0.9875 -0.1575 0.1575 0.9875 -33.8629 30.5386)" style="fill:#782E49;" cx="175.73" cy="228.903" rx="5.61" ry="4.31"/>
							<g>
								<path style="fill:#923F56;" d="M142.71,218.92v0.05c-0.01,0.33-0.01,0.66,0,0.99c0,0.62,0.02,1.25,0.06,1.9
									c0.74,13.52,10.72,21.6,19.61,22.13c10.12,0.61,14.44-10,14.05-22.19c-0.06-1.93,3.78-21.1-14.96-21.31
									C147.33,200.32,142.84,208.2,142.71,218.92z"/>
								<path style="fill:#782E49;" d="M146.52,225.36c3-2.45,5.12-5.97,6.08-9.9c0.18,0.51,0.9,0.56,1.4,0.35
									c0.5-0.21,0.94-0.58,1.47-0.63c1-0.09,1.77,0.98,2.77,1.07c1.11,0.1,1.97-1.01,3.07-1.21c1.43-0.25,2.67,1.1,4.12,1.22
									c1.38,0.12,2.63-0.9,4.02-0.99c1.04-0.07,2.04,0.4,3.07,0.56s2.31-0.14,2.45-1.12c1.16,3.38,1.88,6.92,2.13,10.48
									c0.39-5.24,0.78-10.49,1.36-15.84c-9.28-0.12-18.56-0.54-27.81-1.25C149.37,213.84,147.48,219.44,146.52,225.36z"/>
							</g>
							<g>
								<path style="fill:#0C1A3A;" d="M182.19,216.3c-0.12,1.03,1.16,1.95,0.81,2.92c-0.31,0.85-1.58,0.91-2.09,1.64
									c-0.56,0.79-0.02,1.87-0.11,2.83c-0.09,0.93-0.79,1.71-1.63,2.14c-0.83,0.43-1.99,1.05-2.88,1.58
									c0.27-4.17,0.11-8.36-0.35-12.51c-0.05-0.69-0.46-1.82-1.27-2.03c0.06,0.57-1.22,1.1-2.15,0.89
									c-0.92-0.21-1.78-0.8-2.72-0.74c-1.14,0.07-2.06,1.07-3.19,1.13c-1.71,0.08-3-1.96-4.7-1.84c-1.46,0.12-2.72,1.82-4.07,1.25
									c-0.58-0.25-0.95-0.88-1.56-1.06c-0.78-0.22-1.52,0.38-2.21,0.81c-0.69,0.42-1.79,0.58-2.13-0.15
									c-1.59,5.31-3.19,10.1-5.66,14.52c-2.16-0.46-4.35-0.73-6.91-1.08c-0.31,0.36-0.92,0.33-1.32,0.05
									c-0.39-0.27-0.63-0.72-0.86-1.14c-0.24-0.41-0.82,0.62-1.01,0.18c-1.31-3.04-1.86-1.25-2.46-1.92
									c-0.4-0.45-0.31-1.13-0.16-1.71c0.16-0.58,0.36-1.21,0.13-1.76c-0.35-0.82-1.49-1.02-1.99-1.77
									c-0.39-0.6-0.22-1.53,0.02-1.96c0.52-0.69,0.16-1.67-0.29-2.41c-0.46-0.74-1.02-1.53-0.85-2.38
									c0.19-0.94,1.24-1.6,1.24-2.56c0.01-1.17-1.56-1.94-1.46-3.11c0.1-1.27,1.93-1.61,2.49-2.73c0.59-1.21-0.49-2.67-0.14-3.97
									c0.31-1.11,1.49-1.76,2.59-2.12c3.05-0.99,1.99-2.98,2.99-3.56c1.68-0.98,2.84,0.92,4.46-2.25c0.4-0.76,1.39-1.12,2.24-1.12
									c0.75,0.01,1.45,0.49,2.2,0.44c1.53-0.11,2.27-2.28,3.8-2.37c0.77-0.04,1.46,0.49,2.24,0.58c0.97,0.11,1.82-0.47,2.66-1.06
									c0.92-0.64,1.83-1.28,2.87-1.05c1.12,0.25,1.82,1.46,2.93,1.7c1.05,0.22,2.03-0.5,2.94-1.08c0.91-0.58,2.14-1.05,2.99-0.41
									c0.75,0.56,0.87,1.72,1.67,2.17c1.16,0.67,2.83-0.66,3.91,0.15c0.97,0.72,0.45,2.45,1.33,3.28
									c0.53,0.49,2.33-0.41,3.77,1.22c1.59,1.8-0.53,3.3-0.2,4.48c0.45,1.61,3.19,1.95,3.2,3.62c0,0.92-0.91,1.66-0.89,2.58
									c0.05,1.73,3.17,2.34,2.83,4.03c-0.19,0.96-1.47,1.46-1.49,2.43c-0.02,1.15,1.73,1.73,1.71,2.88
									c-0.01,0.47-0.32,0.83-0.63,1.21C182.54,215.5,182.24,215.86,182.19,216.3z"/>
								<path style="fill:#243A57;" d="M183.47,213.94c-0.01,0.47-0.32,0.83-0.63,1.21c-0.27-0.64-0.73-1.19-1.33-1.53
									c-0.76-0.45-1.81-0.71-2.03-1.57c-0.37-1.41,2.04-2.52,1.54-3.89c-0.52-1.45-3.27-0.56-3.94-1.94
									c-0.35-0.71,0.12-1.53,0.5-2.22c0.37-0.7,0.59-1.7-0.05-2.16c-0.59-0.41-1.44-0.04-2.07-0.36c-0.95-0.5-0.57-1.95,0-2.86
									c0.57-0.91,1.17-2.19,0.4-2.93c-0.58-0.55-1.5-0.34-2.28-0.18c-0.78,0.15-1.81,0.09-2.09-0.66
									c-0.27-0.73,0.41-1.56,0.13-2.28c-0.27-0.67-1.19-0.76-1.9-0.65c-0.72,0.12-1.53,0.32-2.12-0.11
									c-0.6-0.43-0.67-1.29-1.18-1.82c-0.64-0.67-1.74-0.59-2.6-0.27c-0.87,0.32-1.71,0.82-2.63,0.83
									c-0.98,0.01-1.89-0.53-2.69-1.11s-1.58-1.23-2.52-1.49c-0.02,0-0.04-0.01-0.06-0.01c0.92-0.64,1.83-1.28,2.87-1.05
									c1.12,0.25,1.82,1.46,2.93,1.7c1.05,0.22,2.03-0.5,2.94-1.08s2.14-1.05,2.99-0.41c0.75,0.56,0.87,1.72,1.67,2.17
									c1.16,0.67,2.83-0.66,3.91,0.15c0.97,0.72,0.45,2.45,1.33,3.28c0.53,0.49,2.33-0.41,3.77,1.22c1.59,1.8-0.53,3.3-0.2,4.48
									c0.45,1.61,3.19,1.95,3.2,3.62c0,0.92-0.91,1.66-0.89,2.58c0.05,1.73,3.17,2.34,2.83,4.03c-0.19,0.96-1.47,1.46-1.49,2.43
									C181.74,212.21,183.49,212.79,183.47,213.94z"/>
							</g>
							<path style="fill:#923F56;" d="M137.741,224.307c0.828-2.232,3.854-3.167,6.759-2.09c2.905,1.078,4.589,3.76,3.761,5.992
								c-0.828,2.232-3.854,3.167-6.759,2.09C138.597,229.221,136.913,226.539,137.741,224.307z"/>
						</g>
						<g>
							<path style="fill:none;stroke:#0C1A3A;stroke-linecap:round;stroke-miterlimit:10;" d="M153.68,221.86
								c1.92-1.66,5.05-2.13,7.5-1.13"/>
							<path style="fill:none;stroke:#0C1A3A;stroke-linecap:round;stroke-miterlimit:10;" d="M170.26,221.04
								c1.8-1.35,4.41-1.49,6.34-0.35"/>
							<path style="fill:none;stroke:#571B38;stroke-linecap:round;stroke-miterlimit:10;" d="M168.64,226.78
								c0.48,1.99,0.49,4.09,0.02,6.08"/>
							<ellipse style="fill:#0C1A3A;" cx="160.06" cy="226.78" rx="1.12" ry="1.38"/>
							<ellipse style="fill:#0C1A3A;" cx="173.43" cy="226.28" rx="1.12" ry="1.38"/>
							<g>
								<path style="fill:#571B38;" d="M168,235.97c-0.07,0.36-0.17,0.7-0.28,1.02c-0.39,1.09-0.99,1.97-1.74,2.56
									c-0.38,0.3-0.8,0.52-1.25,0.66c-1.57,0.48-3.39-0.18-4.39-1.58c-0.72-1.02-0.99-2.37-0.77-3.63
									c0.02-0.17,0.06-0.34,0.12-0.51c0.08-0.31,0.2-0.6,0.35-0.88C162.6,234.8,166.05,235.58,168,235.97z"/>
								<path style="fill:#FFFFFF;" d="M168,235.97c-0.07,0.36-0.17,0.7-0.28,1.02c-0.17,0.1-0.32,0.15-0.46,0.15
									c-0.56-0.02-5.41-1.47-7.57-2.65c0.08-0.31,0.2-0.6,0.35-0.88C162.6,234.8,166.05,235.58,168,235.97z"/>
								<path style="fill:#AD5E8F;" d="M165.98,239.55c-0.38,0.3-0.8,0.52-1.25,0.66c-1.57,0.48-3.39-0.18-4.39-1.58
									c-0.72-1.02-0.99-2.37-0.77-3.63C161.11,235.34,164.04,236.39,165.98,239.55z"/>
							</g>
						</g>
					</g>
					<g>
						<g>
							<g>
								<g>
									<path style="fill:#923F56;" d="M138.5,236.77l-19.96,10.65c0,0-2.02-7.19-4.15-15.55c-2.12-8.3-4.33-17.76-4.8-22.49
										c-0.92-9.33,4.23-56.87,4.23-56.87l12.63-0.21c0,0-0.01,44.53,0.62,49.54c0.35,2.76,3.76,13.04,6.77,21.74
										C136.31,230.7,138.5,236.77,138.5,236.77z"/>
									<path style="fill:#782E49;" d="M138.5,236.77l-19.96,10.65c0,0-2.02-7.19-4.15-15.55l19.45-8.29
										C136.31,230.7,138.5,236.77,138.5,236.77z"/>
								</g>
								<g>
									<path style="fill:#923F56;" d="M124.54,157.96c4.01-3.4,6.51-5.56,10.52-8.96c1.21-1.03,2.47-2.12,3.09-3.58
										c0.29-0.68,0.4-1.54-0.1-2.08c-0.76-0.82-2.11-0.23-3.04,0.4c-2.33,1.58-3.15,1.92-5.77,3.13
										c0.17-6.47,0.34-12.97-0.41-19.39c-0.08-0.67-0.21-1.42-0.77-1.79c-0.69-0.46-1.68-0.07-2.14,0.62
										c-0.46,0.69-0.54,1.55-0.59,2.37c-0.23,3.76-0.3,7.53-0.61,11.33c-1.55-4.3-3.24-8.54-5.07-12.72
										c-0.48-1.09-1.36-2.39-2.52-2.1c-0.65,0.16-1.08,0.82-1.18,1.49c-0.1,0.66,0.06,1.34,0.22,1.99
										c0.93,3.75,1.85,7.5,2.78,11.26c-1.67-3.27-3.58-6.43-5.69-9.44c-0.59-0.84-1.48-1.78-2.47-1.49
										c-0.65,0.19-1.04,0.89-1.09,1.56c-0.05,0.67,0.17,1.33,0.39,1.97c1.18,3.48,2.37,6.96,3.55,10.44
										c-1.48-2.34-3.17-4.55-5.04-6.59c-0.77-0.85-2.12-1.69-2.93-0.88c-0.57,0.57-0.36,1.52-0.09,2.28
										c1.23,3.41,2.92,6.67,5.23,10.07c0.12,3.68,1.41,7.3,4.07,10.68C118.02,158.19,121.16,157.87,124.54,157.96z"/>
									<path style="fill:none;stroke:#782E49;stroke-linecap:round;stroke-miterlimit:10;" d="M127.73,147.88
										c-3.05-0.13-6.13,1.01-8.35,3.1"/>
								</g>
							</g>
							<polygon style="fill:#439EA4;" points="146.52,250.56 136.12,225.09 112.21,239.93 123.95,276.35 							"/>
						</g>
						<g>
							<path style="fill:none;stroke:#3A8E99;stroke-linecap:round;stroke-miterlimit:10;" d="M142.68,253.8
								c-3.16,11.28-8.63,17.37-17.2,21.01"/>
							<path style="fill:none;stroke:#3A8E99;stroke-linecap:round;stroke-miterlimit:10;" d="M130.35,274.81
								c4.51-1.56,8.71-3.97,12.33-7.08"/>
						</g>
					</g>
				</g>
			</g>
			<g>
				<path style="fill:#FDAB90;" d="M528.47,298.27l-0.16,0.03v-0.02C528.37,298.28,528.42,298.27,528.47,298.27z"/>
				<path style="fill:#FDAB90;" d="M529.89,297.98c-0.28,0.15-0.77,0.25-1.41,0.29L529.89,297.98z"/>
				<g>
					<g>
						<path style="fill:#FDAB90;" d="M480.77,275.02l-0.12,11.34l-11.54-3.96l-1.34-0.46c0,0-6.13,1.69-8.35,2.35
							c-1.37,0.41-8.91,3.37-8.87,1.96c0.08-2.48,6.12-5.05,6.8-5.34c-0.92,0.24-11.02,2.8-10.28,0.72c0.78-2.18,9.63-4.4,9.63-4.4
							s-10.94,0.78-10.38-1.16c0.69-2.46,10.12-2.75,10.12-2.75s-8.89-0.59-7.35-2.23c1.53-1.65,14.31-1.03,14.31-1.03
							s-4.11-10.35-0.7-7.58c1.71,1.39,4.26,5.75,5.4,9.32c0.02,0.09,1.91,0.59,4.22,1.17
							C476.01,273.87,480.77,275.02,480.77,275.02z"/>
						<path style="fill:#ED8874;" d="M480.77,275.02l-0.12,11.34l-11.54-3.96l3.21-9.45C476.01,273.87,480.77,275.02,480.77,275.02z
							"/>
					</g>
					<g>
						<path style="fill:#4DB0B0;" d="M503.92,239.89l-2.84-6.36c0,0-5.99,0.22-9,7.6c-3.41,8.37-6.39,32.03-7.72,32.27
							c-1.33,0.24-8.24-1.07-8.24-1.07l-2.04,15.89c0,0,20.06,10.46,24.18,5.98C502.38,289.72,503.92,239.89,503.92,239.89z"/>
						<polygon style="fill:#ADE0DD;" points="480.77,272.45 480.22,294.48 471.74,291.61 474.09,270.63 						"/>
					</g>
				</g>
				<g>
					<g>
						<g>
							<polygon style="fill:#ED8874;" points="495.11,403.46 535.67,438.57 544.81,426.4 514.93,392.14 							"/>
							<g>
								<path style="fill:#ED8874;" d="M557.12,434.07l-3.62,4.89l-6.72-0.19l1.13,6.89c0,0-11.83,18.29-14.56,17.98
									c-1.14-0.12-1.28-4.78-1.04-10.2c0.33-7.63,1.39-16.76,1.39-16.76l7.23-11.64c1.61,0.26,3.39,0.92,5.16,1.78
									C551.64,429.5,557.12,434.07,557.12,434.07z"/>
								<path style="fill:#0C1B39;" d="M557.12,434.07l-3.62,4.89l-6.72-0.19l1.13,6.89c0,0-11.83,18.29-14.56,17.98
									c-1.14-0.12-1.28-4.78-1.04-10.2c5.23-4.91,11.15-19.57,13.79-26.62C551.64,429.5,557.12,434.07,557.12,434.07z"/>
							</g>
						</g>
						<path style="fill:#215175;" d="M497.17,279.01c0,0-19.47,92.48-16.68,113.12c1.98,14.65,33.5,35.76,33.5,35.76l13.91-19.38
							l0.95-99.62L497.17,279.01z"/>
						<polygon style="fill:#9ECFDB;" points="534.18,409.2 542.79,416.78 527.91,431.18 518.4,422.28 531.49,410.41 						"/>
					</g>
					<g>
						<g>
							<g>
								<path style="fill:#FDAB90;" d="M527.3,465.74l-6.15,0.29l-4.06-5.27l-4.76,5.18c0,0-21.92,2.38-23.39,0.1
									c-0.61-0.95,2.99-3.97,7.44-7.18c6.26-4.52,14.17-9.42,14.17-9.42l13.77-1.74c0.8,1.4,1.39,3.18,1.82,5.07
									C527.5,458.69,527.3,465.74,527.3,465.74z"/>
								<path style="fill:#1E314D;" d="M527.3,465.74l-6.15,0.29l-4.06-5.27l-4.76,5.18c0,0-21.92,2.38-23.39,0.1
									c-0.61-0.95,2.99-3.97,7.44-7.18c7.17,0.94,22.51-3.7,29.76-6.1C527.5,458.69,527.3,465.74,527.3,465.74z"/>
							</g>
							<g>
								<polygon style="fill:#FDAB90;" points="534.17,407.16 531.26,422.41 527.14,443.93 525.75,451.18 525.68,451.51 
									510.3,452.13 510.42,449.53 510.42,449.52 510.78,441.7 511.78,420.43 512.78,399.07 								"/>
								<polygon style="fill:#ED8874;" points="531.26,422.41 527.14,443.93 510.78,441.7 511.78,420.43 								"/>
							</g>
						</g>
						<g>
							<path style="fill:#2C698E;" d="M538.71,282.6c0,0,14.57,22.11,11.71,50.62c-2.86,28.51-17.53,102.12-17.53,102.12l-29-1.08
								l7.64-110.83c0,0-19.05-25.86-16.1-43.07l22.28-13.4L538.71,282.6z"/>
							<g>
								<path style="fill:none;stroke:#1B476E;stroke-linecap:round;stroke-miterlimit:10;" d="M535.77,288.1
									c6.28,9.55,9.07,20.32,9.83,31.75c0.94,14.07-1.32,28.14-3.57,42.07c-3.68,22.78-9.1,51.28-12.78,74.06"/>
								<path style="fill:none;stroke:#1B476E;stroke-linecap:round;stroke-miterlimit:10;" d="M540.26,297.34
									c0,0-5.16,5.77-13.73-8.05"/>
								<path style="fill:none;stroke:#1B476E;stroke-linecap:round;stroke-miterlimit:10;" d="M540.26,286.54
									c0,0-17.47,4.46-33.07,3.82c-7.09-0.29-11.37-3.12-11.37-3.12"/>
								<path style="fill:none;stroke:#1B476E;stroke-linecap:round;stroke-miterlimit:10;" d="M504.91,290.31
									c-1.47,18.19,3.09,24.05,5.39,26.98"/>
								<path style="fill:none;stroke:#1B476E;stroke-linecap:round;stroke-miterlimit:10;" d="M510.44,290.42
									c0,0,2.6,16.89-4.22,17.5"/>
							</g>
							<polygon style="fill:#9ECFDB;" points="501.96,431.88 501.15,439.9 533.87,440.8 535.66,431.18 							"/>
						</g>
					</g>
				</g>
				<path style="fill:#439EA4;" d="M495.65,236.29c3.1-3.82,15.96-4.69,23.12-4.97c9.18-0.37,25.6,4.31,26.84,10.83
					c2.21,11.6-6.89,40.56-6.89,40.56c-24.87,4.23-38.68,4.04-43.65,0.27C495.07,282.98,487.37,246.49,495.65,236.29z"/>
				<g>
					<g>
						<polygon style="fill:#E8D1AC;" points="509.31,257.24 534.58,257.53 533.95,274.12 						"/>
						<polygon style="fill:#FFF3D0;" points="509.33,301.15 509.33,257.26 535.07,258.47 535.07,302.76 						"/>
						<polygon style="fill:#E8D1AC;" points="514.36,261.22 529.7,261.91 529.84,266.44 514.56,265.68 						"/>
					</g>
					<g>
						<path style="fill:#FDAB90;" d="M549.11,293.99l-9.25,1.92l-9.03,1.87l-0.94,0.19l-1.41,0.29c-0.05,0-0.11,0.01-0.16,0.01
							c-4.66,0.24-16.52-1.8-18.25-2.85c-2.03-1.24-1.35-3.46-1.35-3.46c-1.75-2.09-0.25-3.47-0.25-3.47
							c-1.91-2.05-0.26-3.4-0.26-3.4s-1.73-0.79-1.6-2.86c0.12-2.09,8.07-0.85,8.07-0.85s-3.33-1.44-2.74-3.12
							c0.13-0.39,5.15-0.09,9.51,1.81c1.75,0.75,4.37,4.09,5.9,6.17l2.86-0.74l5.87-1.51l7.57-1.96L549.11,293.99z"/>
						<polygon style="fill:#ED8874;" points="539.86,295.91 530.83,297.78 530.2,285.49 536.07,283.99 						"/>
					</g>
					<g>
						<path style="fill:#4DB0B0;" d="M535.01,254.78c-2.88-11.64,3.91-19.17,9.3-15.23s20.46,42.54,18.86,50.08
							c-1.6,7.54-26.65,10.31-26.65,10.31l-2.43-17.09c0,0,5.84-1.6,6.45-3.01C541.15,278.43,537.56,265.11,535.01,254.78z"/>
						<polygon style="fill:#ADE0DD;" points="530.86,283.38 534.91,301.83 544,301.01 537.92,280.64 						"/>
					</g>
				</g>
				<g>
					<g>
						<g>
							<path style="fill:#0C1B39;" d="M511.39,185.03l-9.32,4.22l-4.04,8.67c0,0,0.28,8.91-1.49,12.16
								c-1.77,3.25-5.89,6.64-4.99,11.11c1.15,5.7,8.53,11.88,31.36,10.1c11.16-0.87,25.84-8.43,24.22-15.81
								c-0.84-3.85-9.64-2.79-9.64-18.14"/>
							<g>
								<path style="fill:#FDAB90;" d="M529.25,233.07c0,0-9.33,8.62-13.79,8.03c-4.45-0.57-7.19-8.3-7.19-8.3s1.59-0.17,2.44-2.85
									c0.5-1.54,0.76-3.91,0.34-7.55c-0.02-0.19,14.22-7.44,13.88-3.91c-0.22,2.28-0.21,4.22-0.04,5.87
									C525.6,231.53,529.25,233.07,529.25,233.07z"/>
								<path style="fill:#ED8874;" d="M524.89,224.35c-4.18,2.93-9.09,4.87-14.17,5.59c0.5-1.54,0.76-3.91,0.34-7.55
									c-0.02-0.19,14.22-7.44,13.88-3.91C524.72,220.77,524.73,222.71,524.89,224.35z"/>
							</g>
							<g>
								<path style="fill:#FDAB90;" d="M498.95,203.59c1.29-12.13,5.94-19.89,16.22-20.38c15.38-0.72,18.77,10.35,17.38,22.46
									c-1.55,13.45-12,21.22-20.91,20.91C501.65,226.25,497.65,215.71,498.95,203.59z"/>
								<path style="fill:#ED8874;" d="M529.32,205.35c-4.59,1.49-9.74,1.23-14.14-0.73c-4.4-1.96-8.01-5.59-9.65-10.06
									c-2.89,2.06-5.5,4.56-7.2,7.59c0.13-4.5,1.22-8.76,2.88-12.9c9.16-1.35,18.52-1.38,28.01-0.36
									C529.59,193.64,529.95,198.38,529.32,205.35z"/>
							</g>
							<g>
								<path style="fill:#0C1B39;" d="M537.93,209.79c-1.25,1.17-2.5,2.35-3.76,3.52c0.52,0.16-1.19,0.48-1.19,0.48
									c-1.19-2.46-2.39-4.91-3.58-7.37c-10.54,0.5-20.2-5.79-23.64-14.68c-2.59,1.65-4.79,4.89-7.77,11.93
									c-0.9-1.91-1.52-3.73-1.9-5.45c-2.28-10.4,4.52-17.31,14.93-18.66c6.05-0.79,11.93-0.39,16.61,1.69
									c2.63,1.16,4.89,2.85,6.6,5.16C538.58,192.32,539.67,200.05,537.93,209.79z"/>
								<path style="fill:#243A57;" d="M527.62,181.26c-2.2-0.42-14.36-2.05-22.3,3.13c-8.93,5.82-9.21,13.39-9.23,13.84
									c-2.28-10.4,4.52-17.31,14.93-18.66C517.07,178.79,522.94,179.18,527.62,181.26z"/>
							</g>
							<path style="fill:#FDAB90;" d="M531.191,206.56c3-0.775,5.914,0.465,6.51,2.769c0.595,2.305-1.353,4.801-4.353,5.577
								c-3,0.775-5.914-0.465-6.51-2.769C526.242,209.831,528.191,207.335,531.191,206.56z"/>
						</g>
						<path style="fill:#ADE0DD;" d="M514.58,240.88c5.26-2.61,10.71-4.94,12.99-9.59l6.57,2.26
							C533.64,247.69,525.05,246.47,514.58,240.88z"/>
						<path style="fill:#ADE0DD;" d="M514.58,240.88c-4.33-2.9-5.44-6.03-4.97-9.28l-7.28,1.37
							C498.59,243.93,501.97,245.73,514.58,240.88z"/>
					</g>
					<g>
						<path style="fill:none;stroke:#101840;stroke-linecap:round;stroke-miterlimit:10;" d="M518.99,206.56
							c-1.66-1.5-4.13-1.72-5.92-0.53"/>
						<path style="fill:none;stroke:#101840;stroke-linecap:round;stroke-miterlimit:10;" d="M503.71,206.48
							c-1.55-1.2-3.61-1.13-5.01,0.17"/>
						<path style="fill:none;stroke:#BF4D49;stroke-linecap:round;stroke-miterlimit:10;" d="M506.41,212
							c-0.34,1.43-0.19,2.89,0.41,4.23"/>
						<path style="fill:#0C1A3A;" d="M514.449,209.994c0.516-0.053,0.988,0.411,1.052,1.037c0.065,0.626-0.301,1.177-0.818,1.231
							c-0.516,0.053-0.987-0.411-1.052-1.037C513.567,210.599,513.933,210.048,514.449,209.994z"/>
						<path style="fill:#0C1A3A;" d="M502.169,210.806c0.516-0.053,0.988,0.411,1.052,1.037c0.065,0.626-0.301,1.177-0.818,1.231
							c-0.516,0.053-0.988-0.411-1.052-1.037C501.287,211.41,501.653,210.859,502.169,210.806z"/>
						<path style="fill:none;stroke:#BF4D49;stroke-linecap:round;stroke-miterlimit:10;" d="M508.16,219.7
							c2.24,0.16,4.53-0.72,6.09-2.34"/>
					</g>
				</g>
			</g>
		</g>
	</g>
</g>
</svg>
