<?xml version="1.0" encoding="utf-8"?>
<!-- Generator: Adobe Illustrator 27.5.0, SVG Export Plug-In . SVG Version: 6.00 Build 0)  -->
<svg version="1.1" xmlns="http://www.w3.org/2000/svg" xmlns:xlink="http://www.w3.org/1999/xlink" x="0px" y="0px"
	 viewBox="0 0 8000 8000" style="enable-background:new 0 0 8000 8000;" xml:space="preserve">
<g id="_x30_7">
	<g>
		<g>
			<g>
				<g>
					<linearGradient id="SVGID_1_" gradientUnits="userSpaceOnUse" x1="5561.3613" y1="5614.1465" x2="6982.3335" y2="5614.1465">
						<stop  offset="0.324" style="stop-color:#D9DCEF"/>
						<stop  offset="0.8267" style="stop-color:#EEF1F8"/>
					</linearGradient>
					<path style="opacity:0.8;fill:url(#SVGID_1_);" d="M5649.152,6340.872c-24.784-46.74-42.244-94.582-57.165-143.378
						c-13.073-48.511-20.435-97.532-27.195-147.615c-4.527-49.565-3.753-99.173-2.301-149.479
						c3.375-49.744,11.815-98.993,20.817-148.688c42.025-196.736,144.506-383.292,287.847-530.349
						c142.905-147.506,325.957-255.019,520.557-303.583c49.232-10.605,97.543-22.162,147.555-25.693
						c24.895-2.065,49.899-3.169,74.683-3.966c24.911-0.369,49.252-1.839,74.475,1.065c50.223,5.01,99.27,9.924,148.357,21.818
						c49.284,12.995,97.777,28.602,145.552,51.611c-36.06,41.309-71.401,75.216-105.952,106.511l-50.065,48.45
						c-16.382,15.789-32.874,29.98-48.823,44.854c-32.079,29.078-61.876,59.722-92.381,85.875
						c-15.394,12.886-29.523,27.493-43.752,41.377c-14.428,13.442-28.514,27.018-42.912,39.48
						c-112.102,105.2-211.385,200.997-307.907,299.605c-96.813,98.401-189.539,200.335-290.837,315.437
						c-23.675,29.622-50.657,58.656-77.705,89.079c-25.057,31.284-53.363,62.513-82.286,95.154
						c-27.278,33.222-56.835,67.15-89.05,102.235C5720.961,6266.402,5688.718,6303.085,5649.152,6340.872z"/>
					
						<linearGradient id="SVGID_00000063605445165365005270000012643460908115878541_" gradientUnits="userSpaceOnUse" x1="6062.1777" y1="3906.4998" x2="5444.9014" y2="5781.1909">
						<stop  offset="0.324" style="stop-color:#D9DCEF"/>
						<stop  offset="0.8267" style="stop-color:#EEF1F8"/>
					</linearGradient>
					<path style="opacity:0.7;fill:url(#SVGID_00000063605445165365005270000012643460908115878541_);" d="M5648.527,6340.872
						c-45.234-46.729-81.054-97.201-113.474-148.518c-32.267-51.432-61.172-104.217-85.961-158.015
						c-49.747-107.618-87.101-219.071-112.455-332.935c-51.212-227.604-57.699-465.551-15.664-702.807
						c20.363-118.437,55.152-236.706,104.243-350.945c48.918-114.038,112.167-224.832,194.864-323.344
						c10.26-12.302,19.535-24.897,30.724-36.63l33.446-35.013c23.017-22.708,44.398-45.762,70.289-66.021
						c24.911-20.753,49.634-40.967,75.755-59.602c27.103-18.036,54.469-35.111,81.815-51.292
						c27.46-16.074,57.798-28.966,86.825-41.684c14.908-5.993,29.004-12.534,44.201-17.633c15.134-5.184,30.806-9.443,46.186-13.664
						c60.064-18.713,124.979-25.714,188.465-25.277c-24.803,61.749-51.191,112.063-71.357,165.336
						c-5.315,12.929-10.339,25.822-15.901,37.791c-5.304,12.266-9.311,25.74-13.823,38.305
						c-8.447,25.779-18.739,48.453-26.161,73.286c-33.034,95.899-55.304,188.78-77.357,278.259
						c-21.595,89.643-39.479,179.149-56.706,269.534c-17.42,90.177-34.602,181.165-51.009,274.585
						c-16.658,93.195-34.291,187.839-52.921,284.73c-18.37,96.941-38.485,195.711-62.156,296.853
						c-23.246,101.151-50.233,204.624-81.998,311.279c-16.222,53.378-33.526,107.505-53.129,162.833
						C5695.89,6225.683,5674.998,6281.731,5648.527,6340.872z"/>
					
						<linearGradient id="SVGID_00000060010682098429523880000014399200941212331662_" gradientUnits="userSpaceOnUse" x1="4315.9702" y1="5638.8164" x2="5681.5591" y2="5638.8164">
						<stop  offset="0.324" style="stop-color:#D9DCEF"/>
						<stop  offset="0.8267" style="stop-color:#EEF1F8"/>
					</linearGradient>
					<path style="opacity:0.8;fill:url(#SVGID_00000060010682098429523880000014399200941212331662_);" d="M5649.152,6340.872
						c-45.634-27.113-84.025-55.078-119.878-82.863c-38.235-26.758-72.424-53.935-105.22-80.739
						c-34.536-25.975-66.335-52.228-96.362-78.625c-32.006-25.333-61.775-51.061-89.873-77.185
						c-116.301-102.078-219.746-202.706-320.719-306.397c-100.756-103.88-197.809-210.588-296.036-330.034
						c-25.215-28.865-49.852-59.58-74.11-92.38c-25.374-30.878-50.509-63.581-75.301-98.976
						c-25.633-33.764-51.625-68.883-77.041-108.086c-26.53-36.841-53.136-76.275-78.641-122.974
						c49.919-13.944,98.738-20.626,147.633-24.713c48.119-2.403,95.657-0.712,143.556,2.332
						c46.664,5.295,92.989,13.274,139.066,23.094c44.95,11.607,89.532,25.283,133.517,40.836
						c173.902,65.385,329.661,171.842,457.61,304.391c127.724,132.748,228.922,291.876,288.307,467.921
						c13.994,44.515,26.292,89.442,36.367,134.755c8.273,46.367,14.759,92.888,18.516,139.681
						c1.544,47.912,1.702,95.448-2.197,143.407C5672.72,6243.003,5664.558,6291.512,5649.152,6340.872z"/>
				</g>
				<g>
					<g>
						<path style="fill:none;stroke:#FFFFFF;stroke-width:6.719;stroke-miterlimit:10;" d="M5657.508,6337.069
							c-0.067-4.48-0.102-8.959-0.104-13.436"/>
						<path style="fill:none;stroke:#FFFFFF;stroke-width:6.719;stroke-miterlimit:10;stroke-dasharray:27.3274,27.3274;" d="
							M5657.785,6296.309c7.347-258.86,120.341-509.336,286.268-709.055c168.85-203.237,389.525-357.831,623.387-481.278"/>
						<path style="fill:none;stroke:#FFFFFF;stroke-width:6.719;stroke-miterlimit:10;" d="M6579.541,5099.623
							c3.972-2.075,7.948-4.141,11.928-6.198"/>
					</g>
				</g>
				<path style="fill:none;stroke:#FFFFFF;stroke-width:6.719;stroke-miterlimit:10;stroke-dasharray:26.876;" d="
					M5579.969,5707.403c9.472-499.242,137.805-995.834,371.401-1437.157"/>
				<path style="fill:none;stroke:#FFFFFF;stroke-width:6.719;stroke-miterlimit:10;stroke-dasharray:26.876;" d="
					M4796.684,5187.964c381.006,297.542,677.38,702.263,846.027,1155.313"/>
			</g>
			<g>
				<g>
					<path style="opacity:0.5;fill:#EBEBFA;" d="M6437.327,5266.735c-101.502,159.073-227.263,301.37-369.923,425.443
						c-180.557,157.504-387.787,286.043-606.845,383.201c-4.586,2.172-9.173,4.103-13.758,6.155
						c-431.117,188.281-905.482,245.406-1375.583,261.337c-293.283,10.018-588.336,14.688-877.277-33.952
						c-185.383-31.019-367.751-76.882-544.687-140.97c-175.488-63.485-345.546-146.038-503.049-247.058
						c-19.069-12.069-38.019-24.622-56.727-37.416c-3.138-216.885-70.725-441.616-172.349-634.363
						c-17.743-33.552-36.329-66.623-55.519-99.209c-134.694-227.869-304.027-434.737-453.566-653.674
						c-0.723-0.965-1.447-2.051-2.051-3.138c-59.14-86.658-115.142-175.246-164.625-267.697
						c-36.088-67.588-68.554-137.228-96.917-208.557c-160.643-403.115-194.678-858.128-64.691-1271.14
						c153.039-485.911,543.481-900.491,1032.651-1042.909c489.289-142.418,1062.22,11.345,1384.832,405.65
						c19.913,24.379,38.984,49.484,57.208,75.071c22.689,31.381,44.293,63.485,65.656,95.71
						c69.882,105.486,137.107,212.782,224.851,303.422c87.142,89.917,193.712,160.401,309.82,207.23
						c118.159,47.916,246.212,71.33,373.665,66.26c13.036-0.482,25.95-1.327,38.984-2.534
						c208.92-16.897,409.631-100.055,614.449-144.108c81.708-17.621,164.143-28.846,248.023-27.277
						c308.009,6.034,589.466,217.489,717.882,494.359c54.916,118.521,81.83,248.99,70.848,380.424
						c-1.087,12.19-2.294,24.501-3.863,36.691c-17.983,141.573-69.761,281.697-118.882,420.253
						c-77.365,217.971-148.091,432.202-70.968,642.449c51.898,141.211,162.573,248.99,259.249,365.7
						c24.259,29.208,47.552,58.898,68.794,89.917C6386.395,5160.525,6414.517,5212.543,6437.327,5266.735z"/>
					<path style="opacity:0.5;fill:#DEDEF9;" d="M6555.244,4667.011c-12.672,25.466-26.793,50.087-42.363,73.985
						c-64.569,100.778-149.9,189.368-228.713,281.094c-81.709,94.745-156.539,192.868-194.315,311.026
						c-37.173,115.745-34.397,237.042-22.449,359.062c-180.557,157.504-387.787,286.043-606.845,383.201
						c-4.586,2.172-9.173,4.103-13.758,6.155c-431.117,188.281-903.451,245.406-1373.552,261.337
						c-293.283,10.018-590.367,14.688-879.307-33.952c-185.383-31.019-367.751-76.882-544.687-140.97
						c-175.488-63.485-345.546-146.038-503.049-247.058c-19.069-12.069-38.019-24.622-56.727-37.416
						c-225.212-153.4-422.305-345.665-569.912-574.378c-124.675-193.23-209.884-403.236-268.301-623.018
						c45.502-68.916,97.4-133.729,154.729-192.989c0.242-0.241,0.362-0.362,0.483-0.483
						c57.69-59.622,121.054-113.692,189.246-161.005c114.9-79.657,242.834-141.452,345.905-235.834
						c254.664-233.179,305.837-607.689,440.409-925.595c165.713-391.407,491.222-724.762,898.682-845.334
						c109.589-32.467,224.61-47.553,339.389-45.622c24.26,0.241,48.64,1.448,72.899,3.259
						c286.767,22.328,564.119,149.78,742.142,374.27c48.881,61.553,90.399,129.503,132.279,196.85
						c65.777,105.968,132.4,210.729,229.679,287.249c142.66,112.244,323.82,144.349,507.636,166.556
						c76.88,9.173,154.245,16.777,229.317,27.759c79.295,11.587,158.469,28.122,236.075,50.088
						c159.437,45.139,312.112,113.331,444.633,208.437c66.14,47.553,127.332,101.744,181.764,163.297
						C6613.177,4001.75,6700.801,4374.451,6555.244,4667.011z"/>
					<path style="fill:none;stroke:#FFFFFF;stroke-width:13.438;stroke-miterlimit:10;" d="M5460.559,6075.378
						c-102.468-1.207-204.816-14.483-303.422-39.104c-241.507-60.347-461.771-180.919-657.777-334.562
						c-94.141-73.623-182.729-154.97-265.404-240.903c-11.587-11.949-22.932-24.018-34.277-36.208
						c-405.891-436.426-689.761-1050.15-524.291-1619.822c34.277-117.917,92.813-234.627,174.281-326.716
						c70.485-80.14,158.349-141.694,262.387-169.695c242.834-65.295,498.462,71.33,671.657,251.766
						c422.305,440.288,488.807,1166.619,170.539,1685.358c-113.572,185.143-271.438,339.51-454.892,456.22
						c-206.626,131.556-445.599,215.196-690.485,241.266c-147.125,15.569-296.302,10.38-441.737-17.742
						c-602.621-116.71-1107.359-608.897-1254.484-1197.879c-89.796-359.545-50.087-758.194,151.953-1070.065
						c201.92-311.871,576.31-520.308,949.251-484.462c240.541,23.173,457.427,140.969,635.811,305.233
						c104.762,96.313,196.368,208.678,271.68,327.44c311.509,490.979,386.339,1149.481,112.607,1655.306
						c-20.759,38.501-43.691,76.037-68.554,112.607c-97.641,143.383-219.782,264.076-356.528,369.562
						c-186.35,143.866-399.735,259.49-614.931,365.941"/>
					<path style="fill:none;stroke:#FFFFFF;stroke-width:13.438;stroke-miterlimit:10;" d="M2146.206,5920.891
						c7.242-45.743,9.293-92.209,6.156-137.71c-15.208-217.127-127.935-416.15-258.766-591.155
						c-10.5-14.121-21.242-28.122-31.984-42.122c-123.107-159.073-260.094-308.371-363.89-480.238
						c-33.794-55.881-63.726-113.813-89.675-173.436c-0.604-1.207-1.086-2.414-1.569-3.621
						c-144.59-332.992-169.212-716.072-77.726-1068.013c108.262-416.391,372.821-787.16,718.969-1047.375
						c220.506-165.832,477.582-290.025,751.676-329.854c258.163-37.656,531.895,3.621,755.056,136.142
						c13.759,8.207,27.397,16.656,40.794,25.587c34.156,22.69,66.623,47.312,97.761,73.381
						c173.919,146.039,305.836,339.51,461.772,507.394c8.811,9.535,17.742,19.069,26.794,28.483
						c294.853,306.198,694.468,511.859,1117.256,574.982c28.122,4.224,56.364,7.724,84.727,10.621
						c129.503,12.914,261.059,10.259,386.58-18.707c37.898-8.569,75.313-19.673,111.883-33.553
						c99.813-37.777,192.988-98.003,265.766-175.126c61.312-65.053,107.899-142.176,131.797-228.11
						c60.588-218.213-45.019-468.41-240.3-586.448c-195.402-118.038-463.341-99.572-645.467,37.656
						c-102.348,77.002-175.367,187.919-211.937,309.819c-28.483,94.986-34.88,196.609-15.932,294.009
						c21.604,110.555,72.174,212.178,138.797,303.905c24.38,33.553,50.812,65.778,78.813,96.554
						c29.811,32.949,61.312,64.209,93.778,94.02c146.521,134.331,314.647,243.559,465.996,372.459
						c53.105,45.139,104.038,93.054,152.556,143.504c197.333,205.661,350.854,453.323,416.995,727.055
						c3.379,13.759,6.517,27.639,9.414,41.519c19.552,93.899,27.518,190.695,23.897,287.008"/>
				</g>
				
					<line style="fill:none;stroke:#000000;stroke-width:12.549;stroke-miterlimit:10;" x1="1000" y1="6342.871" x2="7000" y2="6342.871"/>
			</g>
			<g>
				
					<linearGradient id="SVGID_00000130616898392585518120000013334165877473697168_" gradientUnits="userSpaceOnUse" x1="6209.2866" y1="6358.6631" x2="6209.2866" y2="5927.125">
					<stop  offset="0.045" style="stop-color:#FF6F74"/>
					<stop  offset="0.8267" style="stop-color:#FFA861"/>
				</linearGradient>
				<polygon style="fill:url(#SVGID_00000130616898392585518120000013334165877473697168_);" points="6374.903,6337.181 
					6452.353,5907.519 5966.22,5907.519 6043.67,6337.181 				"/>
				<g>
					<g>
						
							<linearGradient id="SVGID_00000111876684633844500200000002373425514230500279_" gradientUnits="userSpaceOnUse" x1="6178.3911" y1="5475.5317" x2="6907.4497" y2="5475.5317">
							<stop  offset="0.374" style="stop-color:#00A7B7"/>
							<stop  offset="0.7891" style="stop-color:#00E4E3"/>
						</linearGradient>
						<path style="opacity:0.8;fill:url(#SVGID_00000111876684633844500200000002373425514230500279_);" d="M6223.434,5848.393
							c-12.716-23.981-21.674-48.527-29.33-73.563c-6.708-24.89-10.484-50.041-13.953-75.737
							c-2.323-25.43-1.925-50.883-1.181-76.693c1.731-25.522,6.063-50.791,10.681-76.288
							c21.562-100.939,74.142-196.656,147.686-272.106c73.32-75.681,167.239-130.842,267.083-155.759
							c25.26-5.441,50.046-11.371,75.706-13.182c12.773-1.06,25.602-1.626,38.317-2.035c12.781-0.189,25.27-0.943,38.211,0.546
							c25.768,2.57,50.933,5.092,76.118,11.194c25.286,6.667,50.166,14.675,74.678,26.48
							c-18.501,21.194-36.634,38.591-54.361,54.648l-25.687,24.858c-8.405,8.101-16.867,15.382-25.05,23.013
							c-16.458,14.919-31.747,30.642-47.397,44.06c-7.898,6.612-15.147,14.106-22.448,21.229
							c-7.403,6.896-14.63,13.862-22.017,20.256c-57.516,53.975-108.455,103.125-157.978,153.719
							c-49.672,50.487-97.247,102.786-149.22,161.841c-12.147,15.198-25.99,30.095-39.868,45.704
							c-12.855,16.051-27.379,32.073-42.218,48.82c-13.996,17.045-29.161,34.453-45.689,52.454
							C6260.277,5810.185,6243.734,5829.006,6223.434,5848.393z"/>
						
							<linearGradient id="SVGID_00000078762374996573518660000013232690961285994397_" gradientUnits="userSpaceOnUse" x1="6040.8799" y1="5242.0986" x2="6545.9673" y2="5242.0986">
							<stop  offset="0.374" style="stop-color:#00A7B7"/>
							<stop  offset="0.7891" style="stop-color:#00E4E3"/>
						</linearGradient>
						<path style="opacity:0.6;fill:url(#SVGID_00000078762374996573518660000013232690961285994397_);" d="M6223.113,5848.393
							c-23.208-23.976-41.586-49.871-58.22-76.2c-16.555-26.389-31.386-53.471-44.104-81.073
							c-25.524-55.215-44.688-112.399-57.697-170.819c-26.275-116.777-29.604-238.86-8.037-360.589
							c10.448-60.767,28.296-121.447,53.483-180.06c25.099-58.509,57.55-115.354,99.979-165.898
							c5.264-6.312,10.023-12.774,15.764-18.794l17.16-17.964c11.809-11.65,22.779-23.479,36.063-33.873
							c12.781-10.647,25.466-21.019,38.868-30.58c13.905-9.254,27.946-18.015,41.977-26.317
							c14.088-8.247,29.654-14.862,44.547-21.387c7.649-3.075,14.881-6.431,22.678-9.047c7.765-2.66,15.806-4.845,23.697-7.011
							c30.817-9.601,64.124-13.193,96.696-12.969c-12.725,31.681-26.265,57.496-36.611,84.829
							c-2.727,6.634-5.305,13.249-8.158,19.39c-2.721,6.293-4.777,13.206-7.092,19.653c-4.334,13.227-9.615,24.86-13.422,37.601
							c-16.949,49.203-28.375,96.857-39.69,142.766c-11.08,45.993-20.256,91.916-29.094,138.29
							c-8.938,46.267-17.753,92.95-26.171,140.881c-8.546,47.815-17.594,96.375-27.152,146.087
							c-9.425,49.737-19.746,100.414-31.891,152.306c-11.927,51.898-25.773,104.987-42.071,159.708
							c-8.323,27.387-17.201,55.158-27.258,83.545C6247.414,5789.293,6236.694,5818.05,6223.113,5848.393z"/>
						
							<linearGradient id="SVGID_00000135658245802403488960000009139254377655810478_" gradientUnits="userSpaceOnUse" x1="5539.418" y1="5488.1895" x2="6240.061" y2="5488.1895">
							<stop  offset="0.374" style="stop-color:#00A7B7"/>
							<stop  offset="0.7891" style="stop-color:#00E4E3"/>
						</linearGradient>
						<path style="opacity:0.8;fill:url(#SVGID_00000135658245802403488960000009139254377655810478_);" d="M6223.434,5848.393
							c-23.414-13.911-43.11-28.259-61.506-42.515c-19.618-13.729-37.159-27.672-53.985-41.424
							c-17.72-13.327-34.035-26.796-49.44-40.34c-16.422-12.998-31.695-26.198-46.111-39.602
							c-59.67-52.373-112.745-104.002-164.551-157.203c-51.695-53.297-101.49-108.046-151.887-169.331
							c-12.937-14.81-25.578-30.569-38.023-47.397c-13.019-15.843-25.915-32.622-38.635-50.782
							c-13.151-17.323-26.487-35.342-39.527-55.456c-13.612-18.902-27.262-39.135-40.348-63.094
							c25.612-7.154,50.66-10.582,75.746-12.679c24.688-1.233,49.079-0.366,73.654,1.196c23.942,2.717,47.71,6.811,71.351,11.849
							c23.063,5.955,45.936,12.972,68.503,20.952c89.224,33.547,169.139,88.167,234.786,156.174
							c65.531,68.108,117.453,149.752,147.921,240.076c7.18,22.839,13.49,45.89,18.659,69.139c4.245,23.79,7.573,47.658,9.5,71.666
							c0.792,24.583,0.873,48.972-1.127,73.578C6235.526,5798.18,6231.338,5823.068,6223.434,5848.393z"/>
					</g>
					<g>
						<g>
							<path style="fill:none;stroke:#FFFFFF;stroke-width:6.719;stroke-miterlimit:10;" d="M6227.721,5846.442
								c-0.066-4.483-0.07-8.963-0.012-13.438"/>
							<path style="fill:none;stroke:#FFFFFF;stroke-width:6.719;stroke-miterlimit:10;stroke-dasharray:26.2623,26.2623;" d="
								M6228.755,5806.766c8.407-126.116,64.867-247.396,145.983-345.031c83.938-101.033,192.839-178.636,308.67-240.975"/>
							<path style="fill:none;stroke:#FFFFFF;stroke-width:6.719;stroke-miterlimit:10;" d="M6694.996,5214.585
								c3.964-2.091,7.935-4.164,11.912-6.22"/>
						</g>
					</g>
					<path style="fill:none;stroke:#FFFFFF;stroke-width:6.719;stroke-miterlimit:10;stroke-dasharray:26.876;" d="
						M6187.938,5523.379c4.86-256.146,70.704-510.933,190.555-737.362"/>
					<path style="fill:none;stroke:#FFFFFF;stroke-width:6.719;stroke-miterlimit:10;stroke-dasharray:26.876;" d="
						M5786.058,5256.871c195.483,152.66,347.544,360.31,434.072,592.757"/>
				</g>
				
					<linearGradient id="SVGID_00000174569906350254073790000013689958739410076298_" gradientUnits="userSpaceOnUse" x1="6209.2866" y1="6007.7598" x2="6209.2866" y2="5837.5308">
					<stop  offset="0.2893" style="stop-color:#FF6F74"/>
					<stop  offset="0.8267" style="stop-color:#FFA861"/>
				</linearGradient>
				<path style="fill:url(#SVGID_00000174569906350254073790000013689958739410076298_);" d="M6482.033,5859.476v28.713
					c0,20.475-16.582,37.056-37.057,37.056h-471.38c-20.476,0-37.056-16.581-37.056-37.056v-28.713
					c0-20.475,16.581-37.056,37.056-37.056h471.38C6465.452,5822.42,6482.033,5839.001,6482.033,5859.476z"/>
			</g>
			<g>
				
					<linearGradient id="SVGID_00000008133191830126220380000006813840785254015129_" gradientUnits="userSpaceOnUse" x1="5621.4961" y1="4116.3794" x2="5621.4961" y2="1860.7061">
					<stop  offset="0.2424" style="stop-color:#615DD9"/>
					<stop  offset="0.247" style="stop-color:#625EDA"/>
					<stop  offset="0.3451" style="stop-color:#7578E4"/>
					<stop  offset="0.4535" style="stop-color:#838BED"/>
					<stop  offset="0.5781" style="stop-color:#8D99F3"/>
					<stop  offset="0.7317" style="stop-color:#93A2F6"/>
					<stop  offset="1" style="stop-color:#95A4F7"/>
				</linearGradient>
				<path style="fill:url(#SVGID_00000008133191830126220380000006813840785254015129_);" d="M6912.972,2249.945v1371.653
					c0,85.057-68.881,153.939-153.799,153.939H4483.96c-84.917,0-153.94-68.883-153.94-153.939V2249.945
					c0-85.058,69.023-153.94,153.94-153.94h2275.212C6844.09,2096.004,6912.972,2164.887,6912.972,2249.945z"/>
				
					<linearGradient id="SVGID_00000085208171063676026990000007544701719398090887_" gradientUnits="userSpaceOnUse" x1="5885.0044" y1="5158.4214" x2="4882.5273" y2="4810.2944">
					<stop  offset="0.374" style="stop-color:#615DD9"/>
					<stop  offset="1" style="stop-color:#95A4F7"/>
				</linearGradient>
				<path style="fill:url(#SVGID_00000085208171063676026990000007544701719398090887_);" d="M5331.697,5155.419
					c80.771-24.158,162.884-49.824,231.53-98.766s122.751-125.841,122.945-210.147c0.229-99.593-75.06-186.872-164.417-230.85
					s-191.238-53.191-290.467-61.691h-525.585l133.163,661.209"/>
				
					<linearGradient id="SVGID_00000121993549508845187840000014186939991983208888_" gradientUnits="userSpaceOnUse" x1="3878.3518" y1="4233.2935" x2="4409.1245" y2="5428.0688">
					<stop  offset="0.1493" style="stop-color:#615DD9"/>
					<stop  offset="0.4406" style="stop-color:#767AE5"/>
					<stop  offset="0.7983" style="stop-color:#8D99F2"/>
					<stop  offset="1" style="stop-color:#95A4F7"/>
				</linearGradient>
				<path style="fill:url(#SVGID_00000121993549508845187840000014186939991983208888_);" d="M3604.141,5133.345
					c-388.762-58.992-312.031-656.042-312.031-656.042l312.031-235.855l258.519-20.612l321.66,127.599l243.303,67.582
					L4407.29,4601.2h475.208c0,0-114.837,453.936-114.837,472.749c0,18.813-765.594,141.224-765.594,141.224l65.721-233.878
					l16.443,55.569l-103.224,50.103L3604.141,5133.345z"/>
				
					<linearGradient id="SVGID_00000088128062931541511110000011887521498771908279_" gradientUnits="userSpaceOnUse" x1="3799.8601" y1="5206.686" x2="3918.157" y2="5206.686">
					<stop  offset="0.2903" style="stop-color:#E88A75"/>
					<stop  offset="0.8267" style="stop-color:#F4A898"/>
				</linearGradient>
				<path style="fill:url(#SVGID_00000088128062931541511110000011887521498771908279_);" d="M3814.554,5104.521l97.036-10.825
					l6.566,221.795l-59.657,4.183C3790.601,5246.872,3790.217,5175.367,3814.554,5104.521z"/>
				
					<linearGradient id="SVGID_00000041294552383957713750000005252366028960172963_" gradientUnits="userSpaceOnUse" x1="3534.7515" y1="5313.3545" x2="3864.7305" y2="5313.3545">
					<stop  offset="0.374" style="stop-color:#00A7B7"/>
					<stop  offset="0.7891" style="stop-color:#00E4E3"/>
				</linearGradient>
				<path style="fill:url(#SVGID_00000041294552383957713750000005252366028960172963_);" d="M3534.751,5348.61
					c28.865-25.925,43.238-64.31,51.645-102.187c8.407-37.876,11.949-76.945,24.231-113.749
					c12.282-36.803,35.237-72.418,70.651-88.265c50.25-22.485,116.876,7.553,133.298,60.097
					c-28.561,73.003-8.316,163.013,50.154,215.229c-82.674,70.649-164.171,170.79-208.463,270.109"/>
				
					<linearGradient id="SVGID_00000068673427689211559110000012420867032221377957_" gradientUnits="userSpaceOnUse" x1="5154.7827" y1="5581.062" x2="4168.0581" y2="4729.3145">
					<stop  offset="0.0768" style="stop-color:#615DD9"/>
					<stop  offset="0.2242" style="stop-color:#6563DC"/>
					<stop  offset="0.4228" style="stop-color:#7274E3"/>
					<stop  offset="0.6494" style="stop-color:#8690EF"/>
					<stop  offset="0.7817" style="stop-color:#95A4F7"/>
				</linearGradient>
				<path style="fill:url(#SVGID_00000068673427689211559110000012420867032221377957_);" d="M5382.392,5043.176
					c-15.588,82.912-71.221,154.268-139.083,204.526c-67.727,50.258-147.415,81.973-226.968,110.058
					c-314.987,111.132-646.502,175.097-980.168,188.938c0,0-215.143-208.02-95.948-571.921l660.075-19.216l282.198-354.36
					c124.033,15.589,250.484,45.017,351.539,118.792C5335.09,4793.633,5405.505,4920.218,5382.392,5043.176z"/>
				
					<linearGradient id="SVGID_00000150813482077964477530000015212353592460394894_" gradientUnits="userSpaceOnUse" x1="2471.2666" y1="6020.0503" x2="3166.9092" y2="4926.8975">
					<stop  offset="0.4772" style="stop-color:#1E1475"/>
					<stop  offset="0.7985" style="stop-color:#3531A1"/>
				</linearGradient>
				<path style="fill:url(#SVGID_00000150813482077964477530000015212353592460394894_);" d="M3512.11,5314.154l-911.486-678.83
					l-325.537,221.38l256.663,555.918l895.14,382.141c0,0,164.273,14.626,222.399-176.028
					C3707.415,5428.082,3512.11,5314.154,3512.11,5314.154"/>
				
					<linearGradient id="SVGID_00000114054728322321586480000006725737868386825407_" gradientUnits="userSpaceOnUse" x1="916.2214" y1="6518.9268" x2="3007.7715" y2="5178.4858">
					<stop  offset="0.4772" style="stop-color:#1E1475"/>
					<stop  offset="0.5268" style="stop-color:#241C81"/>
					<stop  offset="0.6258" style="stop-color:#2E2893"/>
					<stop  offset="0.731" style="stop-color:#332F9E"/>
					<stop  offset="0.8513" style="stop-color:#3531A1"/>
				</linearGradient>
				<path style="fill:url(#SVGID_00000114054728322321586480000006725737868386825407_);" d="M1847.704,5026.403
					c0,0-119.582,218.697-38.165,541.824c81.418,323.127,468.152,312.95,847.254,340.937s854.887,2.544,788.735-226.443
					c-66.152-228.987-282.418-267.152-412.177-348.57c-129.76-81.417-578.583-477.446-578.583-477.446"/>
				
					<linearGradient id="SVGID_00000158003059638216083620000014724381010392138652_" gradientUnits="userSpaceOnUse" x1="661.3841" y1="3469.8611" x2="2784.0642" y2="5159.8276">
					<stop  offset="0.275" style="stop-color:#FF6F74"/>
					<stop  offset="0.8267" style="stop-color:#FFA861"/>
				</linearGradient>
				<path style="fill:url(#SVGID_00000158003059638216083620000014724381010392138652_);" d="M3133.542,4888.639l-187.326,220.115
					c0,0-339.041-249.813-383.655-306.386c0,0-140.831,213.261-781.42,251.29l-33.864,260.294h-341.863
					c0,0,87.616-975.599,107.37-1174.615c19.753-199.151,61.412-333.666,177.515-451.92
					c57.515-58.59,155.747-87.616,240.406-101.994c86.406-14.782,158.568-14.245,158.568-14.245s59.262,0.538,133.843,9.945
					c107.773,13.438,247.259,45.554,285.96,121.076c65.443,127.795,211.111,526.232,214.068,713.693L3133.542,4888.639z"/>
				<path style="fill:none;stroke:#000000;stroke-width:4.0314;stroke-miterlimit:10;" d="M2400.159,4003.26
					c46.438,93.138,92.238,194.771,75.367,297.467c-9.671,58.87-40.524,114.032-85.625,153.086
					c-45.1,39.054-104.106,61.705-163.755,62.86"/>
				
					<linearGradient id="SVGID_00000085244681757898881730000014304888440696025002_" gradientUnits="userSpaceOnUse" x1="1474.382" y1="5231.6782" x2="1441.5757" y2="5453.5112">
					<stop  offset="0.2903" style="stop-color:#E88A75"/>
					<stop  offset="0.8267" style="stop-color:#F4A898"/>
				</linearGradient>
				<path style="fill:url(#SVGID_00000085244681757898881730000014304888440696025002_);" d="M1699.374,5313.802
					c-29.433,68.211-17.919,152.312,28.763,210.103c8.655,10.714,18.487,20.7,24.776,32.953c6.29,12.253,8.474,27.733,1.341,39.516
					c-10.192,16.834-34.97,18.803-52.857,10.596c-30.399-13.947-47.888-44.937-75.083-62.844
					c-27.258-17.948-62.186-23.143-94.113-18.653c-44.733,6.29-85.323,28.75-124.747,50.805
					c-37.806,21.15-75.612,42.301-113.418,63.451c-8.964,5.015-21,6.492-31.265,6.864c-10.265,0.372-21.447-4.441-25.363-13.938
					c-2.667-6.467-1.545-14,1.415-20.338c2.96-6.338,7.594-11.719,12.17-17.01c-24.738,23.37-58.698,35.407-92.141,41.708
					c-8.708,1.641-17.789,2.619-26.359,0.364c-8.57-2.254-16.589-8.313-19.041-16.83c-2.451-8.516,2.333-19.071,10.965-21.075
					c-7.328,4.992-17.514,5.338-25.235,0.978c-7.721-4.36-12.611-13.298-12.12-22.151c0.62-11.176,8.825-20.383,17.325-27.666
					c15.672-13.427,33.97-23.776,53.552-30.288c-11.56-6.547-14-23.913-7.923-35.726c6.077-11.813,17.692-19.604,28.968-26.629
					c64.896-40.432,134.756-72.885,207.512-96.398c11.996-3.877,24.326-7.638,34.475-15.117
					c10.149-7.479,17.869-19.604,16.456-32.132"/>
				<path style="fill:none;stroke:#000000;stroke-width:4.0314;stroke-miterlimit:10;" d="M1250.992,5595.305
					c0,0,114.442-64.322,165.771-86.487"/>
				
					<line style="fill:none;stroke:#000000;stroke-width:4.0314;stroke-miterlimit:10;" x1="1124.417" y1="5599.473" x2="1352.603" y2="5491.32"/>
				
					<line style="fill:none;stroke:#000000;stroke-width:4.0314;stroke-miterlimit:10;" x1="1157.939" y1="5520.346" x2="1298.941" y2="5453.99"/>
				
					<linearGradient id="SVGID_00000174560580717586355650000007726081126029185704_" gradientUnits="userSpaceOnUse" x1="2989.1018" y1="4946.2261" x2="3363.7239" y2="5261.0981">
					<stop  offset="0.2903" style="stop-color:#E88A75"/>
					<stop  offset="0.8267" style="stop-color:#F4A898"/>
				</linearGradient>
				<path style="fill:url(#SVGID_00000174560580717586355650000007726081126029185704_);" d="M3100.038,4928.056
					c0,0,19.728,52.908,122.587,79.031s174.698,44.083,230.209,106.125s124.084,143.677,58.777,156.738
					c0,0,41.683,81.329-21.225,90.824c0,0,3.561,86.647-59.347,24.926c0,0-18.991,36.795-72.403-39.169
					c-53.412-75.964-137.685-166.171-166.172-168.545s13.056,84.273,11.869,109.198c-1.187,24.926-7.122,53.479-46.291,26.74
					s-35.608-132.377-77.151-159.677s-104.101-81.425-104.101-81.425"/>
				<path style="fill:none;stroke:#000000;stroke-width:4.0314;stroke-miterlimit:10;" d="M3280.198,5167.971
					c0,0,187.105,122.255,150.842,217.729"/>
				<path style="fill:none;stroke:#000000;stroke-width:4.0314;stroke-miterlimit:10;" d="M3292.051,5105.831
					c0,0,156.979,101.62,198.336,254.944"/>
				<path style="fill:none;stroke:#000000;stroke-width:4.0314;stroke-miterlimit:10;" d="M3348.681,5099.246
					c0,0,128.311,117.521,162.93,170.705"/>
				<path style="fill:#1D1273;" d="M2041.469,3502.676h-105.587l-35.255-107.838l-10.369,107.838l-107.838,10.369
					c0,0,62.214-186.642,51.845-302.775c-10.369-116.133,16.59-317.291,213.601-362.915s313.144,78.804,306.922,255.077
					s-35.255,234.339,12.443,298.627c47.698,64.288,105.764,111.985,105.764,111.985h-124.428l-51.961-126.502v138.945h-120.02"/>
				
					<linearGradient id="SVGID_00000126295460615857231080000013744303986405568924_" gradientUnits="userSpaceOnUse" x1="1930.7068" y1="3633.7302" x2="2223.1179" y2="3633.7302">
					<stop  offset="0.4772" style="stop-color:#D9DCEF"/>
					<stop  offset="0.8267" style="stop-color:#EEF1F8"/>
				</linearGradient>
				<path style="fill:url(#SVGID_00000126295460615857231080000013744303986405568924_);" d="M2223.118,3581.122
					c-3.225,36.954-33.999,106.698-130.618,114.491c-4.837,0.403-9.541,0.672-14.11,0.672c-109.251,0-144.593-101.86-146.071-106.16
					l-1.612-4.703c86.406-14.782,158.568-14.245,158.568-14.245S2148.537,3571.715,2223.118,3581.122z"/>
				
					<linearGradient id="SVGID_00000119837652623277390880000000351418226053057441_" gradientUnits="userSpaceOnUse" x1="1960.405" y1="3532.7822" x2="2193.6885" y2="3532.7822">
					<stop  offset="0.2903" style="stop-color:#E88A75"/>
					<stop  offset="0.8267" style="stop-color:#F4A898"/>
				</linearGradient>
				<path style="fill:url(#SVGID_00000119837652623277390880000000351418226053057441_);" d="M2193.688,3577.762
					c0,0-5.375,80.359-103.607,88.421c-98.366,7.929-129.676-85.465-129.676-85.465s75.118-31.579,84.928-93.26
					c9.81-61.68,11.959-88.556,11.959-88.556l119.33,37.492C2176.622,3436.395,2163.319,3535.701,2193.688,3577.762z"/>
				
					<linearGradient id="SVGID_00000159460478196429288260000011469134862817214360_" gradientUnits="userSpaceOnUse" x1="3207.2949" y1="6196.0894" x2="4086.2742" y2="6196.0894">
					<stop  offset="0.374" style="stop-color:#00A7B7"/>
					<stop  offset="0.7891" style="stop-color:#00E4E3"/>
				</linearGradient>
				<path style="fill:url(#SVGID_00000159460478196429288260000011469134862817214360_);" d="M4086.274,6208.789l-369.68,134.111
					l-509.3-148.086l22.576-145.534l494.25,172.678l331.246-37.223C4062.758,6194.007,4073.643,6202.338,4086.274,6208.789z"/>
				
					<linearGradient id="SVGID_00000107581279836776367840000005527162444353929655_" gradientUnits="userSpaceOnUse" x1="4150.6426" y1="5905.6943" x2="4491.9668" y2="5905.6943">
					<stop  offset="0.374" style="stop-color:#00A7B7"/>
					<stop  offset="0.7891" style="stop-color:#00E4E3"/>
				</linearGradient>
				<path style="fill:url(#SVGID_00000107581279836776367840000005527162444353929655_);" d="M4491.967,5748.268l-285.692,384.595
					l-0.94,0.538c-16.797-26.07-54.692-38.97-54.692-38.97l293.62-416.444L4491.967,5748.268z"/>
				
					<linearGradient id="SVGID_00000176754615036844359860000014359453824883333764_" gradientUnits="userSpaceOnUse" x1="3670.634" y1="5663.7827" x2="4508.8682" y2="6670.5063">
					<stop  offset="0.0917" style="stop-color:#D9DCEF"/>
					<stop  offset="0.5616" style="stop-color:#EEF1F8"/>
				</linearGradient>
				<path style="fill:url(#SVGID_00000176754615036844359860000014359453824883333764_);" d="M3229.817,6049.301l494.301,172.667
					l331.207-37.173c30.11,37.637,117.93,60.22,150.549,0c32.619-60.219-55.201-90.329-55.201-90.329l293.57-416.518
					l-569.575-72.765l-188.186,358.808L3229.817,6049.301z"/>
				
					<linearGradient id="SVGID_00000135677395315149308130000006457428558294532749_" gradientUnits="userSpaceOnUse" x1="4021.4751" y1="4555.9565" x2="4364.001" y2="2830.0239">
					<stop  offset="0.2327" style="stop-color:#1E1475"/>
					<stop  offset="0.69" style="stop-color:#3531A1"/>
				</linearGradient>
				<path style="fill:url(#SVGID_00000135677395315149308130000006457428558294532749_);" d="M4718.151,4303.146l-423.7,60.202
					l-192.298-48.78l-71.222-32.25l-92.722-42.061l-113.82-107.773V3926.21l-14.244-203.72l-83.584-282.87l-55.365-192.7
					l-11.154-127.393c0,0,13.707-25.935,29.429-55.767c10.348-19.62,21.5-40.718,30.37-57.38c0.672-1.478,1.344-2.822,2.015-4.166
					c5.375-10.213,9.676-18.275,11.825-22.576c4.166-7.929,12.766-11.288,22.173-12.363c16.126-1.747,34.267,3.225,34.267,3.225
					s11.423,4.838,30.101,13.841c0,0.135,0,0.135,0,0.135c59.262,28.623,191.223,100.382,261.1,198.345
					c91.917,128.87,336.219,883.683,336.219,883.683L4718.151,4303.146z"/>
				
					<linearGradient id="SVGID_00000131331317902298558760000013788795919658909346_" gradientUnits="userSpaceOnUse" x1="3388.6096" y1="4777.0566" x2="3938.571" y2="2811.9072">
					<stop  offset="0.0721" style="stop-color:#1E1475"/>
					<stop  offset="0.2322" style="stop-color:#261E84"/>
					<stop  offset="0.5083" style="stop-color:#312C99"/>
					<stop  offset="0.6902" style="stop-color:#3531A1"/>
				</linearGradient>
				<path style="fill:url(#SVGID_00000131331317902298558760000013788795919658909346_);" d="M4184.26,4176.156l-153.328,106.161
					l-219.039,151.58c-218.368,107.236-585.897,30.235-585.897,30.235s-125.511-991.859-35.342-1217.213
					c71.625-179.129,251.022-256.935,321.706-281.258c18.41-6.45,29.429-9.138,29.429-9.138l64.637,16.395l115.432,29.295
					l11.423,2.956l44.48,11.288c0,0,7.525,6.854,20.157,20.292c47.033,49.989,165.153,191.492,234.224,416.981
					C4119.891,3740.093,4184.26,4176.156,4184.26,4176.156z"/>
				
					<linearGradient id="SVGID_00000097486016481853128970000004547982880981468601_" gradientUnits="userSpaceOnUse" x1="3573.5349" y1="4795.2041" x2="4032.5925" y2="3460.7344">
					<stop  offset="0.2626" style="stop-color:#1E1475"/>
					<stop  offset="0.3947" style="stop-color:#241C81"/>
					<stop  offset="0.7117" style="stop-color:#302B98"/>
					<stop  offset="0.9093" style="stop-color:#3531A1"/>
				</linearGradient>
				<path style="fill:url(#SVGID_00000097486016481853128970000004547982880981468601_);" d="M3244.013,3552.49
					c0,0,62.755,94.132,99.837,279.544c37.082,185.412,182.559,533.57,499.185,610.51s567.645,119.727,567.645,119.727
					l94.132-285.249l-579.055-191.116c0,0-147.413-775.552-451.661-953.995"/>
				<polygon style="fill:#1D1273;" points="5440.153,3847.091 5214.626,4595.084 4334.446,4635.804 4334.446,4562.271 
					5126.921,4526.173 5343.051,3847.091 				"/>
				<path style="fill:#E8EDF7;" d="M4483.957,3677.933c-31.061,0-56.333-25.273-56.333-56.333V2249.945
					c0-31.061,25.273-56.334,56.333-56.334h2275.21c30.993,0,56.198,25.273,56.198,56.334v1371.654
					c0,31.06-25.205,56.333-56.198,56.333H4483.957z"/>
				<path style="fill:#1D1273;" d="M4959.114,3037.993c0.69-37.912-41.99-63.669-66.849-92.302
					c70.92-23.135,122.746-92.355,122.252-166.952c-0.21-31.79-11.799-66.824-40.129-81.249
					c-26.296-13.389-59.691-4.388-82.191,14.705c-22.5,19.093-36.176,46.419-47.771,73.554
					c-11.596,27.135-21.956,55.299-39.857,78.758c-19.5,25.552-47.916,45.64-57.972,76.169c-9.704,29.458,0.31,61.976,15.555,88.986
					c41.54,73.6,183.711,127.062,268.224,127.537"/>
				
					<linearGradient id="SVGID_00000022525250834355550770000010959273477200847249_" gradientUnits="userSpaceOnUse" x1="4982.6748" y1="3211.6724" x2="5134.3193" y2="3211.6724">
					<stop  offset="0.2903" style="stop-color:#E88A75"/>
					<stop  offset="0.8267" style="stop-color:#F4A898"/>
				</linearGradient>
				<path style="fill:url(#SVGID_00000022525250834355550770000010959273477200847249_);" d="M5093.533,3120.741l40.786,156.711
					l-151.645,25.15c0,0,22.073-114.821,5.112-163.444"/>
				
					<linearGradient id="SVGID_00000093145195639601504590000012116736604164843937_" gradientUnits="userSpaceOnUse" x1="4892.3081" y1="2989.6738" x2="5143.0229" y2="2989.6738">
					<stop  offset="0.2903" style="stop-color:#E88A75"/>
					<stop  offset="0.8267" style="stop-color:#F4A898"/>
				</linearGradient>
				<path style="fill:url(#SVGID_00000093145195639601504590000012116736604164843937_);" d="M5142.389,3077.336
					c-3.225,26.472-23.248,48.511-46.898,60.874c-23.651,12.229-50.662,16.126-77.269,18.276
					c-10.213,0.941-20.829,1.478-30.37-1.881c-9.81-3.36-18.41-11.557-19.351-21.77c15.185-1.882,27.951-17.201,28.219-32.386
					c-15.184,5.51-32.25,6.988-46.226-0.941c-14.111-7.928-23.786-24.188-21.501-40.314c0.806-5.644,3.09-10.885,6.45-15.319
					c-5.105-59.53-43.135-98.232-43.135-98.232c72.699-23.785,101.457-79.015,111.535-106.832l4.703-15.588l0.134-0.806l0.135-0.268
					c12.363,51.199,38.03,102.935,72.296,142.846c0.404,0.537,0.941,1.074,1.478,1.613l0.134,0.135
					c5.107,0.134,10.213,0.134,14.648,2.687c6.046,3.359,8.869,11.557,6.181,18.007c-0.269,0.537-0.537,1.075-0.806,1.478
					c7.525,8.466,14.782,16.932,21.232,26.204v0.135c7.794,11.019,13.841,23.516,16.932,36.551
					C5143.061,3060.135,5143.599,3068.87,5142.389,3077.336z"/>
				<polyline style="fill:none;stroke:#000000;stroke-width:4.0314;stroke-miterlimit:10;" points="6815.365,2645.841 
					6679.143,2782.063 6414.911,2387.118 6098.315,2790.171 5648.954,2349.671 5328.955,2727.543 				"/>
				
					<linearGradient id="SVGID_00000167368770922247242400000002480015194073197974_" gradientUnits="userSpaceOnUse" x1="5405.1675" y1="2668.6348" x2="6333.5645" y2="2395.5769">
					<stop  offset="0.4058" style="stop-color:#FF6F74"/>
					<stop  offset="0.8267" style="stop-color:#FFA861"/>
				</linearGradient>
				<path style="fill:url(#SVGID_00000167368770922247242400000002480015194073197974_);" d="M5686.127,2601.997l-9.807-34.468
					c-3.358-11.802,3.551-24.206,15.353-27.563l530.425-150.916l99.91,13.326l-77.931,63.924l-530.425,150.916
					C5701.851,2620.574,5689.485,2613.799,5686.127,2601.997z"/>
				<polyline style="fill:none;stroke:#000000;stroke-width:4.0314;stroke-miterlimit:10;" points="5313.936,2426.742 
					5313.936,3448.055 6768.141,3448.055 				"/>
				<polyline style="fill:none;stroke:#000000;stroke-width:4.0314;stroke-miterlimit:10;" points="5360.723,2484.078 
					5313.933,2426.742 5267.147,2484.078 				"/>
				<polyline style="fill:none;stroke:#000000;stroke-width:4.0314;stroke-miterlimit:10;" points="6710.804,3494.843 
					6768.141,3448.053 6710.804,3401.267 				"/>
				<g>
					<g>
						
							<line style="fill:none;stroke:#000000;stroke-width:4.0314;stroke-miterlimit:10;" x1="6679.143" y1="2782.063" x2="6679.143" y2="2835.815"/>
						
							<line style="fill:none;stroke:#000000;stroke-width:4.0314;stroke-miterlimit:10;stroke-dasharray:111.6976,111.6976;" x1="6679.143" y1="2947.513" x2="6679.143" y2="3338.454"/>
						
							<line style="fill:none;stroke:#000000;stroke-width:4.0314;stroke-miterlimit:10;" x1="6679.143" y1="3394.303" x2="6679.143" y2="3448.055"/>
					</g>
				</g>
				<g>
					<g>
						
							<line style="fill:none;stroke:#000000;stroke-width:4.0314;stroke-miterlimit:10;" x1="6413.642" y1="2387.118" x2="6413.642" y2="2440.87"/>
						
							<line style="fill:none;stroke:#000000;stroke-width:4.0314;stroke-miterlimit:10;stroke-dasharray:105.825,105.825;" x1="6413.642" y1="2546.695" x2="6413.642" y2="3340.382"/>
						
							<line style="fill:none;stroke:#000000;stroke-width:4.0314;stroke-miterlimit:10;" x1="6413.642" y1="3393.295" x2="6413.642" y2="3447.047"/>
					</g>
				</g>
				<g>
					<g>
						
							<line style="fill:none;stroke:#000000;stroke-width:4.0314;stroke-miterlimit:10;" x1="6096.494" y1="2792.961" x2="6096.494" y2="2846.713"/>
						
							<line style="fill:none;stroke:#000000;stroke-width:4.0314;stroke-miterlimit:10;stroke-dasharray:109.5181,109.5181;" x1="6096.494" y1="2956.231" x2="6096.494" y2="3339.544"/>
						
							<line style="fill:none;stroke:#000000;stroke-width:4.0314;stroke-miterlimit:10;" x1="6096.494" y1="3394.303" x2="6096.494" y2="3448.055"/>
					</g>
				</g>
				<g>
					<g>
						
							<line style="fill:none;stroke:#000000;stroke-width:4.0314;stroke-miterlimit:10;" x1="5649.152" y1="2349.671" x2="5649.152" y2="2403.423"/>
						
							<line style="fill:none;stroke:#000000;stroke-width:4.0314;stroke-miterlimit:10;stroke-dasharray:110.0978,110.0978;" x1="5649.152" y1="2513.521" x2="5649.152" y2="3339.254"/>
						
							<line style="fill:none;stroke:#000000;stroke-width:4.0314;stroke-miterlimit:10;" x1="5649.152" y1="3394.303" x2="5649.152" y2="3448.055"/>
					</g>
				</g>
				
					<linearGradient id="SVGID_00000085940355444060626770000014998843109759170476_" gradientUnits="userSpaceOnUse" x1="5302.5234" y1="4330.2041" x2="5330.5015" y2="2627.5464">
					<stop  offset="0.4046" style="stop-color:#00A7B7"/>
					<stop  offset="0.7004" style="stop-color:#00E4E3"/>
				</linearGradient>
				<path style="fill:url(#SVGID_00000085940355444060626770000014998843109759170476_);" d="M5824.073,2613.311l-80.577,501.749
					c0,0-218.075,116.921-614.398,163.01c-560.106,65.136-533.821,346.483-521.231,399.864h790.66v-80.074
					c0,0,485.415-41.159,553.401-308.069s89.11-646.262,89.11-646.262L5824.073,2613.311z"/>
				
					<linearGradient id="SVGID_00000155840959845523395040000004460985142874933130_" gradientUnits="userSpaceOnUse" x1="5872.9048" y1="2525.4927" x2="6062.6191" y2="2525.4927">
					<stop  offset="0.2903" style="stop-color:#E88A75"/>
					<stop  offset="0.8267" style="stop-color:#F4A898"/>
				</linearGradient>
				<path style="fill:url(#SVGID_00000155840959845523395040000004460985142874933130_);" d="M6053.477,2537.326
					c-6.553,7.669-15.06,13.386-22.451,20.358c-21.473,20.218-32.626,51.034-28.724,80.316l-129.397-18.824
					c5.716-25.238,5.437-51.313,6.274-77.109c0.837-25.797,2.928-52.151,12.967-75.854c9.899-23.844,29.004-45.179,53.964-51.732
					c7.112-1.952,15.336-2.51,21.612,1.534c6.276,3.905,9.343,13.526,4.182,19.103c6.972-7.25,22.87-7.669,30.957-1.952
					c8.226,5.856,11.154,17.708,6.832,26.632c8.924-10.318,30.677-8.505,38.902,2.231c8.368,10.877,4.323,28.864-7.947,34.999
					c8.645-5.299,18.544,2.789,21.195,12.55C6064.493,2519.2,6060.03,2529.657,6053.477,2537.326z"/>
				
					<linearGradient id="SVGID_00000072984995359973782340000000757976188312129201_" gradientUnits="userSpaceOnUse" x1="5675.4717" y1="2570.1665" x2="5775.8921" y2="2570.1665">
					<stop  offset="0.4772" style="stop-color:#1E1475"/>
					<stop  offset="0.8267" style="stop-color:#3531A1"/>
				</linearGradient>
				<path style="fill:url(#SVGID_00000072984995359973782340000000757976188312129201_);" d="M5713.653,2617.216l62.239-17.708
					l-21.979-77.25l-62.239,17.708c-11.802,3.358-18.711,15.761-15.353,27.563l9.807,34.468
					C5689.485,2613.799,5701.851,2620.574,5713.653,2617.216z"/>
				
					<linearGradient id="SVGID_00000042716478557540862900000004806979524606796730_" gradientUnits="userSpaceOnUse" x1="6193.6821" y1="2434.2747" x2="6280.9326" y2="2419.2698">
					<stop  offset="0.4058" style="stop-color:#FF6F74"/>
					<stop  offset="0.8267" style="stop-color:#FFA861"/>
				</linearGradient>
				<polygon style="fill:url(#SVGID_00000042716478557540862900000004806979524606796730_);" points="6321.977,2402.34 
					6293.22,2426.26 6245.38,2465.902 6223.477,2388.633 6284.888,2397.234 				"/>
				<polygon points="6321.977,2402.34 6293.22,2426.26 6284.888,2397.234 				"/>
				
					<linearGradient id="SVGID_00000127006153039439459180000003175427184925907599_" gradientUnits="userSpaceOnUse" x1="4435.2793" y1="4416.0161" x2="5031.3682" y2="4416.0161">
					<stop  offset="0.2903" style="stop-color:#E88A75"/>
					<stop  offset="0.8267" style="stop-color:#F4A898"/>
				</linearGradient>
				<path style="fill:url(#SVGID_00000127006153039439459180000003175427184925907599_);" d="M4489.15,4320.951
					c0,0,159.875-31.28,225.909-13.902c66.035,17.377,234.598,67.772,258.927,95.577s-16.527,31.317-16.527,31.317
					s64.92,16.343,72.135,34.718c9.689,24.674-22.591,22.591-41.706,19.115c0,0,62.559,34.755,8.688,39.969
					s-121.643-27.804-121.643-27.804s27.804,39.347-34.755,28.362s-140.759-14.46-208.532-24.887
					c-67.772-10.427-196.367-10.427-196.367-10.427L4489.15,4320.951z"/>
				<path style="fill:none;stroke:#000000;stroke-width:4.0314;stroke-miterlimit:10;" d="M4957.459,4433.943
					c0,0-131.825-46.585-230.941-69.382"/>
				<path style="fill:none;stroke:#000000;stroke-width:4.0314;stroke-miterlimit:10;" d="M4987.888,4487.776
					c0,0-231.636-77.622-298.044-88.524"/>
				<path style="fill:none;stroke:#000000;stroke-width:4.0314;stroke-miterlimit:10;" d="M4874.934,4499.941
					c0,0-33.441-25.36-169.23-48.157"/>
				<path style="fill:none;stroke:#000000;stroke-width:4.0314;stroke-miterlimit:10;" d="M2562.619,4802.425
					c0,0-110.082-188.123-167.037-350.642"/>
				
					<line style="fill:none;stroke:#000000;stroke-width:4.0314;stroke-miterlimit:10;" x1="1781.148" y1="5053.687" x2="1848.444" y2="4535.903"/>
				
					<linearGradient id="SVGID_00000134215483537993943400000002322953062119890092_" gradientUnits="userSpaceOnUse" x1="1974.4199" y1="3219.3103" x2="2273.2412" y2="3219.3103">
					<stop  offset="0.2903" style="stop-color:#E88A75"/>
					<stop  offset="0.8267" style="stop-color:#F4A898"/>
				</linearGradient>
				<path style="fill:url(#SVGID_00000134215483537993943400000002322953062119890092_);" d="M2273.241,3278.632
					c0,58.59-29.295,145.265-103.875,159.375c-74.715,14.11-115.029-26.204-133.171-81.703c0,0-0.537-2.553-1.478-7.122
					c-14.781,1.882-31.042-3.091-41.927-13.573c-17.2-16.529-21.904-43.136-15.857-66.115c4.031-14.917,12.766-29.295,26.473-36.686
					c8.332-4.434,18.813-5.644,27.951-3.091c1.21-3.897,2.822-7.391,4.837-10.481c23.248-36.417,33.058-93.798,33.058-93.798
					c74.044-16.529,141.636-63.159,181.548-127.661c0,0,15.722,85.197,13.975,156.821
					C2263.163,3226.224,2273.241,3220.177,2273.241,3278.632z"/>
				<g>
					<path d="M2131.604,3323.51c18.875,16.355,47.095,21.052,70.25,11.692c-3.113,10.008-3.892,18.873-9.211,27.903
						c-5.319,9.031-12.966,17.045-22.708,20.911c-14.381,5.706-32.264,0.78-41.696-11.484
						C2118.809,3360.267,2122.398,3335.944,2131.604,3323.51z"/>
					<path d="M2171.802,3242.844c1.531,7.841,7.449,12.041,12.918,17.039c5.489,4.705,12.864,11.874,12.479,22.545
						c-0.557,9.677-7.65,18.795-17.461,20.224c-9.422,1.552-18.461-4.46-20.576-12.191c5.585,5.54,13.343,6.465,18.784,4.533
						c5.314-1.934,8.992-7.641,9.193-13.078c0.592-5.208-3.427-10.678-8.135-16.676
						C2174.302,3259.536,2169.069,3250.811,2171.802,3242.844z"/>
					<path d="M2208.49,3203.348c-2.707,4.943-2.884,11.19-0.461,16.278c2.861,6.008,9.712,10.19,16.252,8.962
						c7.488-1.406,12.537-9.643,11.593-17.204C2234.063,3196.873,2216.751,3188.265,2208.49,3203.348z"/>
					<g>
						<polygon points="2255.977,3190.256 2205.138,3151.254 2213.327,3140.598 2264.153,3179.6 						"/>
					</g>
					<path d="M2152.328,3202.628c2.981,4.783,3.51,11.01,1.377,16.226c-2.518,6.159-9.123,10.721-15.721,9.863
						c-7.555-0.981-13.06-8.922-12.544-16.523C2126.431,3197.603,2143.231,3188.033,2152.328,3202.628z"/>
					<g>
						
							<rect x="2095.114" y="3152.765" transform="matrix(0.972 -0.2352 0.2352 0.972 -683.3889 588.8836)" width="64.068" height="13.448"/>
					</g>
				</g>
				<path style="fill:none;stroke:#000000;stroke-width:4.0314;stroke-miterlimit:10;" d="M2021.463,3248.71
					c-8.518-2.024-17.691,2.306-23.016,8.835c-5.325,6.53-7.443,14.847-8.518,22.992c-0.993,7.524-1.199,15.245,0.753,22.604
					c1.952,7.358,6.235,14.367,12.865,18.744"/>
				
					<line style="fill:none;stroke:#000000;stroke-width:4.0314;stroke-miterlimit:10;" x1="3686.481" y1="5963.991" x2="4105.508" y2="6119.558"/>
				
					<line style="fill:none;stroke:#000000;stroke-width:4.0314;stroke-miterlimit:10;" x1="3724.118" y1="6221.968" x2="3716.591" y2="6342.871"/>
				<path style="fill:none;stroke:#000000;stroke-width:4.0314;stroke-miterlimit:10;" d="M2006.496,5031.199
					c14.472,28.769,29.358,59.856,24.815,91.738c-5.018,35.218-36.37,64.9-71.81,67.986s-71.449-20.732-82.478-54.554"/>
				<path style="fill:#1D1273;" d="M3588.217,2491.061c0,0,223.946,47.146,327.668-49.504
					c103.722-96.65,108.437-195.658-18.859-223.946c-127.295-28.288-242.804,82.506-346.527,77.792
					c-103.722-4.715-256.948,34.781-176.799,207.155c80.149,172.374,91.936,120.513,129.653,224.235
					c37.717,103.722,100.015,48.901,100.015,48.901"/>
				
					<linearGradient id="SVGID_00000116918504310496301210000015417048913060302011_" gradientUnits="userSpaceOnUse" x1="3667.6575" y1="2965.2104" x2="3657.4478" y2="3044.5054">
					<stop  offset="0.4772" style="stop-color:#D9DCEF"/>
					<stop  offset="0.8267" style="stop-color:#EEF1F8"/>
				</linearGradient>
				<path style="fill:url(#SVGID_00000116918504310496301210000015417048913060302011_);" d="M3820.224,2984.34
					c0,0.135,0,0.135,0,0.135c-0.941,14.244-5.24,33.595-20.56,50.527c-0.538,0.672-1.21,1.209-1.747,1.747
					c-18.275,19.216-45.555,28.758-81.166,28.758c-6.181,0-12.497-0.269-19.082-0.941c-2.822-0.269-5.509-0.538-8.197-0.806
					c-110.326-12.632-168.647-87.213-171.2-90.438l-5.913-7.66c18.41-6.45,29.429-9.138,29.429-9.138l64.637,16.395
					c22.71,14.781,54.961,29.295,96.216,32.789c6.182,0.537,11.96,0.806,17.201,0.672c4.972-0.135,9.407-0.537,13.438-1.21
					c10.213-1.613,17.873-4.838,22.307-9.541c4.704-5.106,5.645-12.094,5.645-16.395c-2.016-3.897-3.763-7.928-5.375-11.959
					c16.126-1.747,34.267,3.225,34.267,3.225S3801.546,2975.337,3820.224,2984.34z"/>
				
					<linearGradient id="SVGID_00000113326566530817015970000012655308027834414767_" gradientUnits="userSpaceOnUse" x1="3688.7878" y1="2795.4504" x2="3663.2339" y2="2993.9194">
					<stop  offset="0.2903" style="stop-color:#E88A75"/>
					<stop  offset="0.8267" style="stop-color:#F4A898"/>
				</linearGradient>
				<path style="fill:url(#SVGID_00000113326566530817015970000012655308027834414767_);" d="M3777.496,2818.338
					c0,0-20.269,97.623,12.69,153.399c0,0,13.944,73.523-90.003,64.65c-103.947-8.874-158.455-79.862-158.455-79.862
					c28.824-52.455,57.076-140.539,56.972-201.121"/>
				
					<linearGradient id="SVGID_00000019645339880779389270000016601403716306728832_" gradientUnits="userSpaceOnUse" x1="3675.3457" y1="2485.5422" x2="3755.4146" y2="2764.9319">
					<stop  offset="0.2903" style="stop-color:#E88A75"/>
					<stop  offset="0.8267" style="stop-color:#F4A898"/>
				</linearGradient>
				<path style="fill:url(#SVGID_00000019645339880779389270000016601403716306728832_);" d="M3872.633,2471.143
					c-24.592,30.907-31.58,65.577-36.148,104.816c-4.569,39.24-3.628,79.016-7.929,118.255
					c-4.434,39.239-14.647,79.015-38.701,110.325c-24.054,31.311-64.233,52.543-103.069,45.42
					c-40.986-7.391-84.928-24.86-91.916-126.317c-15.857,1.881-32.655-3.091-45.018-13.573
					c-17.738-14.916-26.07-39.373-23.919-62.487c1.344-15.051,7.391-30.638,20.022-38.701
					c31.176-38.164,43.539-87.481,44.749-136.664C3684.207,2505.585,3778.025,2516.404,3872.633,2471.143z"/>
				<g>
					<path d="M3695.902,2709.356c18.875,16.355,47.095,21.052,70.25,11.692c-3.113,10.008-3.892,18.873-9.21,27.903
						c-5.319,9.031-12.966,17.045-22.708,20.91c-14.381,5.706-32.264,0.78-41.696-11.484S3686.696,2721.79,3695.902,2709.356z"/>
					<path d="M3736.101,2628.69c1.531,7.841,7.449,12.041,12.918,17.039c5.488,4.705,12.863,11.874,12.478,22.545
						c-0.557,9.677-7.65,18.795-17.461,20.224c-9.422,1.552-18.461-4.46-20.575-12.191c5.585,5.54,13.343,6.465,18.783,4.533
						c5.314-1.934,8.993-7.641,9.193-13.078c0.592-5.208-3.427-10.678-8.135-16.676
						C3738.599,2645.382,3733.367,2636.657,3736.101,2628.69z"/>
					<path d="M3772.788,2589.195c-2.707,4.943-2.884,11.189-0.461,16.278c2.861,6.008,9.712,10.19,16.251,8.962
						c7.488-1.406,12.537-9.643,11.594-17.204C3798.361,2582.719,3781.049,2574.111,3772.788,2589.195z"/>
					<g>
						
							<rect x="3792.227" y="2519.233" transform="matrix(0.6087 -0.7934 0.7934 0.6087 -537.7074 4012.2283)" width="13.431" height="64.071"/>
					</g>
					<path d="M3716.626,2588.474c2.981,4.782,3.509,11.009,1.376,16.226c-2.518,6.159-9.123,10.72-15.721,9.863
						c-7.555-0.982-13.06-8.922-12.544-16.524C3690.729,2583.449,3707.529,2573.88,3716.626,2588.474z"/>
					<g>
						
							<rect x="3659.414" y="2538.606" transform="matrix(0.972 -0.2352 0.2352 0.972 -495.0742 939.5512)" width="64.068" height="13.448"/>
					</g>
				</g>
				<path d="M5140.911,3051.834c-6.274,6.415-15.476,9.9-24.402,8.785c-12.548-1.534-24.541-17.43-26.492-29.839
					c12.688-1.116,24.82-6.833,34.022-15.618v0.14C5131.709,3026.317,5137.844,3038.727,5140.911,3051.834z"/>
				<path d="M5066.111,2961.318c5.218,3.734,11.215,3.191,17.249,2.854c5.894-0.468,14.002-0.507,19.676,5.523
					c5.077,5.604,6.359,14.599,1.781,20.857c-4.305,6.067-12.486,8.263-18.298,5.296c6.285,0.145,11.723-3.441,13.885-7.988
					c2.108-4.436,0.942-10.158-2.316-13.626c-2.98-3.608-8.714-4.255-14.854-4.92
					C5077.249,2968.767,5069.377,2967.31,5066.111,2961.318z"/>
				<path d="M5031.656,2949.646c4.478,1.002,8.392,4.252,10.2,8.469c2.135,4.979,1.009,11.416-3.257,14.755
					c-4.885,3.823-12.636,2.481-16.751-2.16C5013.949,2961.801,5017.993,2946.588,5031.656,2949.646z"/>
				<g>
					
						<rect x="4966.168" y="2932.896" transform="matrix(0.5139 -0.8578 0.8578 0.5139 -95.0827 5711.4214)" width="52.158" height="13.431"/>
				</g>
				<path style="fill:none;stroke:#000000;stroke-width:4.0314;stroke-miterlimit:10;" d="M3552.721,2622.264
					c-12.42,11.382-17.642,30.021-12.943,46.198c4.699,16.178,19.093,29.119,35.678,32.077"/>
				<path style="fill:none;stroke:#000000;stroke-width:4.0314;stroke-miterlimit:10;" d="M3336.619,3763.983
					c23.664,142.073,65.295,283.194,142.213,404.966c76.918,121.772,191.866,223.264,329.797,264.738"/>
				<path style="fill:none;stroke:#000000;stroke-width:4.0314;stroke-miterlimit:10;" d="M3832.925,3722.711
					c45.437,118.923,78.819,242.447,99.469,368.068c114.076,46.197,232.088,81.719,351.053,113.256"/>
				<path style="fill:none;stroke:#000000;stroke-width:4.0314;stroke-miterlimit:10;" d="M3966.091,3252.318
					c77.82,195.737,133.263,463.873,176.353,677.187"/>
				
					<line style="fill:none;stroke:#000000;stroke-width:4.0314;stroke-miterlimit:10;" x1="4600.3" y1="4955.561" x2="4227.989" y2="4966.399"/>
				<path style="fill:none;stroke:#000000;stroke-width:4.0314;stroke-miterlimit:10;" d="M5246.282,4725.152
					c45.814,41.133,87.078,88.586,113.401,144.246s36.782,120.264,20.704,179.697"/>
				<path style="fill:none;stroke:#000000;stroke-width:4.0314;stroke-miterlimit:10;" d="M3590.024,4484.824
					c13.211,54.005-8.262,114.887-52.431,148.653c-25.048,19.148-57.243,29.791-88.52,25.813
					c-31.277-3.977-60.913-23.636-73.772-52.423"/>
				<path style="fill:none;stroke:#000000;stroke-width:4.0314;stroke-miterlimit:10;" d="M3274.583,5466.229
					c92.031,45.674,159.778,137.313,176.461,238.691c5.651,34.342,3.049,75.355-25.169,95.729"/>
				<path style="fill:none;stroke:#000000;stroke-width:4.0314;stroke-miterlimit:10;" d="M4945.428,3052.7
					c-5.559,4.747-7.527,12.958-5.597,20.009s7.342,12.855,13.846,16.19c6.505,3.334,14.008,4.37,21.307,3.969"/>
				<path style="fill:none;stroke:#000000;stroke-width:4.0314;stroke-miterlimit:10;" d="M5972.304,2434.943
					c-10.432,7.344-17.886,18.798-20.376,31.311"/>
				<path style="fill:none;stroke:#000000;stroke-width:4.0314;stroke-miterlimit:10;" d="M6009.886,2458.68
					c-8.548,8.068-15.823,17.484-21.471,27.792"/>
				<path style="fill:none;stroke:#000000;stroke-width:4.0314;stroke-miterlimit:10;" d="M6041.911,2496.773
					c-9.905,4.845-18.571,12.195-24.968,21.176"/>
				<path style="fill:none;stroke:#000000;stroke-width:4.0314;stroke-miterlimit:10;" d="M5398.704,3597.765
					c-0.672-37.774-7.906-75.423-21.282-110.756"/>
				
					<line style="fill:none;stroke:#000000;stroke-width:4.0314;stroke-miterlimit:10;" x1="5743.496" y1="3115.059" x2="5782.166" y2="3145.622"/>
				<g>
					
						<linearGradient id="SVGID_00000049209163048887213500000017877044407367626635_" gradientUnits="userSpaceOnUse" x1="5050.668" y1="5999.3481" x2="5050.668" y2="6107.0776">
						<stop  offset="0.374" style="stop-color:#00A7B7"/>
						<stop  offset="0.7891" style="stop-color:#00E4E3"/>
					</linearGradient>
					<path style="fill:url(#SVGID_00000049209163048887213500000017877044407367626635_);" d="M5474.048,5954.356h-920.434v6.643
						c5.029,4.464,9.311,10.95,12.831,18.89c16.394,36.686,16.394,104.279,0,140.965c-3.521,7.94-7.802,14.425-12.831,18.89v6.643
						h920.434C5572.279,6146.386,5572.279,5954.356,5474.048,5954.356z"/>
					
						<linearGradient id="SVGID_00000016769996240656903060000000003456769199791767_" gradientUnits="userSpaceOnUse" x1="5044.2998" y1="6012.9165" x2="5044.2998" y2="6091.998">
						<stop  offset="0.4772" style="stop-color:#D9DCEF"/>
						<stop  offset="0.8267" style="stop-color:#EEF1F8"/>
					</linearGradient>
					<path style="fill:url(#SVGID_00000016769996240656903060000000003456769199791767_);" d="M5522.154,6050.438
						c0,24.323-10.079,70.415-48.106,70.415h-907.603c16.394-36.686,16.394-104.279,0-140.965h907.603
						C5512.076,5979.889,5522.154,6025.981,5522.154,6050.438z"/>
					
						<linearGradient id="SVGID_00000168828230636942273950000001873796370136446369_" gradientUnits="userSpaceOnUse" x1="5396.8281" y1="5955.5488" x2="5396.8281" y2="6165.019">
						<stop  offset="0.374" style="stop-color:#00A7B7"/>
						<stop  offset="0.7891" style="stop-color:#00E4E3"/>
					</linearGradient>
					<path style="fill:url(#SVGID_00000168828230636942273950000001873796370136446369_);" d="M5245.975,5954.4h228.114
						c98.125,0,98.125,192.025,0,192.025h-228.114C5344.101,6146.425,5344.101,5954.4,5245.975,5954.4z"/>
				</g>
				<g>
					
						<linearGradient id="SVGID_00000064331125939295399170000005870727824163189651_" gradientUnits="userSpaceOnUse" x1="5893.2422" y1="539.7147" x2="5893.2422" y2="647.444" gradientTransform="matrix(-1 0 0 -1 10846.1475 6833.1958)">
						<stop  offset="0.4772" style="stop-color:#1E1475"/>
						<stop  offset="0.8267" style="stop-color:#3531A1"/>
					</linearGradient>
					<path style="fill:url(#SVGID_00000064331125939295399170000005870727824163189651_);" d="M4529.525,6338.473h920.435v-6.643
						c-5.03-4.464-9.311-10.95-12.831-18.89c-16.394-36.685-16.394-104.279,0-140.964c3.52-7.94,7.801-14.425,12.831-18.89v-6.643
						h-920.435C4431.294,6146.443,4431.294,6338.473,4529.525,6338.473z"/>
					
						<linearGradient id="SVGID_00000024714655830763372770000010894401243191638913_" gradientUnits="userSpaceOnUse" x1="5886.874" y1="553.2829" x2="5886.874" y2="632.3645" gradientTransform="matrix(-1 0 0 -1 10846.1475 6833.1958)">
						<stop  offset="0.4772" style="stop-color:#D9DCEF"/>
						<stop  offset="0.8267" style="stop-color:#EEF1F8"/>
					</linearGradient>
					<path style="fill:url(#SVGID_00000024714655830763372770000010894401243191638913_);" d="M4481.419,6242.391
						c0-24.323,10.078-70.415,48.105-70.415h907.604c-16.394,36.686-16.394,104.279,0,140.964h-907.604
						C4491.498,6312.94,4481.419,6266.848,4481.419,6242.391z"/>
					
						<linearGradient id="SVGID_00000000223351205995891570000016672485777753391527_" gradientUnits="userSpaceOnUse" x1="6239.4028" y1="495.9153" x2="6239.4028" y2="705.3856" gradientTransform="matrix(-1 0 0 -1 10846.1475 6833.1958)">
						<stop  offset="0.4772" style="stop-color:#1E1475"/>
						<stop  offset="0.8267" style="stop-color:#3531A1"/>
					</linearGradient>
					<path style="fill:url(#SVGID_00000000223351205995891570000016672485777753391527_);" d="M4757.599,6338.429h-228.114
						c-98.125,0-98.125-192.025,0-192.025h228.114C4659.472,6146.403,4659.472,6338.429,4757.599,6338.429z"/>
				</g>
			</g>
			
				<line style="fill:none;stroke:#000000;stroke-width:4.0314;stroke-miterlimit:10;" x1="6033.646" y1="5925.245" x2="6283.215" y2="5925.245"/>
			<path style="fill:none;stroke:#000000;stroke-width:4.0314;stroke-miterlimit:10;" d="M6196.772,5516.371
				c25.519-92.887,75.351-178.981,143.184-247.377"/>
			<path style="fill:none;stroke:#000000;stroke-width:4.0314;stroke-miterlimit:10;" d="M6228.714,5822.42
				c16.182-75.707,17.973-142.164-3.252-213.833"/>
		</g>
		<path style="fill:none;stroke:#000000;stroke-width:4.0314;stroke-miterlimit:10;" d="M4204.808,6131.182
			c13.799,17.248,12.55,43.724-0.208,61.756c-12.757,18.032-35.031,27.881-57.094,28.944s-43.897-5.823-63.539-15.928"/>
	</g>
</g>
<g id="Layer_1">
</g>
</svg>
