<svg xmlns="http://www.w3.org/2000/svg" xml:space="preserve" viewBox="0 0 3710 3710"><path d="M0 0h3710v3710H0z" style="fill:#fff"/><linearGradient id="a" x1="3611.285" x2="1119.389" y1="4062.252" y2="967.474" gradientUnits="userSpaceOnUse"><stop offset="0" style="stop-color:#dae3fe"/><stop offset="1" style="stop-color:#e9effd"/></linearGradient><path d="M2930.923 2838.196c-57.521 60.062-111.948 98.795-154.949 129.397-505.47 359.721-1103.576 254.864-1230.691 229.257-187.708-37.813-550.543-110.906-812.867-416.875-396.874-462.906-335.075-1192.202-27.232-1673.621 56.309-88.06 353.75-576.811 958.298-655.191 365.866-47.435 792.348 48.236 1101.194 304.876 648.297 538.711 602.145 1627.003 166.247 2082.157" style="fill:url(#a)"/><ellipse cx="1941.155" cy="1741.831" rx="1164.263" ry="1256.707" style="fill:#91b3fa" transform="rotate(-87.484 1941.308 1741.89)"/><path d="M993.12 970.485c-27.584 44.284-48.854 94.137-44.859 146.157 4.625 60.233 35.111 116.64 36.674 177.03 2.65 102.419-76.412 188.148-101.075 287.589-27.567 111.148 76.37 237.79 117.78 299.827s23.614-50.336 48.725-94.154 79.257 184.381 163.835 234.464c45.378 26.871 98.616 44.759 131.253 86.185 47.601 60.419 34.412 146.394 27.265 222.979s3.558 169.919 72.531 203.965c40.612 20.046 92.234 13.262 128.882 39.872 64.361 46.731 33.616 148.612 59.12 223.949 27.735 81.927 82.728 83.006 167.813 100.375s-10.721-169.557 29.139-234.888c20.95-34.338 52.934-61.664 69.457-98.339 22.915-50.861 16.461-118.817 60.916-152.519 33.323-25.262 79.691-18.428 121.506-18.797s92.672-18.514 97.415-60.061c4.209-36.864-32.695-66.258-68.801-74.801s-74.58-4.469-110.04-15.388c-101.426-31.23-148.734-173.162-254.652-179.803-90.537-5.677-166.37 95.948-255.331 78.198-49.595-9.895-83.542-53.818-120.356-88.493-47.291-44.544-105.984-77.974-143.53-130.992s-43.934-137.761 9.479-174.742c39.678-27.471 96.054-16.319 135.252 11.831s65.896 69.919 94.684 108.651c8.891 11.963 18.953 24.36 33.177 28.813 38.277 11.982 66.208-41.869 57.048-80.918s-36.744-73.395-38.039-113.482c-2.283-70.651 73.799-115.481 140.543-138.761 66.745-23.28 145.413-51.036 165.036-118.945 6.932-23.988 5.113-50.383 15.691-73.001 35.057-74.955 220.048-112.375 175.829-155.838-44.219-43.464-184.568-52.911-211.898-140.444-9.784-31.337-19.858-72.76-52.547-75.791-53.246-4.937-83.628 60.971-128.289 72.284-21.202 5.371-23.242 41.383-22.415 85.666.6 32.143-24.967 58.689-57.11 59.297s-58.699-24.952-59.311-57.095c-.227-11.931 1.862-23.991 6.769-36.018 8.599-21.077 24.929-37.931 41.392-53.651 68.692-65.59 273.667-137.655 230.744-165.575s-248.928-104.969-279.656-62.448 20.094 6.516 32.489 56.946-152.392 43.667-228.588 65.501c-12.581 3.605-26.534 7.116-38.313 1.413-13.166-6.374-18.709-21.699-25.854-34.464-38.267-68.366-165.546-23.991-165.546-23.991s-39.587 22.839-64.234 62.407M1568.814 660.237c-18.5 34.488 36.518 33.929 41.99 72.681 49.528 5.397 69.868-72.69 118.849-81.803 27.642-5.143 54.444 14.662 69.465 38.43s22.028 51.675 34.759 76.744c28.526 56.17 87.429 95.701 150.219 100.818 13.661 1.113 28.715.24 38.998-8.822 29.851-26.305-12.855-75.722-1.761-113.932 12.678-43.663 75.636-37.039 118.189-53.052 11.737-4.417 102.008-28.504 103.46-40.96 2.574-22.083-39.305-36.141-86.154-48.188-79.375-20.411-219.036-19.562-287.302-13.385-90.819 8.217-242.136 1.578-300.712 71.469M3083.411 2143.478c20.58-128.829 18.867-261.189-5.04-389.442-6.377-34.213-21.307-75-55.759-79.925-39.851-5.696-88.636 40.081-113.583 8.486-11.012-13.946-6.618-34.252-.38-50.89 16.452-43.882 42.207-84.249 75.068-117.662 20.414-20.757 43.772-39.157 59.491-63.661 33.621-52.41 10.021-128.998-37.565-169.158s-108.972 31.859-158.994 3.271c-50.021-28.588-51.578-97.942-60.979-154.784-6.964-42.104-37.986-156.176-72.255-100.622s45.711 276.703 135.727 382.711c10.858 12.787 22.847 27.108 21.93 43.857-2.19 39.998-60.475 38.218-99.686 46.407-48.537 10.138-122.929-15.857-81.875 68.72 21.653 44.607 125.08 105.66 97.288 135.512-27.791 29.852-113.229 116.32-153.317 186.246-40.089 69.928-59.517 157.005-29.286 231.725s121.132 126.316 195.335 94.838c34.73-14.733 72.585-45.363 104.868-25.844 29.236 17.676 24.921 60.104 23.475 94.237s18.229 79.442 51.438 71.424c10.927-2.638 19.522-10.923 26.901-19.404 46.722-53.694 65.97-125.756 77.198-196.042" style="fill:#7d97f4"/><ellipse cx="1873.139" cy="1660.704" rx="986.126" ry="931.574" style="opacity:.24;fill:#fff"/><g style="opacity:.68"><path d="M2292.108 1761.813c-.302 205.287-14.34 410.989-50.382 613.368-9.127 50.554-19.712 100.864-32.329 150.694-12.657 49.81-27.272 99.187-45.172 147.456-18.049 48.143-39.006 95.589-67.407 138.921-14.31 21.508-30.541 42.106-50.544 59.03-9.998 8.409-20.973 15.86-33.028 21.316-12.035 5.42-25.172 8.851-38.502 9.096-13.32.392-26.653-2.229-38.92-7.173-12.316-4.901-23.553-12.015-33.793-20.144-20.477-16.395-37.065-36.765-51.633-58.103-14.532-21.432-26.944-44.142-38.178-67.339-11.19-23.23-21.139-47.012-30.206-71.096-18.129-48.186-32.889-97.523-45.659-147.303-12.744-49.797-23.437-100.086-32.641-150.623-18.367-101.096-30.875-203.166-39.297-305.515-8.359-102.366-12.518-205.057-12.975-307.76-.222-51.345 1.08-102.684 2.878-153.993 1.881-51.307 4.663-102.581 8.399-153.788 7.504-102.401 18.764-204.576 35.538-305.912 8.418-50.656 18.241-101.098 30.067-151.095 11.853-49.977 25.633-99.559 42.738-148.062 8.597-24.229 17.999-48.199 28.723-71.603 10.707-23.398 22.692-46.283 36.777-67.917 14.115-21.538 30.342-42.091 50.537-58.533 10.094-8.15 21.212-15.239 33.389-20.043 12.128-4.865 25.282-7.336 38.373-6.845 13.101.371 26.01 3.656 37.929 8.914 11.936 5.286 22.904 12.474 32.978 20.622 20.152 16.401 36.84 36.464 51.64 57.535 14.754 21.162 27.617 43.549 39.234 66.506 11.644 22.955 22.017 46.518 31.594 70.378 19.072 47.764 34.813 96.768 48.517 146.278 13.658 49.534 25.216 99.619 35.21 149.999 39.55 201.694 55.599 407.419 56.145 612.734m-12.836 0c.156-102.348-3.769-204.722-12.306-306.716-8.445-101.987-21.235-203.674-40.231-304.235-9.495-50.274-20.546-100.261-33.687-149.694-13.187-49.409-28.401-98.314-46.917-145.957-9.296-23.797-19.384-47.293-30.723-70.166-11.31-22.876-23.851-45.165-38.231-66.198-14.419-20.944-30.687-40.839-50.216-57.03-9.763-8.048-20.361-15.122-31.839-20.331-11.462-5.148-23.818-8.511-36.38-8.842-12.552-.404-25.096 2.108-36.711 6.877-11.657 4.719-22.351 11.667-32.097 19.685-19.5 16.173-35.29 36.504-49.01 57.879-13.698 21.468-25.358 44.233-35.76 67.531-10.419 23.303-19.536 47.191-27.855 71.346-16.555 48.36-29.819 97.829-41.162 147.701-11.313 49.89-20.635 100.232-28.557 150.785-15.787 101.132-26.07 203.094-32.611 305.245-6.59 102.166-8.981 204.566-8.809 306.926-.212 102.345 3.269 204.717 10.939 306.78 7.726 102.047 19.533 203.835 37.168 304.624 8.839 50.385 19.158 100.513 31.514 150.126 12.376 49.597 26.736 98.728 44.404 146.636 8.836 23.946 18.542 47.565 29.451 70.595 10.949 22.995 23.05 45.469 37.164 66.573 14.135 21.011 30.22 40.951 49.742 56.78 9.76 7.852 20.384 14.655 31.885 19.314 11.469 4.675 23.785 7.261 36.121 6.849 12.333-.308 24.487-3.559 35.757-8.72 11.286-5.196 21.685-12.338 31.227-20.475 19.099-16.372 34.839-36.56 48.726-57.75 27.594-42.708 48.063-89.824 65.629-137.684 17.433-47.995 31.634-97.168 43.887-146.795 12.217-49.648 22.414-99.798 31.167-150.196 17.503-100.813 29.167-202.613 36.909-304.661 7.825-102.053 11.442-204.434 11.412-306.802" style="fill:#fff"/><path d="M2809.953 1761.813c-.676 132.12-17.622 264.302-52.958 391.716-35.922 127.13-90.06 249.462-163.636 359.303-36.79 54.862-78.475 106.506-125.062 153.369-46.57 46.844-98.067 88.91-153.999 124.136-55.985 35.088-116.451 63.177-179.749 82.239-63.261 19.109-129.304 29.084-195.413 29.167-66.106-.031-132.165-9.957-195.453-29.021-63.327-19.018-123.836-47.07-179.871-82.126-55.978-35.196-107.542-77.23-154.175-124.058-46.652-46.844-88.407-98.479-125.267-153.342-73.7-109.854-127.936-232.231-164.001-359.412-35.608-127.443-52.508-259.765-53.057-391.97.328-66.122 4.729-132.217 13.469-197.753 8.783-65.524 22.003-130.473 39.807-194.156 36.138-127.138 90.447-249.446 164.186-359.203 36.873-54.818 78.634-106.406 125.28-153.198 46.636-46.767 98.167-88.77 154.138-123.871 56.018-34.98 116.517-62.855 179.748-81.868 63.195-19.086 129.161-29.049 195.194-29.13 66.036.128 131.99 10.137 195.154 29.264 63.208 19.056 123.661 46.977 179.629 81.99 55.922 35.134 107.39 77.165 153.96 123.95 46.58 46.81 88.271 98.407 125.075 153.226 73.614 109.745 127.827 232.006 163.822 359.092 35.404 127.374 52.427 259.537 53.179 391.656m-14.714 0c-.239-130.85-16.585-261.835-51.156-388.133-34.797-126.096-87.192-247.795-159.235-357.223-36.005-54.657-76.889-106.17-122.667-152.988-45.798-46.749-96.385-89.018-151.678-124.169-55.359-34.959-115.143-63.077-177.814-82.11-62.638-19.051-128.035-29.062-193.552-29.273-65.513.258-130.897 10.316-193.508 29.407-62.645 19.076-122.382 47.24-177.692 82.232-55.246 35.182-105.771 77.483-151.499 124.248-45.715 46.835-86.529 98.357-122.465 153.014-71.918 109.415-124.217 231.069-158.871 357.114-17.244 63.097-29.759 127.436-38.224 192.262-8.481 64.834-12.674 130.216-12.833 195.618.195 65.404 4.421 130.781 12.936 195.605 8.501 64.817 21.056 129.142 38.34 192.217 34.727 126 87.099 247.584 159.06 356.904 35.946 54.614 76.763 106.088 122.475 152.87 45.732 46.706 96.223 88.973 151.459 124.063 55.296 34.914 115.024 62.903 177.573 81.972 62.516 19.114 127.81 29.21 193.25 29.516 65.443-.257 130.751-10.3 193.297-29.37 62.579-19.026 122.346-46.975 177.692-81.861 55.283-35.06 105.84-77.294 151.635-123.983 45.778-46.765 86.665-98.23 122.684-152.844 72.083-109.332 124.551-230.961 159.421-357.014 34.634-126.257 51.06-257.222 51.372-388.074" style="fill:#fff"/><path d="m921.384 1310.672 261.923-1.782 261.926-1.018 523.849-.816 523.849.899 261.923 1.106 261.923 1.929a.648.648 0 0 1 0 1.298l-261.923 1.929-261.923 1.106-523.849.899-523.849-.816-261.926-1.018-261.923-1.782a.965.965 0 0 1-.96-.974.965.965 0 0 1 .96-.96M1225.246 871.972l185.958-1.787 185.958-1.013c61.986-.432 123.972-.384 185.958-.518l185.961-.298 371.916.899 185.958 1.106c61.986.656 123.972 1.04 185.958 1.929a.65.65 0 0 1 0 1.298c-61.986.889-123.972 1.273-185.958 1.929l-185.958 1.106-371.916.899-185.961-.298c-61.986-.134-123.972-.086-185.958-.518l-185.958-1.013-185.958-1.787a.966.966 0 0 1 0-1.934M830.36 1749.373l284.681-1.78 284.677-1.02 569.362-.816 569.359.899 284.677 1.106 284.681 1.929a.65.65 0 0 1 0 1.298l-284.681 1.929-284.677 1.106-569.359.899-569.362-.816-284.677-1.018-284.681-1.782a.966.966 0 0 1 0-1.934M921.384 2188.073l261.923-1.78 261.926-1.02 523.849-.816 523.849.899 261.923 1.108 261.923 1.927a.65.65 0 0 1 0 1.298l-261.923 1.929-261.923 1.106-523.849.901-523.849-.818-261.926-1.018-261.923-1.782a.965.965 0 0 1-.96-.974.964.964 0 0 1 .96-.96M2750.391 2631.133H1262.725a3.39 3.39 0 0 1-3.391-3.391 3.39 3.39 0 0 1 3.391-3.391h1487.666a3.39 3.39 0 0 1 3.391 3.391 3.39 3.39 0 0 1-3.391 3.391" style="fill:#fff"/></g><linearGradient id="b" x1="1065.635" x2="922.31" y1="900.929" y2="1463.805" gradientUnits="userSpaceOnUse"><stop offset="0" style="stop-color:#4f52ff"/><stop offset="1" style="stop-color:#4042e2"/></linearGradient><circle cx="1006.998" cy="1131.211" r="154.081" style="fill:url(#b)"/><linearGradient id="c" x1="1065.754" x2="922.429" y1="900.959" y2="1463.836" gradientUnits="userSpaceOnUse"><stop offset="0" style="stop-color:#4f52ff"/><stop offset="1" style="stop-color:#4042e2"/></linearGradient><path d="m1161.034 1122.019-153.764-3.336-154.045-3.342s-14.165 87.37 118.238 324.544c5.777 10.348 16.581 17.759 28.43 18.022s22.993-7.104 29.212-17.192c142.55-231.229 131.929-318.696 131.929-318.696" style="fill:url(#c)"/><path d="m1002.559 1464.033-.014.659-2.8-.061c-13.409-.291-25.766-7.836-32.255-19.459-77.393-138.636-104.964-225.78-114.462-274.442-2.766-11.207-4.258-22.141-4.56-33.35-.682-11.475.134-16.272.229-16.781l.458-2.449c8.002-82.613 78.267-145.514 161.245-143.714 84.068 1.824 152.141 68.644 155.03 152.152.094 1.094.26 3.868.071 8.498l-.005.569a158.8 158.8 0 0 1-7.32 44.406c-11.962 48.155-42.025 133.245-123.939 266.116-7.032 11.406-19.052 18.13-31.678 17.856M857.21 1125.534c-.037-.001-.1 6.158.197 11.134l.004.259c.282 10.619 1.697 21.007 4.33 31.642l.047.247c9.355 48.002 36.641 134.141 113.516 271.848 4.949 8.865 15.783 14.55 26.034 14.777l1.308 4.51.097-4.472c5.05.11 20.049-5.052 25.422-13.767 81.388-132.02 113.467-216.346 124.603-263.871l.006-.276c5.346-13.543 6.148-27.718 6.459-42.045l-.481-.64.001-.05c.097-4.459-1.091-6.897-1.149-7.532l-.566-.271c-2.666-78.822-67.197-141.921-146.561-143.642-79.212-1.718-146.282 58.846-152.52 138.166l-.464 3.991z" style="fill:#fff"/><circle cx="1007.506" cy="1130.725" r="88.97" style="opacity:.8;fill:#fff" transform="rotate(-45.001 1007.498 1130.742)"/><path d="M1005.469 1224.642c-51.787-1.123-93.004-44.169-91.881-95.955s44.169-93.004 95.955-91.88c51.787 1.123 93.004 44.169 91.88 95.955-1.123 51.786-44.168 93.004-95.954 91.88m3.859-177.897c-46.306-1.004-84.796 35.851-85.801 82.158-1.005 46.306 35.851 84.796 82.158 85.801 46.306 1.005 84.797-35.851 85.801-82.157 1.004-46.307-35.852-84.797-82.158-85.802" style="fill:#7d97f4"/><linearGradient id="d" x1="923.679" x2="1016.298" y1="1019.283" y2="1019.283" gradientUnits="userSpaceOnUse"><stop offset="0" style="stop-color:#dae3fe"/><stop offset="1" style="stop-color:#e9effd"/></linearGradient><path d="M925.138 1036.285a1.49 1.49 0 0 1-.915-2.643c25.453-20.918 57.635-32.044 90.616-31.328a1.491 1.491 0 0 1-.065 2.982c-32.27-.7-63.756 10.185-88.659 30.65a1.48 1.48 0 0 1-.977.339" style="fill:url(#d)"/><linearGradient id="e" x1="873.801" x2="898.769" y1="1101.677" y2="1101.677" gradientUnits="userSpaceOnUse"><stop offset="0" style="stop-color:#dae3fe"/><stop offset="1" style="stop-color:#e9effd"/></linearGradient><path d="M875.26 1138.886a1.49 1.49 0 0 1-1.458-1.523c.559-25.758 8.245-50.731 22.227-72.217a1.49 1.49 0 1 1 2.5 1.626c-13.68 21.021-21.199 45.453-21.746 70.656a1.49 1.49 0 0 1-1.523 1.458" style="fill:url(#e)"/><linearGradient id="f" x1="1864.564" x2="1720.771" y1="995.178" y2="1349.023" gradientUnits="userSpaceOnUse"><stop offset="0" style="stop-color:#4f52ff"/><stop offset="1" style="stop-color:#4042e2"/></linearGradient><circle cx="1841.759" cy="1051.296" r="109.699" style="fill:url(#f)"/><linearGradient id="g" x1="1867.588" x2="1723.794" y1="996.407" y2="1350.252" gradientUnits="userSpaceOnUse"><stop offset="0" style="stop-color:#4f52ff"/><stop offset="1" style="stop-color:#4042e2"/></linearGradient><path d="m1951.426 1044.752-109.473-2.375-109.673-2.379s-10.085 62.204 84.18 231.061c4.113 7.367 11.805 12.644 20.241 12.831s16.37-5.058 20.798-12.24c101.488-164.625 93.927-226.898 93.927-226.898" style="fill:url(#g)"/><path d="m1838.599 1288.251-.01.47-1.994-.043c-9.547-.207-18.344-5.579-22.964-13.854-55.101-98.703-74.73-160.745-81.492-195.391-1.969-7.979-3.031-15.763-3.247-23.744-.486-8.17.095-11.585.163-11.947l.326-1.744c5.697-58.817 55.723-103.6 114.799-102.318 59.852 1.298 108.318 48.871 110.374 108.325.067.779.185 2.754.05 6.05l-.004.405a113 113 0 0 1-5.211 31.615c-8.516 34.284-29.92 94.865-88.239 189.462-5.004 8.121-13.562 12.909-22.551 12.714m-103.482-240.996s-.071 4.385.141 7.927l.003.184c.201 7.561 1.208 14.956 3.083 22.528l.034.176c6.66 34.175 26.087 95.503 80.818 193.543 3.523 6.312 11.236 10.359 18.535 10.521l.932 3.211.069-3.184c3.596.078 14.274-3.596 18.099-9.801 57.944-93.992 80.783-154.029 88.712-187.865l.004-.197c3.807-9.642 4.377-19.734 4.599-29.934l-.342-.456.001-.036c.069-3.175-.777-4.911-.818-5.362l-.403-.193c-1.898-56.118-47.841-101.041-104.345-102.267-56.396-1.223-104.146 41.896-108.587 98.368l-.33 2.841z" style="fill:#fff"/><circle cx="1842.121" cy="1050.95" r="63.342" style="opacity:.8;fill:#fff" transform="rotate(-87.839 1842.121 1050.933)"/><path d="M1840.67 1117.816c-36.87-.8-66.215-31.446-65.415-68.316s31.446-66.215 68.316-65.415 66.215 31.446 65.415 68.316c-.8 36.869-31.446 66.214-68.316 65.415m2.748-126.655c-32.968-.715-60.371 25.524-61.086 58.492s25.525 60.371 58.492 61.087c32.968.715 60.371-25.525 61.087-58.493.714-32.968-25.525-60.371-58.493-61.086" style="fill:#7d97f4"/><linearGradient id="h" x1="1782.439" x2="1848.381" y1="971.609" y2="971.609" gradientUnits="userSpaceOnUse"><stop offset="0" style="stop-color:#dae3fe"/><stop offset="1" style="stop-color:#e9effd"/></linearGradient><path d="M1783.479 983.713a1.06 1.06 0 0 1-.652-1.881 98.3 98.3 0 0 1 64.515-22.304 1.061 1.061 0 1 1-.046 2.123c-22.975-.498-45.391 7.251-63.121 21.822a1.05 1.05 0 0 1-.696.24" style="fill:url(#h)"/><linearGradient id="i" x1="1746.929" x2="1764.705" y1="1030.27" y2="1030.27" gradientUnits="userSpaceOnUse"><stop offset="0" style="stop-color:#dae3fe"/><stop offset="1" style="stop-color:#e9effd"/></linearGradient><path d="M1747.967 1056.761a1.06 1.06 0 0 1-1.038-1.084c.398-18.338 5.87-36.118 15.824-51.415a1.061 1.061 0 1 1 1.78 1.158c-9.739 14.966-15.093 32.361-15.482 50.304a1.06 1.06 0 0 1-1.084 1.037" style="fill:url(#i)"/><linearGradient id="j" x1="1925.944" x2="1874.719" y1="1010.038" y2="1206.108" gradientUnits="userSpaceOnUse"><stop offset="0" style="stop-color:#4f52ff"/><stop offset="1" style="stop-color:#4042e2"/></linearGradient><circle cx="1841.683" cy="1332.553" r="31.197" style="fill:url(#j)"/><linearGradient id="k" x1="1131.167" x2="1057.113" y1="1086.545" y2="1369.991" gradientUnits="userSpaceOnUse"><stop offset="0" style="stop-color:#4f52ff"/><stop offset="1" style="stop-color:#4042e2"/></linearGradient><circle cx="1009.357" cy="1552.784" r="45.1" style="fill:url(#k)"/><path d="M1055.013 1548.033a5.08 5.08 0 0 1-3.772-1.672 5.09 5.09 0 0 1 .358-7.187 650 650 0 0 1 8.223-7.312 5.086 5.086 0 0 1 7.177.48 5.083 5.083 0 0 1-.48 7.177 629 629 0 0 0-8.091 7.2 5.08 5.08 0 0 1-3.415 1.314m26.305-22.556a5.07 5.07 0 0 1-3.948-1.878 5.08 5.08 0 0 1 .735-7.153 710 710 0 0 1 24.265-18.874 5.08 5.08 0 0 1 7.117 1.043 5.085 5.085 0 0 1-1.043 7.117 708 708 0 0 0-23.921 18.602 5.05 5.05 0 0 1-3.205 1.143m43.37-32.601a5.08 5.08 0 0 1-4.179-2.182 5.09 5.09 0 0 1 1.272-7.08 792 792 0 0 1 25.59-17.062 5.083 5.083 0 0 1 7.024 1.547 5.084 5.084 0 0 1-1.547 7.024 786 786 0 0 0-25.259 16.844 5.06 5.06 0 0 1-2.901.909m45.646-29.471a5.087 5.087 0 0 1-2.616-9.452 887 887 0 0 1 26.636-15.327 5.09 5.09 0 0 1 6.915 1.994 5.09 5.09 0 0 1-1.994 6.915 857 857 0 0 0-26.332 15.148 5.06 5.06 0 0 1-2.609.722m47.444-26.444c-1.838 0-3.616-1-4.521-2.745a5.09 5.09 0 0 1 2.176-6.859 931 931 0 0 1 27.501-13.671 5.085 5.085 0 0 1 6.779 2.401 5.08 5.08 0 0 1-2.401 6.779 924 924 0 0 0-27.196 13.525 5.06 5.06 0 0 1-2.338.57m48.908-23.553a5.088 5.088 0 0 1-2.079-9.73 968 968 0 0 1 28.213-12.078 5.086 5.086 0 0 1 3.855 9.412 977 977 0 0 0-27.915 11.952 5.1 5.1 0 0 1-2.074.444m50.123-20.752a5.09 5.09 0 0 1-4.752-3.272 5.085 5.085 0 0 1 2.938-6.567 1036 1036 0 0 1 28.805-10.512 5.093 5.093 0 0 1 6.478 3.133 5.09 5.09 0 0 1-3.133 6.478 1012 1012 0 0 0-28.521 10.406 5.1 5.1 0 0 1-1.815.334m51.147-17.982a5.086 5.086 0 0 1-1.56-9.929 1003 1003 0 0 1 29.312-8.952 5.094 5.094 0 0 1 6.299 3.477 5.09 5.09 0 0 1-3.477 6.299 990 990 0 0 0-29.014 8.859 5.1 5.1 0 0 1-1.56.246m52.051-15.225a5.087 5.087 0 0 1-1.292-10.005 994 994 0 0 1 29.789-7.359 5.07 5.07 0 0 1 6.1 3.815 5.09 5.09 0 0 1-3.815 6.1 982 982 0 0 0-29.484 7.279c-.434.118-.871.17-1.298.17m351.773-11.697a5 5 0 0 1-1.523-.232c-9.187-2.881-18.963-5.458-29.064-7.657a5.087 5.087 0 1 1 2.166-9.942c10.396 2.265 20.47 4.918 29.945 7.889a5.09 5.09 0 0 1 3.332 6.378 5.09 5.09 0 0 1-4.856 3.564m-298.934-.679a5.088 5.088 0 0 1-1.014-10.071 956 956 0 0 1 30.167-5.67 5.086 5.086 0 1 1 1.716 10.028 936 936 0 0 0-29.842 5.61 5 5 0 0 1-1.027.103m53.461-9.335a5.087 5.087 0 0 1-.718-10.12 861 861 0 0 1 30.471-3.835c2.732-.324 5.299 1.719 5.6 4.514a5.085 5.085 0 0 1-4.514 5.6 862 862 0 0 0-30.107 3.789q-.37.052-.732.052m192.644-2.11q-.395 0-.798-.063c-9.607-1.51-19.688-2.755-29.961-3.699a5.093 5.093 0 0 1-4.6-5.534c.258-2.798 2.686-4.875 5.534-4.6 10.488.967 20.784 2.239 30.61 3.785a5.084 5.084 0 0 1 4.233 5.815 5.086 5.086 0 0 1-5.018 4.296m-138.712-3.891a5.085 5.085 0 0 1-5.064-4.693 5.08 5.08 0 0 1 4.676-5.464 754 754 0 0 1 30.69-1.759c2.729-.202 5.166 2.086 5.269 4.898a5.086 5.086 0 0 1-4.898 5.269c-9.896.361-20.079.944-30.273 1.732a4 4 0 0 1-.4.017m84.744-1.5q-.125 0-.248-.007a617 617 0 0 0-29.329-.695h-.937a5.088 5.088 0 0 1 0-10.174h.941a624 624 0 0 1 29.816.709 5.087 5.087 0 0 1-.243 10.167" style="fill:#fff"/><linearGradient id="l" x1="2248.924" x2="2721.965" y1="1200.547" y2="571.618" gradientUnits="userSpaceOnUse"><stop offset="0" style="stop-color:#febbba"/><stop offset="1" style="stop-color:#ff928e"/></linearGradient><path d="m2515.125 732.94 75.534-46.877a7.16 7.16 0 0 1 5.211-.931l98.3 20.096a7.16 7.16 0 0 1 5.476 5.137 7.16 7.16 0 0 1-2.12 7.203l-58.863 52.972z" style="fill:url(#l)"/><linearGradient id="m" x1="2125.491" x2="3559.994" y1="966.52" y2="457.036" gradientUnits="userSpaceOnUse"><stop offset="0" style="stop-color:#ff928e"/><stop offset="1" style="stop-color:#fe7062"/></linearGradient><path d="M3169.759 819.687s-916.127-163.596-951.864-152.137-99.61 49.411-118.445 49.494-84.708 11.675-67.549 58.688 776.863 190.58 865.256 160.053 312.281-88.021 312.281-88.021 20.576-32.11-39.679-28.077" style="fill:url(#m)"/><linearGradient id="n" x1="3282.394" x2="2863.224" y1="524.916" y2="1011.538" gradientUnits="userSpaceOnUse"><stop offset="0" style="stop-color:#e1473d"/><stop offset="1" style="stop-color:#e9605a"/></linearGradient><path d="m2904.583 775.708 131.724-73.393a50.5 50.5 0 0 0 19.633-19.705l53.212-96.334c4.216-7.633 12.928-11.632 21.462-9.837 27.321 5.746 84.005 18.437 84.283 24.867.365 8.474-27.118 221.265-27.118 221.265z" style="fill:url(#n)"/><linearGradient id="o" x1="-2306.186" x2="-2873.718" y1="504.291" y2="940.528" gradientTransform="matrix(-1 0 0 1 321.039 0)" gradientUnits="userSpaceOnUse"><stop offset="0" style="stop-color:#e1473d"/><stop offset="1" style="stop-color:#e9605a"/></linearGradient><path d="m3161.229 850.171 11.007 44.852c1.857 7.568.141 15.271-4.654 21.413s-12.142 9.448-19.934 9.482l-46.557.205c-7.352.032-14.357-2.82-19.211-8.342l-83.225-94.526z" style="fill:url(#o)"/><linearGradient id="p" x1="-1878.325" x2="-2325.188" y1="915.681" y2="970.849" gradientTransform="matrix(-1 0 0 1 321.039 0)" gradientUnits="userSpaceOnUse"><stop offset="0" style="stop-color:#e1473d"/><stop offset="1" style="stop-color:#e9605a"/></linearGradient><path d="M2681.587 1000.616s-28.1 34.734-74.011 34.936c-45.911.203-102.472-12.262-113.138-28.461s-33.793-136.102 59.515-119.244 202.32 70.766 127.634 112.769" style="fill:url(#p)"/><linearGradient id="q" x1="2728.992" x2="2868.033" y1="783.985" y2="224.433" gradientUnits="userSpaceOnUse"><stop offset="0" style="stop-color:#febbba"/><stop offset="1" style="stop-color:#ff928e"/></linearGradient><path d="m2733.308 876.459-217.716-37.567 183.491 234.176a14.93 14.93 0 0 0 10.558 5.674l130.38 10.47a14.931 14.931 0 0 0 13.802-22.887z" style="fill:url(#q)"/><linearGradient id="r" x1="2671.244" x2="2305.072" y1="787.033" y2="1167.658" gradientUnits="userSpaceOnUse"><stop offset="0" style="stop-color:#ff928e"/><stop offset="1" style="stop-color:#fe7062"/></linearGradient><path d="M2512.345 1006.211c12.321-13.549 33.995-66.022 28.84-88.752-3.29-14.5-13.549-16.861-21.577-16.29-9.779.716-18.376 6.283-23.012 14.931-15.639 29.201-9.715 67.509-.511 85.382 2.863 5.559 5.789 8.568 8.701 8.944a4.8 4.8 0 0 0 1.635-.076c1.802-.384 3.756-1.754 5.924-4.139m7.547-101.083c9.553-.679 15.252 3.64 17.423 13.207 4.554 20.08-15.09 71.111-27.904 85.206-2.746 3.025-3.979 2.971-4.118 2.949-1.069-.136-3.199-2.007-5.678-6.824-8.553-16.613-14.317-54.064.482-81.69 3.4-6.351 9.542-10.89 16.509-12.379a23.5 23.5 0 0 1 3.286-.469" style="fill:url(#r)"/><linearGradient id="s" x1="-2875.474" x2="-2522.396" y1="718.557" y2="1096.461" gradientTransform="matrix(-1 0 0 1 321.039 0)" gradientUnits="userSpaceOnUse"><stop offset="0" style="stop-color:#ff928e"/><stop offset="1" style="stop-color:#fe7062"/></linearGradient><path d="m3209.797 651.79-22.602.1-20.553 144.379 23.781 5.447z" style="fill:url(#s)"/><linearGradient id="t" x1="-1637.211" x2="-1945.08" y1="686.841" y2="817.97" gradientTransform="matrix(-1 .0045 .0045 1 461.671 -152.249)" gradientUnits="userSpaceOnUse"><stop offset="0" style="stop-color:#09005d"/><stop offset="1" style="stop-color:#1a0f91"/></linearGradient><path d="M2839.044 826.958c-.033-7.435-6.087-13.437-13.522-13.403l-.856.004c-7.435.033-13.436 6.087-13.403 13.522l.039 8.794c.033 7.435 6.087 13.436 13.522 13.403l.856-.004c7.435-.033 13.436-6.087 13.403-13.522z" style="fill:url(#t)"/><linearGradient id="u" x1="-1632.126" x2="-1939.998" y1="702.677" y2="833.808" gradientTransform="matrix(-1 .0045 .0045 1 461.671 -152.249)" gradientUnits="userSpaceOnUse"><stop offset="0" style="stop-color:#09005d"/><stop offset="1" style="stop-color:#1a0f91"/></linearGradient><path d="M2787.432 823.217c-.033-7.435-6.087-13.436-13.522-13.403l-.856.004c-7.436.033-13.436 6.087-13.404 13.522l.039 8.794c.033 7.435 6.087 13.436 13.522 13.403l.856-.004c7.435-.033 13.436-6.087 13.403-13.522z" style="fill:url(#u)"/><linearGradient id="v" x1="-1627.048" x2="-1934.921" y1="710.578" y2="841.709" gradientTransform="matrix(-1 .0045 .0045 1 461.671 -152.249)" gradientUnits="userSpaceOnUse"><stop offset="0" style="stop-color:#09005d"/><stop offset="1" style="stop-color:#1a0f91"/></linearGradient><path d="M2735.785 811.538c-.033-7.436-6.087-13.437-13.522-13.404l-.856.004c-7.435.033-13.436 6.087-13.403 13.522l.039 8.794c.033 7.435 6.087 13.436 13.522 13.403l.856-.004c7.435-.033 13.436-6.087 13.403-13.522z" style="fill:url(#v)"/><linearGradient id="w" x1="-1625.938" x2="-1933.811" y1="722.448" y2="853.579" gradientTransform="matrix(-1 .0045 .0045 1 461.671 -152.249)" gradientUnits="userSpaceOnUse"><stop offset="0" style="stop-color:#09005d"/><stop offset="1" style="stop-color:#1a0f91"/></linearGradient><path d="M2688.124 803.811c-.033-7.435-6.087-13.437-13.522-13.404l-.856.004c-7.435.033-13.436 6.087-13.404 13.522l.039 8.794c.032 7.435 6.087 13.436 13.522 13.403l.856-.004c7.435-.033 13.436-6.087 13.404-13.523z" style="fill:url(#w)"/><linearGradient id="x" x1="-1616.893" x2="-1924.765" y1="734.318" y2="865.449" gradientTransform="matrix(-1 .0045 .0045 1 461.671 -152.249)" gradientUnits="userSpaceOnUse"><stop offset="0" style="stop-color:#09005d"/><stop offset="1" style="stop-color:#1a0f91"/></linearGradient><path d="M2632.526 796.118c-.033-7.435-6.087-13.436-13.522-13.404l-.856.004c-7.435.033-13.436 6.087-13.404 13.522l.039 8.794c.033 7.435 6.087 13.436 13.522 13.403l.856-.004c7.436-.033 13.437-6.087 13.404-13.523z" style="fill:url(#x)"/><linearGradient id="y" x1="-1611.814" x2="-1919.687" y1="746.188" y2="877.319" gradientTransform="matrix(-1 .0045 .0045 1 461.671 -152.249)" gradientUnits="userSpaceOnUse"><stop offset="0" style="stop-color:#09005d"/><stop offset="1" style="stop-color:#1a0f91"/></linearGradient><path d="M2580.896 788.408c-.033-7.435-6.087-13.436-13.522-13.403l-.856.004c-7.436.033-13.436 6.087-13.404 13.522l.039 8.793c.033 7.435 6.087 13.437 13.522 13.403l.856-.004c7.435-.033 13.436-6.087 13.404-13.522z" style="fill:url(#y)"/><linearGradient id="z" x1="-1606.74" x2="-1914.611" y1="754.091" y2="885.221" gradientTransform="matrix(-1 .0045 .0045 1 461.671 -152.249)" gradientUnits="userSpaceOnUse"><stop offset="0" style="stop-color:#09005d"/><stop offset="1" style="stop-color:#1a0f91"/></linearGradient><path d="M2529.249 776.729c-.033-7.435-6.087-13.436-13.522-13.403l-.856.004c-7.435.033-13.436 6.087-13.403 13.522l.039 8.793c.033 7.436 6.087 13.437 13.522 13.404l.856-.004c7.435-.033 13.436-6.087 13.403-13.522z" style="fill:url(#z)"/><linearGradient id="A" x1="-1605.628" x2="-1913.501" y1="769.929" y2="901.06" gradientTransform="matrix(-1 .0045 .0045 1 461.671 -152.249)" gradientUnits="userSpaceOnUse"><stop offset="0" style="stop-color:#09005d"/><stop offset="1" style="stop-color:#1a0f91"/></linearGradient><path d="M2481.606 772.97c-.033-7.435-6.087-13.436-13.522-13.403l-.856.004c-7.436.033-13.437 6.087-13.403 13.522l.039 8.793c.033 7.435 6.087 13.437 13.522 13.404l.856-.004c7.435-.033 13.436-6.087 13.403-13.522z" style="fill:url(#A)"/><linearGradient id="B" x1="-1600.551" x2="-1908.423" y1="781.799" y2="912.93" gradientTransform="matrix(-1 .0045 .0045 1 461.671 -152.249)" gradientUnits="userSpaceOnUse"><stop offset="0" style="stop-color:#09005d"/><stop offset="1" style="stop-color:#1a0f91"/></linearGradient><path d="M2429.976 765.26c-.033-7.435-6.087-13.437-13.522-13.404l-.856.004c-7.435.033-13.436 6.087-13.403 13.522l.039 8.794c.033 7.435 6.087 13.436 13.522 13.403l.856-.004c7.435-.033 13.436-6.087 13.403-13.522z" style="fill:url(#B)"/><linearGradient id="C" x1="-1595.473" x2="-1903.346" y1="789.7" y2="920.831" gradientTransform="matrix(-1 .0045 .0045 1 461.671 -152.249)" gradientUnits="userSpaceOnUse"><stop offset="0" style="stop-color:#09005d"/><stop offset="1" style="stop-color:#1a0f91"/></linearGradient><path d="M2378.329 753.581c-.033-7.436-6.087-13.437-13.522-13.403l-.856.004c-7.435.033-13.436 6.087-13.403 13.522l.039 8.793c.033 7.435 6.087 13.436 13.522 13.403l.856-.004c7.436-.033 13.437-6.087 13.404-13.522z" style="fill:url(#C)"/><linearGradient id="D" x1="-1594.364" x2="-1902.234" y1="805.54" y2="936.669" gradientTransform="matrix(-1 .0045 .0045 1 461.671 -152.249)" gradientUnits="userSpaceOnUse"><stop offset="0" style="stop-color:#09005d"/><stop offset="1" style="stop-color:#1a0f91"/></linearGradient><path d="M2330.686 749.822c-.033-7.435-6.087-13.436-13.522-13.403l-.856.004c-7.435.033-13.436 6.087-13.403 13.522l.038 8.793c.033 7.435 6.087 13.436 13.522 13.403l.856-.004c7.435-.033 13.436-6.087 13.403-13.522z" style="fill:url(#D)"/><linearGradient id="E" x1="2285.64" x2="2239.859" y1="357.407" y2="520.185" gradientUnits="userSpaceOnUse"><stop offset="0" style="stop-color:#09005d"/><stop offset="1" style="stop-color:#1a0f91"/></linearGradient><path d="m2154.08 696.137 90.637 24.739c6.807 1.865 11.33 8.32 10.735 15.353-.708 8.359-1.927 17.808-3.795 17.018-3.303-1.398-145.377-36.819-145.377-36.819z" style="fill:url(#E)"/><linearGradient id="F" x1="1573.829" x2="739.484" y1="1422.6" y2="3772.86" gradientUnits="userSpaceOnUse"><stop offset="0" style="stop-color:#febbba"/><stop offset="1" style="stop-color:#ff928e"/></linearGradient><path d="M1567.739 1666.512c-.073-4.484-2.257-8.753-6.057-11.838s-8.895-4.723-14.126-4.543l-397.495 13.653c-6.823.234-12.165 5.112-12.003 10.96l20.178 727.953 401.925-4.201c5.152-.054 10.068-1.861 13.664-5.023s5.577-7.418 5.505-11.832z" style="fill:url(#F)"/><g style="opacity:.37"><path d="m1246.515 1779.971-58.734-.016-2.923-72.731h59.111zM1338.042 1779.777l-55.875-.022-2.318-72.531h56.232zM1431.604 1779.579l-58.1-.018-1.735-72.337h58.468zM1524.653 1779.382l-57.782-.019-1.143-72.139h58.146zM1250.661 1898.288l-58.12.324-2.862-71.093 58.489-.205zM1341.236 1897.783l-55.294.308-2.27-70.9 55.644-.195zM1433.829 1897.267l-57.498.321-1.7-70.716 57.86-.202zM1525.92 1896.754l-57.187.319-1.119-70.526 57.544-.201zM1254.723 2013.913l-57.519.516-2.804-69.642 57.881-.401zM1344.365 2013.111l-54.725.49-2.224-69.458 55.068-.381zM1436.009 2012.29l-56.91.51-1.665-69.28 57.264-.397zM1527.162 2011.474l-56.605.506-1.097-69.097 56.955-.394zM1258.703 2127.202l-56.93.699-2.747-68.235 57.283-.589zM1347.431 2126.113l-54.168.665-2.179-68.059 54.504-.56zM1438.146 2125l-56.333.691-1.632-67.887 56.68-.583zM1528.379 2123.892l-56.035.688-1.074-67.712 56.377-.58zM1262.603 2238.224l-56.353.875-2.693-66.87 56.7-.77zM1350.436 2236.86l-53.622.833-2.136-66.701 53.951-.732zM1440.24 2235.466l-55.768.866-1.599-66.536 56.107-.762zM1529.572 2234.08l-55.476.861-1.053-66.369 55.811-.757zM1266.426 2347.046l-55.788 1.044-2.639-65.546 56.128-.942zM1353.381 2345.419l-53.086.994-2.093-65.384 53.408-.896zM1442.293 2343.756l-55.215 1.033-1.568-65.226 55.548-.933zM1530.741 2342.101l-54.927 1.028-1.033-65.065 55.257-.928z" style="fill:#fff"/></g><linearGradient id="G" x1="2149.999" x2="1304.236" y1="3041.9" y2="1708.747" gradientUnits="userSpaceOnUse"><stop offset="0" style="stop-color:#ff928e"/><stop offset="1" style="stop-color:#fe7062"/></linearGradient><path d="M1997.284 1857.015c-.1-8.22-2.502-16.039-6.669-21.707s-9.748-8.711-15.497-8.449l-465.199 21.246c-11.841.541-21.14 14.679-20.788 31.605l22.954 1101.196c.348 16.711 9.986 29.953 21.682 29.79l458.933-2.037c5.726-.08 8.108-7.723 12.102-13.588s6.184-13.767 6.084-21.951z" style="fill:url(#G)"/><g style="opacity:.45"><path d="m1568.788 1954.022-.726-27.549 151.318-9.676.677 27.613zM1570.823 2031.202l-.724-27.497 151.18-9.498.676 27.56zM1572.855 2108.24l-.723-27.446 151.044-9.321.674 27.509zM1574.883 2185.131l-.722-27.394 150.907-9.143.674 27.457zM1576.907 2261.882l-.72-27.344 150.771-8.968.671 27.406zM1580.944 2414.954l-.717-27.242 150.498-8.618.67 27.304zM1586.972 2643.497l-.714-27.091 150.092-8.097.666 27.152zM1578.927 2338.489l-.718-27.293 150.634-8.792.671 27.356zM1582.957 2491.276l-.716-27.191 150.363-8.443.668 27.254zM1584.966 2567.456l-.715-27.141 150.228-8.269.667 27.203zM1588.974 2719.396l-.713-27.041 149.958-7.923.664 27.102zM1590.972 2795.155l-.711-26.99 149.822-7.754.663 27.052zM1592.966 2870.773l-.71-26.941 149.688-7.58.662 27.001zM1594.957 2946.251l-.709-26.891 149.554-7.41.661 26.952zM1766.151 1941.479l-.662-27.631 152.186-9.732.612 27.696zM1768.007 2018.893l-.66-27.58 152.047-9.554.611 27.644zM1769.86 2096.16l-.658-27.528 151.907-9.374.61 27.592zM1771.71 2173.285l-.658-27.477 151.77-9.198.609 27.54zM1773.556 2250.263l-.656-27.425 151.631-9.018.608 27.488zM1777.238 2403.792l-.654-27.323 151.356-8.666.606 27.386zM1782.736 2633.014l-.651-27.171 150.946-8.142.601 27.233zM1775.399 2327.098l-.656-27.374 151.495-8.842.606 27.437zM1779.074 2480.341l-.653-27.273 151.219-8.49.605 27.335zM1780.907 2556.749l-.652-27.222 151.082-8.317.603 27.283zM1784.561 2709.138l-.649-27.12 150.808-7.97.602 27.181zM1786.384 2785.12l-.649-27.07 150.673-7.796.6 27.132zM1788.203 2860.961l-.648-27.021 150.537-7.623.599 27.082zM1790.018 2936.663l-.646-26.97 150.401-7.453.597 27.03z" style="fill:#fff"/></g><linearGradient id="H" x1="1156.264" x2="308.801" y1="1620.754" y2="3164.03" gradientUnits="userSpaceOnUse"><stop offset="0" style="stop-color:#febbba"/><stop offset="1" style="stop-color:#ff928e"/></linearGradient><path d="M952.7 1874.928c-.098-8.056-2.452-15.718-6.536-21.273s-9.553-8.537-15.188-8.28l-455.902 20.822c-11.604.53-20.718 14.386-20.372 30.974l22.495 1079.188c.341 16.377 9.786 29.354 21.249 29.195l449.761-1.996c5.612-.078 7.946-7.568 11.86-13.316s6.06-13.492 5.962-21.512z" style="fill:url(#H)"/><g style="opacity:.45"><path d="m517.593 1961.918-.711-26.998 148.294-9.482.663 27.06zM519.588 2037.555l-.71-26.947 148.159-9.308.663 27.009zM521.579 2113.053l-.709-26.897 148.026-9.134.661 26.959zM523.567 2188.409l-.708-26.847 147.891-8.961.66 26.909zM525.55 2263.626l-.706-26.798 147.758-8.789.658 26.858zM529.507 2413.638l-.703-26.697 147.49-8.447.656 26.759zM535.414 2637.614l-.699-26.55 147.092-7.935.652 26.609zM527.53 2338.701l-.704-26.747 147.624-8.616.657 26.808zM531.48 2488.435l-.702-26.648 147.357-8.274.655 26.709zM533.449 2563.092l-.701-26.598 147.225-8.104.653 26.66zM537.376 2711.995l-.698-26.5 146.96-7.765.651 26.56zM539.334 2786.241l-.697-26.451 146.828-7.599.65 26.511zM541.288 2860.347l-.695-26.402 146.696-7.429.649 26.462zM543.24 2934.317l-.695-26.354 146.565-7.261.647 26.413zM711.012 1949.626l-.649-27.079 149.144-9.537.6 27.142zM712.831 2025.493l-.647-27.029 149.008-9.363.599 27.091zM714.647 2101.215l-.645-26.978 148.871-9.186.598 27.041zM716.46 2176.799l-.645-26.928 148.737-9.014.596 26.99zM718.269 2252.239l-.643-26.877 148.601-8.839.596 26.939zM721.878 2402.699l-.641-26.777 148.331-8.493.593 26.839zM727.265 2627.34l-.637-26.628 147.928-7.979.59 26.688zM720.076 2327.538l-.643-26.827 148.466-8.665.595 26.889zM723.677 2477.718l-.64-26.728 148.197-8.32.592 26.789zM725.473 2552.599l-.639-26.677 148.062-8.151.592 26.738zM729.055 2701.943l-.637-26.578 147.795-7.811.589 26.638zM730.84 2776.406l-.635-26.529 147.661-7.64.588 26.589zM732.623 2850.731l-.635-26.48 147.528-7.471.587 26.54zM734.402 2924.92l-.633-26.431 147.395-7.304.586 26.49z" style="fill:#fff"/></g><linearGradient id="I" x1="701.489" x2="1255.927" y1="3273.144" y2="2011.672" gradientUnits="userSpaceOnUse"><stop offset="0" style="stop-color:#ff928e"/><stop offset="1" style="stop-color:#fe7062"/></linearGradient><path d="M1260.167 1996.24c-.088-7.211-2.195-14.069-5.85-19.041s-8.551-7.641-13.594-7.411l-408.07 18.637c-10.387.475-18.544 12.877-18.235 27.724l20.135 965.963c.305 14.659 8.759 26.275 19.02 26.132l402.574-1.787c5.023-.07 7.112-6.774 10.615-11.919s5.425-12.077 5.337-19.255z" style="fill:url(#I)"/><g style="opacity:.45"><path d="m884.292 2081.334-.636-24.165 132.735-8.487.594 24.221zM886.078 2149.036l-.635-24.12 132.614-8.331.593 24.175zM887.86 2216.613l-.634-24.075 132.495-8.176.591 24.131zM889.639 2284.063l-.633-24.031 132.375-8.02.59 24.086zM891.415 2351.388l-.632-23.986 132.255-7.867.589 24.041zM894.956 2485.662l-.63-23.897 132.017-7.56.587 23.951zM900.243 2686.138l-.626-23.763 131.66-7.103.584 23.817zM893.187 2418.587l-.63-23.941 132.135-7.712.588 23.996zM896.722 2552.611l-.629-23.852 131.898-7.405.586 23.906zM898.484 2619.436l-.627-23.808 131.778-7.253.585 23.862zM901.999 2752.716l-.624-23.72 131.541-6.95.583 23.774zM903.752 2819.172l-.624-23.676 131.424-6.801.581 23.729zM905.502 2885.504l-.623-23.633 131.305-6.649.581 23.685zM907.248 2951.712l-.622-23.588 131.188-6.5.579 23.642zM1057.418 2070.332l-.58-24.238 133.496-8.536.537 24.294zM1059.047 2138.239l-.58-24.192 133.375-8.381.536 24.249zM1060.672 2206.017l-.578-24.147 133.253-8.223.535 24.204zM1062.295 2273.671l-.577-24.103 133.131-8.068.534 24.158zM1063.914 2341.196l-.576-24.058 133.01-7.91.534 24.112zM1067.144 2475.87l-.574-23.967 132.769-7.602.531 24.023zM1071.966 2676.942l-.57-23.834 132.408-7.142.528 23.889zM1065.531 2408.595l-.576-24.012 132.89-7.757.532 24.068zM1068.755 2543.019l-.574-23.924 132.649-7.447.53 23.978zM1070.362 2610.044l-.572-23.879 132.528-7.296.53 23.933zM1073.568 2743.719l-.57-23.79 132.289-6.992.527 23.844zM1075.166 2810.37l-.569-23.747 132.17-6.838.526 23.8zM1076.762 2876.897l-.568-23.703 132.05-6.687.525 23.756zM1078.355 2943.302l-.567-23.658 131.93-6.538.525 23.711z" style="fill:#fff"/></g><path d="M1188.596 3022.552c-60.802 9.557-135.084-59.38-156.915-132.232-22.466-74.972 25.628-103.995 29.519-206.575 4.42-116.528-55.459-136.599-89.037-295.308-7.576-35.808-51.417-243.025 15.05-278.769 61.456-33.05 225.71 75.921 249.829 207.679 17.198 93.95-49.515 130.331-29.149 239.768 17.87 96.024 75.141 99.777 93.301 192.458 22.108 112.833-32.764 260.431-112.598 272.979" style="fill:#bdd0fb"/><path d="M1183.046 3050.598c21.46-124.857-2.223-319.835-25.87-461.417-25.601-153.286-56.669-278.74-56.98-279.99l-5.08 1.264c.311 1.248 31.337 126.536 56.904 279.626 23.576 141.169 47.201 335.505 25.866 459.632z" style="fill:#7d97f4"/><linearGradient id="J" x1="1811.68" x2="1540.381" y1="2359.726" y2="2522.505" gradientUnits="userSpaceOnUse"><stop offset="0" style="stop-color:#e1473d"/><stop offset="1" style="stop-color:#e9605a"/></linearGradient><path d="M1635.876 2168.61c-.124-5.919-5.572-10.682-12.249-10.682H1218.66c-6.766 0-13.953 4.91-13.953 10.91v838.05c0 4.479 2.861 8.773 6.437 11.935s8.85 4.933 13.901 4.92l409.403-.991c5.095-.013 10.076-1.837 13.64-5.066s5.569-7.602 5.474-12.118z" style="fill:url(#J)"/><g style="opacity:.45"><path d="m1403.309 2217.319-132.474-.407.049-14.697 132.326.371zM1403.672 2271.454l-133.019-.538.05-14.818 132.87.502zM1404.039 2326.037l-133.569-.672.05-14.941 133.418.635zM1404.407 2381.073l-134.122-.808.051-15.064 133.971.77zM1404.78 2436.568l-134.681-.947.052-15.189 134.527.908zM1405.534 2548.956l-135.811-1.23.051-15.446 135.656 1.19zM1406.689 2721.124l-137.543-1.673.053-15.841 137.384 1.632zM1405.155 2492.526l-135.243-1.086.052-15.318 135.089 1.049zM1405.916 2605.861l-136.384-1.375.052-15.576 136.227 1.336zM1406.301 2663.249l-136.961-1.523.052-15.708 136.803 1.482zM1407.081 2779.495l-138.131-1.826.054-15.977 137.969 1.784zM1407.476 2838.366l-138.724-1.981.055-16.114 138.56 1.939zM1407.874 2897.746l-139.32-2.139.054-16.252 139.157 2.095zM1408.276 2957.639l-139.923-2.299.055-16.394 139.758 2.256zM1576.993 2217.852l-133.306-.409-.144-14.744 133.156.374zM1578.074 2272.16l-133.857-.542-.145-14.865 133.706.505zM1579.165 2326.918l-134.414-.676-.146-14.989 134.26.639zM1580.264 2382.133l-134.974-.813-.148-15.114 134.82.776zM1581.372 2437.809l-135.539-.953-.149-15.239 135.384.914zM1583.618 2550.568l-136.685-1.238-.152-15.497 136.527 1.199zM1587.057 2723.318l-138.439-1.684-.156-15.895 138.278 1.642zM1582.49 2493.952l-136.11-1.094-.15-15.368 135.953 1.055zM1584.754 2607.665l-137.264-1.384-.153-15.628 137.106 1.344zM1585.901 2665.246l-137.85-1.534-.154-15.76 137.689 1.492zM1588.223 2781.889l-139.034-1.838-.157-16.031 138.871 1.795zM1589.399 2840.963l-139.634-1.994-.158-16.168 139.47 1.95zM1590.586 2900.551l-140.24-2.153-.159-16.309 140.073 2.109zM1591.782 2960.654l-140.85-2.314-.161-16.451 140.683 2.27z" style="fill:#fff"/></g><linearGradient id="K" x1="2411.109" x2="2381.718" y1="1654.158" y2="1936.761" gradientUnits="userSpaceOnUse"><stop offset="0" style="stop-color:#a22b25"/><stop offset="1" style="stop-color:#c0423c"/></linearGradient><path d="M2179.419 2153.99c26.207-18.059 74.38 32.226 74.38 32.226s126.214 6.921 164.806-6.983c38.591-13.904 32.628-165.752 32.628-165.752s122.389-60.939 109.342 135.264c-11.321 170.246-303.1 70.917-303.1 70.917s-73.229 11.141-92.732-1.895c-19.505-13.036-11.53-45.717 14.676-63.777" style="fill:url(#K)"/><linearGradient id="L" x1="937.977" x2="1377.945" y1="1882.096" y2="2033.81" gradientTransform="scale(-1 1)rotate(6.269 -2040.184 -29581.352)" gradientUnits="userSpaceOnUse"><stop offset="0" style="stop-color:#f9b776"/><stop offset="1" style="stop-color:#f47960"/></linearGradient><path d="M2246.069 2179.677s-12.478-32.644-39.887-37.415c-27.41-4.771-26.563.382-21.943 7.344 4.619 6.961 52.768 46.487 61.83 30.071" style="fill:url(#L)"/><linearGradient id="M" x1="2878.324" x2="2566.331" y1="1779.849" y2="2037.582" gradientUnits="userSpaceOnUse"><stop offset="0" style="stop-color:#ff928e"/><stop offset="1" style="stop-color:#fe7062"/></linearGradient><path d="M2418.604 2179.234c38.592-13.905 7.894-174.772 7.894-174.772s142.167-52.187 134.077 144.283c-3.732 90.608-102.54 107.604-179.5 99.722-3.842-25.636-2.676-37.179-11.412-61.807 5.707-1.029 44.907-5.973 48.941-7.426" style="fill:url(#M)"/><linearGradient id="N" x1="1295.429" x2="1563.449" y1="2028.759" y2="2256.323" gradientTransform="scale(-1 1)rotate(6.269 -2040.184 -29581.352)" gradientUnits="userSpaceOnUse"><stop offset="0" style="stop-color:#f9b776"/><stop offset="1" style="stop-color:#f47960"/></linearGradient><path d="M2183.25 2154.988s30.74-5.306 32.409 14.268 6.611 46.96-9.925 49.993c-16.535 3.033-47.033 9.542-52.256-15.558s25.921-57.436 29.772-48.703" style="fill:url(#N)"/><linearGradient id="O" x1="1984.939" x2="1754.336" y1="2555.075" y2="2990.848" gradientUnits="userSpaceOnUse"><stop offset="0" style="stop-color:#4f52ff"/><stop offset="1" style="stop-color:#4042e2"/></linearGradient><path d="m2139.058 2399.055-346.682 75.707 22.399 331.592c.166 2.463 2.452 4.11 4.658 3.357l321.406-109.674c3.319-1.132 5.57-4.421 5.57-8.135v-286.454c0-4.131-3.555-7.222-7.351-6.393" style="fill:url(#O)"/><path d="m1746.674 2791.964 63.115 17.826c2.501.706 4.951-1.303 4.951-4.061v-329.06c0-2.816-1.965-5.192-4.586-5.546l-64.375-8.691c-4.328-.584-8.139 3.049-8.075 7.698l4.34 315.516c.04 2.974 1.933 5.556 4.63 6.318" style="fill:#7d97f4"/><path d="m1744.329 2459.756 346.484-80.583 46.284 15.216c2.487.818 2.322 4.627-.225 5.198l-322.133 72.156-70.307-9.492c-1.323-.179-1.407-2.191-.103-2.495" style="fill:#7d97f4"/><linearGradient id="P" x1="2282.7" x2="2180.963" y1="1705.209" y2="1919.986" gradientUnits="userSpaceOnUse"><stop offset="0" style="stop-color:#4f52ff"/><stop offset="1" style="stop-color:#4042e2"/></linearGradient><path d="M1771.833 2802.668a3.39 3.39 0 0 1-3.391-3.391v-332.545a3.39 3.39 0 0 1 2.613-3.302l338.126-79.876a3.405 3.405 0 0 1 4.08 2.523 3.39 3.39 0 0 1-2.523 4.08l-335.513 79.257v329.863a3.39 3.39 0 0 1-3.392 3.391" style="fill:url(#P)"/><linearGradient id="Q" x1="-23.577" x2="-222.651" y1="2185.42" y2="2497.693" gradientTransform="scale(-1 1)rotate(2.126 -1238.231 -45829.742)" gradientUnits="userSpaceOnUse"><stop offset="0" style="stop-color:#09005d"/><stop offset="1" style="stop-color:#1a0f91"/></linearGradient><path d="m2001.019 2409.901-1.336-38.315c-.135-3.874-3.393-6.766-6.992-6.208l-100.12 15.53c-3.398.527-5.723 3.932-5.149 7.54l7.09 44.551c.513 3.225 3.189 5.545 6.256 5.424 3.169-.125 5.722-2.812 5.881-6.187l1.71-36.342c.15-3.197 2.457-5.805 5.443-6.153l63.035-7.345c3.308-.385 6.297 2.119 6.729 5.635l2.843 23.198c.426 3.476 3.355 5.97 6.63 5.646l2.435-.241c3.231-.321 5.665-3.276 5.545-6.733" style="fill:url(#Q)"/><linearGradient id="R" x1="-119.288" x2="-607.845" y1="2960.907" y2="3344.523" gradientTransform="matrix(-1 0 0 1 1805.626 0)" gradientUnits="userSpaceOnUse"><stop offset="0" style="stop-color:#09005d"/><stop offset="1" style="stop-color:#1a0f91"/></linearGradient><path d="M2256.479 3170.442c-1.215 4.421.21 6.795-3.967 7.674-32.007 6.731-95.184.551-116.542-2.241-4.713-.616-8.157-4.974-8.235-9.894 52.316 5.954 106.244 6.471 128.744 4.461" style="fill:url(#R)"/><linearGradient id="S" x1="-57.403" x2="-505.368" y1="3078.221" y2="3429.965" gradientTransform="matrix(-1 0 0 1 1805.626 0)" gradientUnits="userSpaceOnUse"><stop offset="0" style="stop-color:#09005d"/><stop offset="1" style="stop-color:#1a0f91"/></linearGradient><path d="M2009.605 3168.053c30.125-.844 45.706-4.391 53.761-7.684.019 2.995.002 6.043-.095 9.202-.104 3.373-2.603 6.068-5.676 6.048l-165.402-1.067c-5.279-.035-8.363-6.156-6.076-10.996 21.686 1.791 76.921 5.8 123.488 4.497" style="fill:url(#S)"/><linearGradient id="T" x1="1978.201" x2="1973.679" y1="3061.632" y2="3192.759" gradientUnits="userSpaceOnUse"><stop offset="0" style="stop-color:#4f52ff"/><stop offset="1" style="stop-color:#4042e2"/></linearGradient><path d="M1886.771 3162.309c13.717-19.166 47.363-56.169 112.284-75.207l57.883 20.663-.207-.073c3.424 12.878 6.505 30.55 6.635 52.678-8.055 3.292-23.636 6.84-53.761 7.684-46.567 1.302-101.802-2.706-123.489-4.498.2-.421.371-.851.655-1.247" style="fill:url(#T)"/><linearGradient id="U" x1="2195.64" x2="2191.119" y1="3069.129" y2="3200.257" gradientUnits="userSpaceOnUse"><stop offset="0" style="stop-color:#4f52ff"/><stop offset="1" style="stop-color:#4042e2"/></linearGradient><path d="M2128.017 3163.198c9.296-36.854 64.09-68.387 64.09-68.387l55.013 7.866c6.219 29.974 11.274 57.702 9.359 67.765-.07.371-8.184-.32-8.282.04-22.5 2.01-68.146 1.542-120.462-4.412-.016-.918.046-1.935.282-2.872" style="fill:url(#U)"/><linearGradient id="V" x1="-2665.735" x2="-3031.86" y1="2224.854" y2="2558.121" gradientTransform="matrix(-1 0 0 1 -345.317 0)" gradientUnits="userSpaceOnUse"><stop offset="0" style="stop-color:#a22b25"/><stop offset="1" style="stop-color:#c0423c"/></linearGradient><path d="M2352.448 2151.065c14.591 16.175 41.211 34.647 56.478 43.503-23.579 28.046-62.81 61.848-104.612 88.985l-12.313 26.285-36.992-46.077c.001.001 71.112-42.705 97.439-112.696" style="fill:url(#V)"/><linearGradient id="W" x1="-409.441" x2="-436.998" y1="2973.063" y2="3213.561" gradientTransform="matrix(-1 0 0 1 1805.626 0)" gradientUnits="userSpaceOnUse"><stop offset="0" style="stop-color:#f9b776"/><stop offset="1" style="stop-color:#f47960"/></linearGradient><path d="m2248.962 3035.481-11.552 65.485c-.846 4.798-3.978 8.391-7.771 8.811-4.642.513-11.251.814-17.897-.336-5.96-1.031-10.11-8.163-9.053-15.816l8.03-58.145z" style="fill:url(#W)"/><linearGradient id="X" x1="2481.534" x2="2357.189" y1="2143.716" y2="2340.407" gradientUnits="userSpaceOnUse"><stop offset="0" style="stop-color:#09005d"/><stop offset="1" style="stop-color:#1a0f91"/></linearGradient><path d="M2064.093 2197.663s-69.652 449.464-68.114 890.374c.028 8.039 17.977 22.796 24.822 25.722 14.944 6.39 20.089 5.097 33.105 4.702 6.948-.211 9.45-2.904 10.619-10.33 11.927-75.809 77.958-515.398 116.956-584.732 0 0 19.343 378.931 3.59 575.81-.882 11.025 20.476 20.452 24.978 21.016 6.829.856 16.672 4.631 30.575 3.031 5.277-.607 9.535-4.931 10.289-10.625 8.496-64.16 57.394-446.061 55.316-721.168-.118-15.514-8.261-193.799-8.261-193.799h-233.875z" style="fill:url(#X)"/><linearGradient id="Y" x1="2222.794" x2="2480.527" y1="2459.385" y2="2050.177" gradientUnits="userSpaceOnUse"><stop offset="0" style="stop-color:#09005d"/><stop offset="1" style="stop-color:#1a0f91"/></linearGradient><path d="M2187.023 2501.51a3.2 3.2 0 0 0 3.1-2.403c7.054-27.207 59.876-57.105 60.408-57.404a3.206 3.206 0 0 0 1.228-4.366 3.203 3.203 0 0 0-4.366-1.228c-2.271 1.273-55.741 31.542-63.478 61.389a3.208 3.208 0 0 0 3.108 4.012" style="fill:url(#Y)"/><linearGradient id="Z" x1="-1244.445" x2="-1279.708" y1="2358.447" y2="2892.102" gradientTransform="matrix(-1 0 0 1 1037.857 0)" gradientUnits="userSpaceOnUse"><stop offset="0" style="stop-color:#09005d"/><stop offset="1" style="stop-color:#1a0f91"/></linearGradient><path d="m2300.455 2304.548 1.135-1.348c-25.418-21.397-41.307-43.271-48.576-66.87l-1.686.518c7.372 23.934 23.441 46.079 49.127 67.7" style="fill:url(#Z)"/><linearGradient id="aa" x1="-2303.778" x2="-3064.357" y1="2076.328" y2="2545.946" gradientTransform="matrix(-1 0 0 1 -345.317 0)" gradientUnits="userSpaceOnUse"><stop offset="0" style="stop-color:#4f52ff"/><stop offset="1" style="stop-color:#4042e2"/></linearGradient><path d="m2052.129 1814.015-7.032 210.749c-33.304 52.815-71.161 203.805-89.711 325.446l-51.351 12.659c0-261.676 53.356-521.834 148.094-548.854" style="fill:url(#aa)"/><linearGradient id="ab" x1="2978.245" x2="3064.066" y1="-1311.129" y2="-1319.583" gradientTransform="matrix(.3461 .9382 -.8368 .3087 -202.84 -47.871)" gradientUnits="userSpaceOnUse"><stop offset="0" style="stop-color:#a22b25"/><stop offset="1" style="stop-color:#c0423c"/></linearGradient><path d="m1904.922 2365.972 45.06-25.338c7.088-3.985 16.234-1.006 20.773 6.835 7.105 12.272 16.077 29.384 15.587 36.795-.739 11.17-87.334 19.051-87.628-7.819-.05-4.562 2.6-8.445 6.208-10.473" style="fill:url(#ab)"/><linearGradient id="ac" x1="-959.117" x2="-1687.485" y1="2006.901" y2="2456.631" gradientTransform="matrix(-1 0 0 1 1037.857 0)" gradientUnits="userSpaceOnUse"><stop offset="0" style="stop-color:#4f52ff"/><stop offset="1" style="stop-color:#4042e2"/></linearGradient><path d="M2015.57 1884.146c13.255-15.986-15.249-27.324 1.845-50.902 100.594-69.741 249.349-30.671 307.016-22.298 18.909 2.746 36.067 12.417 48.284 27.108 48.451 58.257 154.181 217.248 23.259 372.97-16.199-9.396-39.189-24.41-54.671-41.573 14.907-39.632 17.029-90.599-11.453-153.683a147 147 0 0 1-4.066 14.619c-43.33 128.751-9.197 375.52-10.987 400.301-3.189 44.138-305.893 32.551-301.482-18.111 10.828-124.35 4.985-525.559 2.255-528.431" style="fill:url(#ac)"/><path d="M2347.361 2018.77c23.122-63.278 14.735-139.689 14.646-140.453l-6.371.728c.084.751 8.294 75.695-14.302 137.523z" style="fill:#7d97f4"/><linearGradient id="ad" x1="-2530.453" x2="-2555.506" y1="1846.726" y2="1561.12" gradientTransform="matrix(-1 0 0 1 -345.317 0)" gradientUnits="userSpaceOnUse"><stop offset="0" style="stop-color:#a22b25"/><stop offset="1" style="stop-color:#c0423c"/></linearGradient><path d="m2232.523 1699.92 11.057 112.962s-63.548 19.141-109.768-13.471l32.491-102.666z" style="fill:url(#ad)"/><linearGradient id="ae" x1="2589.738" x2="2530.955" y1="-9307.789" y2="-9169.874" gradientTransform="scale(-1 1)rotate(6.316 -945.66 1281.695)" gradientUnits="userSpaceOnUse"><stop offset="0" style="stop-color:#a22b25"/><stop offset="1" style="stop-color:#c0423c"/></linearGradient><path d="M2153.291 1595.381s-19.635 63.398-17.889 95.339-2.815 53.298 34.599 55.628 66.313-19.379 79.564-52.855c0 0 20.854-51.632 12.758-70.936-8.097-19.303-109.032-27.176-109.032-27.176" style="fill:url(#ae)"/><linearGradient id="af" x1="-2212.573" x2="-2071.53" y1="1688.194" y2="1869.787" gradientTransform="scale(-1 1)rotate(6.316 -945.66 1281.695)" gradientUnits="userSpaceOnUse"><stop offset="0" style="stop-color:#09005d"/><stop offset="1" style="stop-color:#1a0f91"/></linearGradient><path d="m2234.505 1672.145-2.192-.69c-2.79-.878-4.278-3.919-3.228-6.648 4.069-10.574 11.623-34.609-2.004-38.512-17.562-5.031-85.61-11.236-102.581-33.259-16.311-21.166-7.327-51.813 10.126-62.18 1.168-.693 2.666-.411 3.429.712l1.852 2.728c1.268 1.868 4.164 1.243 4.549-.981.37-2.135 3.077-2.841 4.42-1.141 5.196 6.576 18.378 16.71 50.892 19.064 46.208 3.345 78.176 18.357 82.385 49.566.267 1.983 2.504 2.854 4.088 1.631 3.118-2.408 8.363-3.956 16.179 1.265 13.594 9.081 11.507 36.77-13.286 62.101-1.178 1.203-.944 3.224.56 3.981 5.299 2.67 13.514 9.51-4.448 21.829-18.578 12.741-33.42 13.507-39.201 13.198a2.5 2.5 0 0 1-2.347-2.776l3.016-28.174a2.508 2.508 0 0 0-2.771-2.761z" style="fill:url(#af)"/><linearGradient id="ag" x1="2547.405" x2="2488.621" y1="-9325.916" y2="-9188" gradientTransform="scale(-1 1)rotate(6.316 -945.66 1281.695)" gradientUnits="userSpaceOnUse"><stop offset="0" style="stop-color:#a22b25"/><stop offset="1" style="stop-color:#c0423c"/></linearGradient><path d="M2234.008 1678.074s5.768-39.748 24.29-30.832-4.198 44.285-17.964 47.273z" style="fill:url(#ag)"/><linearGradient id="ah" x1="1346.049" x2="657.384" y1="1745.054" y2="2506.411" gradientTransform="matrix(-1 0 0 1 3708.86 0)" gradientUnits="userSpaceOnUse"><stop offset="0" style="stop-color:#09005d"/><stop offset="1" style="stop-color:#1a0f91"/></linearGradient><path d="M2519.95 1961.919c8.103 6.323 103.733 13.958 174.616 29.222 51.414 11.071 86.062 59.295 80.139 111.554l-8.474 74.775c-1.059 9.341-10.927 14.927-19.481 11.027l-200.758-91.534z" style="fill:url(#ah)"/><linearGradient id="ai" x1="2901.458" x2="3116.052" y1="2009.922" y2="1848.977" gradientUnits="userSpaceOnUse"><stop offset="0" style="stop-color:#09005d"/><stop offset="1" style="stop-color:#1a0f91"/></linearGradient><path d="M2532.819 2422.107h199.705c8.448 0 15.297-6.848 15.297-15.297v-387.071c0-12.508-10.139-22.647-22.647-22.647H2532.82v425.015z" style="fill:url(#ai)"/><linearGradient id="aj" x1="-3361.184" x2="-3240.85" y1="3502.345" y2="2095.941" gradientTransform="translate(5849.591)" gradientUnits="userSpaceOnUse"><stop offset="0" style="stop-color:#a22b25"/><stop offset="1" style="stop-color:#c0423c"/></linearGradient><path d="m2502.123 2694.515-7.321 43.064s24.516 248.326 28.876 347.656c.685 15.573-3.345 30.963-11.518 44.236l-42.63 69.226 108.342-63.931 2.156-13.221-17.735-24.385 23.23-278.187a85.35 85.35 0 0 0-9.713-47.208l-22.409-42.099z" style="fill:url(#aj)"/><linearGradient id="ak" x1="2953.13" x2="2831.052" y1="2107.397" y2="2259.995" gradientUnits="userSpaceOnUse"><stop offset="0" style="stop-color:#4f52ff"/><stop offset="1" style="stop-color:#4042e2"/></linearGradient><path d="M2431.1 2281.103c-25.016 46.606 2.43 178.731 62.429 449.363l27.716 312.211c17.591 14.432 35.93 19.453 55.056 14.589 17.992-155.741 24.459-268.078-17.667-332.545l-10.017-259-38.181-177.795z" style="fill:url(#ak)"/><linearGradient id="al" x1="1289.11" x2="1043.318" y1="2765.032" y2="3763.56" gradientTransform="matrix(-1 0 0 1 3708.86 0)" gradientUnits="userSpaceOnUse"><stop offset="0" style="stop-color:#09005d"/><stop offset="1" style="stop-color:#1a0f91"/></linearGradient><path d="M2570.149 3107.961s47.744 49.214 11.462 60.366-130.209 48.509-135.954 30.37c-7.171-22.644 75.645-90.736 75.645-90.736 14.227 7.389 39.172 8.503 48.847 0" style="fill:url(#al)"/><linearGradient id="am" x1="-2850.474" x2="-2730.139" y1="3248.395" y2="1841.975" gradientTransform="rotate(-21.736 565.742 -11394.275)" gradientUnits="userSpaceOnUse"><stop offset="0" style="stop-color:#a22b25"/><stop offset="1" style="stop-color:#c0423c"/></linearGradient><path d="m2528.691 2716.696 9.146 42.714s114.725 221.597 155.556 312.251c6.402 14.213 8.358 30.001 5.68 45.357l-13.966 80.09 76.968-99.504-5.679-10.219-22.718-18.946-81.43-267.014a85.34 85.34 0 0 0-26.503-40.256l-36.405-30.809z" style="fill:url(#am)"/><linearGradient id="an" x1="2951.756" x2="3765.608" y1="2811.068" y2="3197.647" gradientUnits="userSpaceOnUse"><stop offset="0" style="stop-color:#4f52ff"/><stop offset="1" style="stop-color:#4042e2"/></linearGradient><path d="M2728.666 3019.257c-12.124 23.188-32.678 28.774-55.495 29.639l-141.899-297.322-19.05-313.89-16.928-175.321 98.915 8.715c100.007 58.453 41.175 270.989-.586 462.909 69.131 22.867 99.069 156.101 135.043 285.27" style="fill:url(#an)"/><linearGradient id="ao" x1="-452.315" x2="-698.108" y1="1710.795" y2="2709.325" gradientTransform="scale(-1 1)rotate(-19.335 1408.942 8984.041)" gradientUnits="userSpaceOnUse"><stop offset="0" style="stop-color:#09005d"/><stop offset="1" style="stop-color:#1a0f91"/></linearGradient><path d="M2737.248 3067.766s50.127 27.168 23.242 62.338-72.49 101.588-93.241 77.823 37.467-94.706 31.501-119.494c31.511-10.652 38.498-20.667 38.498-20.667" style="fill:url(#ao)"/><linearGradient id="ap" x1="15157.907" x2="14845.913" y1="-12747.991" y2="-12490.257" gradientTransform="matrix(-1 0 0 1 -345.317 0)" gradientUnits="userSpaceOnUse"><stop offset="0" style="stop-color:#ff928e"/><stop offset="1" style="stop-color:#fe7062"/></linearGradient><path d="M2559.785 2268.568c-37.047-156.987 41.128-274.263 41.128-274.263-44.586-42.797-113.822-45.628-145.317-44.413-10.866.419-21.258 4.391-29.703 11.24-25.045 20.313-76.466 68.265-67.163 113.137 7.159 34.531 72.37 206.835 72.37 206.835s60.299 28.537 128.685-12.536" style="fill:url(#ap)"/><linearGradient id="aq" x1="2457.407" x2="2497.664" y1="1838.856" y2="2026.139" gradientUnits="userSpaceOnUse"><stop offset="0" style="stop-color:#c4421b"/><stop offset="1" style="stop-color:#5c0e16"/></linearGradient><path d="m2489.794 1836.338 30.156 125.581c2.884 11.917-7.932 15.633-20.063 17.411-28.515 4.179-50.105-6.616-53.664-26.734-.311-1.76-1.297-3.329-1.541-5.1l-12.941-93.817a16.86 16.86 0 0 1 9.866-17.713l24.971-11.073c9.615-4.263 20.743 1.223 23.216 11.445" style="fill:url(#aq)"/><linearGradient id="ar" x1="4105.34" x2="3793.347" y1="60.273" y2="318.007" gradientTransform="translate(1107.188)" gradientUnits="userSpaceOnUse"><stop offset="0" style="stop-color:#ff928e"/><stop offset="1" style="stop-color:#fe7062"/></linearGradient><path d="M2742.373 2335.764c42.057-179.533-141.459-341.459-141.459-341.459-43.748 10.02-54.957 38.849-43.18 80.963 86.361 80.963 118.746 172.721 125.379 249.916 11.702-3.41 39.881-8.794 59.26 10.58" style="fill:url(#ar)"/><linearGradient id="as" x1="1412.089" x2="1327.072" y1="2399.602" y2="2563.097" gradientTransform="translate(1271.888)" gradientUnits="userSpaceOnUse"><stop offset="0" style="stop-color:#a22b25"/><stop offset="1" style="stop-color:#c0423c"/></linearGradient><path d="M2683.112 2325.183c8.202 33.886 7.34 59.168 6.092 71.239-.446 4.313-2.607 7.832-7.171 8.04-2.119.096-4.289-.217-6.334.346s-3.982 2.415-3.664 4.512c.151.997.778 1.861 1.01 2.842.456 1.931-.734 3.935-2.335 5.106-1.602 1.171-3.56 1.715-5.428 2.383-7.413 2.647-15.214 7.46-22.207 11.07-2.049 1.058-2.406 3.851-2.066 6.132 3.021 20.253 31.377 18.327 44.947 11.314 8.284-4.281 15.801-11.164 20.879-19.01 20.833-32.189 31.602-63.666 35.538-93.394-19.379-19.373-47.558-13.989-59.261-10.58" style="fill:url(#as)"/><linearGradient id="at" x1="2884.15" x2="2789.196" y1="1572.055" y2="1745.008" gradientUnits="userSpaceOnUse"><stop offset="0" style="stop-color:#09005d"/><stop offset="1" style="stop-color:#1a0f91"/></linearGradient><path d="M2582.985 1977.754c-67.934 104.175 13.153 308.053 34.37 316.126-93.13-18.741-127.837-188.785-75.924-333.462 15.244-1.147 30.836 3.939 41.554 17.336" style="fill:url(#at)"/><linearGradient id="au" x1="15328.487" x2="15016.495" y1="-12541.53" y2="-12283.797" gradientTransform="matrix(-1 0 0 1 -345.317 0)" gradientUnits="userSpaceOnUse"><stop offset="0" style="stop-color:#ff928e"/><stop offset="1" style="stop-color:#fe7062"/></linearGradient><path d="M2561.725 2234.562c110.21 56.192 122.513 265.779 129.909 449.534-90.606 23.037-180.556 56.887-275.371 10.419l-10.685-487.058z" style="fill:url(#au)"/><linearGradient id="av" x1="2369.296" x2="2595.742" y1="1747.736" y2="1950.553" gradientUnits="userSpaceOnUse"><stop offset="0" style="stop-color:#c4421b"/><stop offset="1" style="stop-color:#5c0e16"/></linearGradient><path d="M2410.611 1747.09s-61.292 126.857-.146 148.542c71.961 25.521 105.718-69.536 105.718-69.536s-47.65-191.684-105.572-79.006" style="fill:url(#av)"/><linearGradient id="aw" x1="2094.889" x2="2428.804" y1="2600.772" y2="2600.772" gradientTransform="rotate(23.808 4171.698 2844.471)" gradientUnits="userSpaceOnUse"><stop offset="0" style="stop-color:#2b3582"/><stop offset="1" style="stop-color:#150e42"/></linearGradient><path d="M2391.643 1734.382c-3.958 10.521 4.819 21.434 15.959 19.923 11.214-1.522 24.934-2.563 36.595-1.036 78.743 10.316 43.255 58.812 42.506 67.021-1.54 16.792 17.304-7.229 17.728-1.48.924 12.504-12.104 48.991-12.104 48.991-19.857 87.311 15.956 156.401 57.396 165.824 39.019 8.874 83.158-35.128 102.392-66.949 6.955-11.503 28.66-47.414 15.754-78.763-8.717-21.172-24.543-19.185-42.006-39.383-36.085-41.733.136-86.465-30.193-127.335-29.047-39.145-91.706-37.77-118.703-37.178-26.971.591-47.682 6.983-64.052 19.129-7.423 5.507-16.222 17.812-21.272 31.236" style="fill:url(#aw)"/><linearGradient id="ax" x1="2387.483" x2="2613.93" y1="1727.431" y2="1930.249" gradientUnits="userSpaceOnUse"><stop offset="0" style="stop-color:#c4421b"/><stop offset="1" style="stop-color:#5c0e16"/></linearGradient><path d="M2492.852 1832.239s8.977-30.226 24.834-22.564-16.075 39.925-26.901 45.143z" style="fill:url(#ax)"/><linearGradient id="ay" x1="22282.787" x2="21932.361" y1="-9785.006" y2="-9617.705" gradientTransform="matrix(-1 0 0 1 -610.91 0)" gradientUnits="userSpaceOnUse"><stop offset="0" style="stop-color:#ff928e"/><stop offset="1" style="stop-color:#fe7062"/></linearGradient><path d="M3099.809 2518.789h57.655c27.209 0 50.751 18.937 56.583 45.514l34.127 155.544c8.476 38.631-23.395 74.208-62.721 70.017l-32.216-3.433a57.93 57.93 0 0 1-47.802-36.479l-59.567-152.111c-14.878-37.994 13.138-79.052 53.941-79.052" style="fill:url(#ay)"/><linearGradient id="az" x1="236.532" x2="203.397" y1="3088.919" y2="3180.432" gradientTransform="matrix(-1 0 0 1 3413.717 0)" gradientUnits="userSpaceOnUse"><stop offset="0" style="stop-color:#4f52ff"/><stop offset="1" style="stop-color:#4042e2"/></linearGradient><path d="M3228.61 3103.665s18.934 9.467 4.734 23.667-37.868 23.667-71.002 33.134 14.2-33.134 33.134-37.868c18.933-4.733 33.134-18.933 33.134-18.933" style="fill:url(#az)"/><linearGradient id="aA" x1="180.548" x2="355.513" y1="2957.513" y2="2957.513" gradientTransform="matrix(-1 0 0 1 3413.717 0)" gradientUnits="userSpaceOnUse"><stop offset="0" style="stop-color:#09005d"/><stop offset="1" style="stop-color:#1a0f91"/></linearGradient><path d="M3124.473 2800.723s113.003 238.023 108.569 305.984c0 0-13.9 11.159-32.834 6.425 0 0-118.337-231.94-142.004-250.874z" style="fill:url(#aA)"/><linearGradient id="aB" x1="449.522" x2="394.298" y1="3102.341" y2="3233.301" gradientTransform="matrix(-1 0 0 1 3413.717 0)" gradientUnits="userSpaceOnUse"><stop offset="0" style="stop-color:#4f52ff"/><stop offset="1" style="stop-color:#4042e2"/></linearGradient><path d="M3029.804 3136.799s0 18.934-9.467 23.667-89.936-14.2-94.669-28.401c-4.734-14.2 94.669.001 104.136 4.734" style="fill:url(#aB)"/><linearGradient id="aC" x1="284.511" x2="407.581" y1="2959.294" y2="2959.294" gradientTransform="matrix(-1 0 0 1 3413.717 0)" gradientUnits="userSpaceOnUse"><stop offset="0" style="stop-color:#09005d"/><stop offset="1" style="stop-color:#1a0f91"/></linearGradient><path d="M3129.207 2777.056c0 4.733-33.134 246.14-89.936 364.477 0 0-18.934 0-33.134-14.2 0 0 33.134-269.808 33.134-331.343z" style="fill:url(#aC)"/><linearGradient id="aD" x1="573.967" x2="245.78" y1="2443.123" y2="3031.65" gradientTransform="matrix(-1 0 0 1 3413.717 0)" gradientUnits="userSpaceOnUse"><stop offset="0" style="stop-color:#4f52ff"/><stop offset="1" style="stop-color:#4042e2"/></linearGradient><path d="M2745.796 2412.579s156.204 85.202 231.94 94.669c0 0 4.733 75.736-28.401 108.87 0 0-165.671-104.136-213.006-175.138z" style="fill:url(#aD)"/><linearGradient id="aE" x1="666.787" x2="724.23" y1="2410.737" y2="2410.737" gradientTransform="matrix(-1 0 0 1 3413.717 0)" gradientUnits="userSpaceOnUse"><stop offset="0" style="stop-color:#a22b25"/><stop offset="1" style="stop-color:#c0423c"/></linearGradient><path d="M2739.225 2438.05s16.038-30.204 1.838-34.938c-14.2-4.733-37.868-23.667-47.335-18.934s-6.572 49.138 45.497 53.872" style="fill:url(#aE)"/><linearGradient id="aF" x1="532.833" x2="182.188" y1="2412.367" y2="3041.169" gradientTransform="matrix(-1 0 0 1 3413.717 0)" gradientUnits="userSpaceOnUse"><stop offset="0" style="stop-color:#4f52ff"/><stop offset="1" style="stop-color:#4042e2"/></linearGradient><path d="M3105.54 2526.182s-126.036-17.679-160.054-27.774c0 0-15.084 41.974-19.818 70.375-4.524 27.143 104.136 122.822 92.475 377.164-1.198 26.131 184.565 6.956 185.928-16.956 1.714-30.057-5.644-138.96-8.595-156.669-14.201-85.202-89.936-246.14-89.936-246.14" style="fill:url(#aF)"/><linearGradient id="aG" x1="3038.356" x2="3141.789" y1="2465.008" y2="2188.623" gradientUnits="userSpaceOnUse"><stop offset="0" style="stop-color:#a22b25"/><stop offset="1" style="stop-color:#c0423c"/></linearGradient><path d="m3044.004 2436.246 26.466 75.617c3.629 10.368-3.952 21.225-14.936 21.402-12.292.198-28.567-1.314-45.426-7.941-5.392-2.119-9.114-7.142-9.833-12.892l-8.34-66.72z" style="fill:url(#aG)"/><linearGradient id="aH" x1="-662.53" x2="-729.948" y1="1993.706" y2="1864.877" gradientTransform="scale(-1 1)rotate(-25.696 -896.508 7331.202)" gradientUnits="userSpaceOnUse"><stop offset="0" style="stop-color:#09005d"/><stop offset="1" style="stop-color:#1a0f91"/></linearGradient><path d="M2949.353 2393.388c.222-3.092 1.063-6.224 2.893-9.11 2.841-4.48 3.609-9.908 3.19-15.197-.498-6.294.683-14.688 7.917-22.015 1.584-1.604 2.845-3.487 3.909-5.475 6.321-11.809 30.415-48.543 73.692-20.411 4.549 2.957 9.983 4.303 15.392 3.876 13.65-1.078 40.934 1.99 53.591 40.156 1.277 3.85 3.424 7.319 6.195 10.282 3.9 4.17 8.633 12.26 5.259 25.27-.435 1.675-.748 3.381-.8 5.111-.404 13.533-5.685 76.883-69.728 53.045a28 28 0 0 1-2.351-1.007l-84.58-40.667c-9.132-4.392-15.304-13.752-14.579-23.858" style="fill-rule:evenodd;clip-rule:evenodd;fill:url(#aH)"/><linearGradient id="aI" x1="3235.828" x2="3205.307" y1="-4914.389" y2="-4856.738" gradientTransform="scale(-1 1)rotate(-19.908 -1015.483 9436.122)" gradientUnits="userSpaceOnUse"><stop offset="0" style="stop-color:#a22b25"/><stop offset="1" style="stop-color:#c0423c"/></linearGradient><path d="M2978.088 2366.126s-61.679 92.939 2.048 121.408c60.146 26.868 85.488-34.847 85.488-34.847s26.448-27.402 17.564-48.499c-8.883-21.096-90.066-49.609-105.1-38.062" style="fill-rule:evenodd;clip-rule:evenodd;fill:url(#aI)"/><linearGradient id="aJ" x1="-493.326" x2="-557.63" y1="2162.012" y2="2039.133" gradientTransform="scale(-1 1)rotate(-19.908 -1015.483 9436.122)" gradientUnits="userSpaceOnUse"><stop offset="0" style="stop-color:#09005d"/><stop offset="1" style="stop-color:#1a0f91"/></linearGradient><path d="M3071.639 2438.05s-60.367-19.109-55.205-54.761c0 0-10.458 1.044-13.666-11.273 0 0-29.625 26.65-37.432 8.014 0 0 5.187-46.144 41.38-31.19s69.251 30.162 78.94 40.807 17.732 36.408-14.017 48.403" style="fill-rule:evenodd;clip-rule:evenodd;fill:url(#aJ)"/><linearGradient id="aK" x1="3190.793" x2="3160.272" y1="-4938.224" y2="-4880.572" gradientTransform="scale(-1 1)rotate(-19.908 -1015.483 9436.122)" gradientUnits="userSpaceOnUse"><stop offset="0" style="stop-color:#a22b25"/><stop offset="1" style="stop-color:#c0423c"/></linearGradient><path d="m3057.708 2460.984 10.723-29.48s20.722-9.521 17.992 6.516c-2.727 16.039-21.348 24.897-28.715 22.964" style="fill-rule:evenodd;clip-rule:evenodd;fill:url(#aK)"/><linearGradient id="aL" x1="3326.74" x2="3265.698" y1="2613.9" y2="2722.419" gradientUnits="userSpaceOnUse"><stop offset="0" style="stop-color:#a22b25"/><stop offset="1" style="stop-color:#c0423c"/></linearGradient><path d="M3219.143 2786.523s18.934 47.335 4.733 66.269-37.868 0-37.868 0l9.467-18.934v-42.601c0-4.734 23.668-4.734 23.668-4.734" style="fill:url(#aL)"/><linearGradient id="aM" x1="3176.58" x2="3359.706" y1="2635.214" y2="2359.395" gradientUnits="userSpaceOnUse"><stop offset="0" style="stop-color:#4f52ff"/><stop offset="1" style="stop-color:#4042e2"/></linearGradient><path d="M3115.006 2539.665s99.403 56.48 104.136 246.457c0 0-4.734 5.134-23.667 5.134 0 0-42.601-128.363-94.669-189.977-27.14-32.116-9.467-71.883 14.2-61.614" style="fill:url(#aM)"/><linearGradient id="aN" x1="22279.342" x2="21928.914" y1="-9792.212" y2="-9624.912" gradientTransform="matrix(-1 0 0 1 -610.91 0)" gradientUnits="userSpaceOnUse"><stop offset="0" style="stop-color:#ff928e"/><stop offset="1" style="stop-color:#fe7062"/></linearGradient><path d="M3110.432 2536.78c-10.311 53.964 26.395 129.052 68.374 209.497-68.003-78.299-126.161-152.057-106.616-229.914 32 5.208 42.644 13.443 38.242 20.417" style="fill:url(#aN)"/><linearGradient id="aO" x1="22298.211" x2="21947.785" y1="-9752.671" y2="-9585.37" gradientTransform="matrix(-1 0 0 1 -610.91 0)" gradientUnits="userSpaceOnUse"><stop offset="0" style="stop-color:#ff928e"/><stop offset="1" style="stop-color:#fe7062"/></linearGradient><path d="M2985.517 2508.436c-2.238 56.605 15.603 130.343 0 195.886.183 12.373-12.215 4.769-12.11-2.519 1.378-65.814-21.343-156.102-23.433-203.089q17.773-4.861 35.543 9.722" style="fill:url(#aO)"/><linearGradient id="aP" x1="-3666.381" x2="-3600.459" y1="2502.129" y2="2502.129" gradientTransform="scale(-1 1)rotate(1.805 2780.559 23596.57)" gradientUnits="userSpaceOnUse"><stop offset="0" style="stop-color:#09005d"/><stop offset="1" style="stop-color:#1a0f91"/></linearGradient><path d="M2992.795 2318.873s20.811-28.731-17.658-46.913c-36.142-17.081-52.125 19.542-37.469 37.809 1.039 1.295.586 3.229-.926 3.913-2.59 1.171-4.366 4.379 1.95 13.025.544.744.63 1.729.245 2.567-2.729 5.926-11.097 29.121 27.937 24.102a2.6 2.6 0 0 0 1.759-1.048z" style="fill-rule:evenodd;clip-rule:evenodd;fill:url(#aP)"/><linearGradient id="aQ" x1="-3852.596" x2="-3769.87" y1="2569.624" y2="2569.624" gradientTransform="scale(-1 1)rotate(1.805 2780.559 23596.57)" gradientUnits="userSpaceOnUse"><stop offset="0" style="stop-color:#09005d"/><stop offset="1" style="stop-color:#1a0f91"/></linearGradient><path d="M3104.602 2377.059s-3.834-30.207 9.995-43.258c13.83-13.051 42.92-27.83 62.696 1.698 9.433 14.083 8.948 21.841 5.86 26.104-2.815 3.885-2.167 8.859 1.008 12.48 3.609 4.116 5.187 9.82-1.588 16.74-1.998 2.042-3.078 4.654-3.024 7.341.226 11.198-5.302 39.354-70.147 23.63z" style="fill-rule:evenodd;clip-rule:evenodd;fill:url(#aQ)"/></svg>