<?xml version="1.0" encoding="utf-8"?>
<!-- Generator: Adobe Illustrator 27.5.0, SVG Export Plug-In . SVG Version: 6.00 Build 0)  -->
<svg version="1.1" id="Capa_1" xmlns="http://www.w3.org/2000/svg" xmlns:xlink="http://www.w3.org/1999/xlink" x="0px" y="0px"
	 viewBox="0 0 1898 2372" style="enable-background:new 0 0 1898 2372;" xml:space="preserve">
<g id="Capa_2">
</g>
<path style="fill:#BD7658;" d="M704.541,2023.321h59.491c0.979-8.182,1.883-16.372,2.689-24.571h-65.61
	C702.248,2007.031,703.392,2015.214,704.541,2023.321z"/>
<path style="fill:#F7DB70;" d="M704.067,2023.321c1.007,6.652,2.02,13.273,3.034,19.87c0.96,1.171,1.909,2.272,2.85,3.314l0.56,0.59
	c0.759,0.822,1.515,1.626,2.267,2.369l0.52,0.489c0.769,0.742,1.537,1.465,2.304,2.129l0.401,0.33
	c0.811,0.688,1.622,1.349,2.436,1.957l0.284,0.202c0.859,0.631,1.721,1.228,2.592,1.776l0.169,0.102
	c0.911,0.568,1.83,1.098,2.763,1.583l0.082,0.041c0.963,0.498,1.937,0.957,2.929,1.375l0.018,0.007
	c1.01,0.425,2.037,0.811,3.087,1.161l0,0c7.718,2.572,16.609,3.226,28.398,3.51l0.003,0.005c0.354-3.467,0.755-7,1.279-10.589
	c1.47-10.054,2.783-20.13,3.99-30.218l0.001-0.003h-59.491H704.067z"/>
<path style="fill:#BD7658;" d="M861.84,2023.321h59.492c1.149-8.107,2.293-16.29,3.429-24.571h-65.609
	C859.958,2006.949,860.862,2015.139,861.84,2023.321z"/>
<path style="fill:#F7DB70;" d="M861.843,2023.34c1.193,9.966,2.495,19.92,3.943,29.853l0.046,0.349
	c0.524,3.588,0.927,7.121,1.28,10.588l0.003-0.004c11.789-0.284,20.68-0.938,28.399-3.51c1.046-0.349,2.07-0.734,3.077-1.157
	l0.031-0.013c0.989-0.416,1.96-0.874,2.918-1.37l0.091-0.045c0.93-0.485,1.848-1.014,2.758-1.58l0.171-0.103
	c0.867-0.546,1.726-1.141,2.582-1.769l0.296-0.21c0.814-0.607,1.623-1.266,2.432-1.953l0.403-0.332
	c0.772-0.669,1.545-1.396,2.319-2.144l0.501-0.471c0.756-0.746,1.516-1.555,2.277-2.38l0.553-0.582
	c0.941-1.042,1.89-2.143,2.85-3.314c1.015-6.597,2.027-13.218,3.034-19.87h-0.475H861.84L861.843,2023.34z"/>
<path style="fill:#474491;" d="M619.565,646.442c22.308-45.895,76.391-68.816,117.457-70.979
	c7.613-11.049,12.416-23.891,15.034-36.992c0.597-2.986,1.001-5.997,1.4-9.009c0.384-2.892,0.667-5.797,0.904-8.706
	c0.044-0.558,0.095-1.116,0.133-1.674c0.195-2.668,0.333-5.34,0.428-8.016c0.034-1.093,0.056-2.186,0.075-3.28
	c0.048-2.212,0.091-4.424,0.086-6.637c-0.003-0.659-0.024-1.316-0.031-1.975c-27.571-23.14-48.507-68.56-45.773-113.841v-0.001
	l0,0.001c3.537-17.482,4.451-29.349,11.706-40.423c11.461-17.494,19.35-22.459,35.402-23.683c16.264-1.24,23.25-7.03,34.402-14.392
	c-0.625,19.009,17.433,35.781,33.004,46.702c14.928,10.468,37.289,20.647,45.989,37.514c5.161-6.191,11.701-9.614,18.317-8.702
	c12.817,1.765,21.026,19.041,18.334,38.586c-2.692,19.545-15.265,33.958-28.083,32.192c-1.527-0.21-2.983-0.655-4.369-1.283
	c-0.459,1.674-0.974,3.348-1.496,5.017c-8.911,14.224-19.955,26.549-31.54,36.15l-0.071,0.682l0,0.003
	c-0.387,3.576-0.719,7.19-0.981,10.821c-1.671,23.193-0.18,47.18,12.195,67.588c1.014,1.672,2.096,3.309,3.186,4.939l0.001-0.001
	c0,0,49.365,3.952,90.648,23.838c35.837,14.726,73.885,60.231,102.838,95.332c3.981-28.306,2.667-58.34-4.893-89.226
	c-6.576-26.87-17.472-52.876-32.675-76.023c-13.39-20.387-34.22-36.243-44.131-58.801c-11.075-25.209-8.782-52.58-10.614-79.451
	c-0.609-8.944-1.676-17.833-3.845-26.568c-5.37-21.627-17.703-46.561-33.209-66.8c-17.189-29.37-44.175-48.472-78.3-56.887
	c-33.308-8.212-64.414-4.785-92.317,15.501c-29.347,21.336-42.093,44.267-50.654,81.97c-1.484,6.532-1.75,13.373-0.838,19.987
	c-2.13,2.584-4.177,5.261-6.098,8.068c-25.764,37.633-30.808,86.75-25.199,131.015c2.845,22.446,7.338,47.52-5.9,65.861
	c-6.572,9.105-16.58,14.96-25.857,21.281c-69.836,47.581-86.525,126.359-73.174,195.274c1.97,10.17,5.242,20.304,9.772,30.025
	c2.145-10.02,4.265-20.044,6.256-30.092C585.881,736.933,596.721,694.379,619.565,646.442z"/>
<path style="fill:#F7DB70;" d="M1271.522,601.257c-6.121-4.572-12.986-8.769-20.282-10.592c-3.091-0.773-6.25-1.163-9.475-0.905
	c-9.001,0.721-16.969,5.986-23.951,11.71c-43.598,35.747-64.333,93.561-107.525,129.798c-5.098,4.277-10.803,8.357-17.406,9.179
	c-7.17,0.89-23.299-18.984-44.125-44.233c-28.952-35.101-67.001-80.606-102.838-95.332c-41.283-19.886-90.648-23.838-90.648-23.838
	l-0.001,0.001c-67.372,104.046-118.202-1.585-118.202-1.585l-0.048,0.004c-41.066,2.163-95.148,25.084-117.457,70.979
	c-22.844,47.937-33.685,90.491-42.484,134.904c-1.99,10.048-4.11,20.073-6.256,30.092c-8.075,37.729-16.627,75.361-21.118,113.669
	c-7.013,59.829-10.156,202.008,4.563,260.421c0.195,0.769,0.394,1.542,0.6,2.316c2.803,10.524,6.861,21.28,15.617,27.589
	c0.669,0.483,1.389,0.849,2.089,1.265c9.526,5.659,21.67,5.392,32.827,4.065c7.07-0.841,14.521-2.208,20.203-6.275
	c0.963-0.689,1.889-1.434,2.738-2.291c5.14-5.182,7.049-12.677,8.481-19.834c3.917-19.58,5.651-120.438,7.169-140.349
	c4.039-52.981,4.975-58.86,10.932-93.412c3.303-19.166,5.283-53.122,10.485-78.522c0.78-3.808,1.628-7.434,2.569-10.778
	c-6.465-32.953-9.739-54.196-9.745-71.622c-0.006-12.554,1.73-23.115,5.152-34.359c3.422-11.251,8.492-23.186,15.198-38.8h0.001
	c0.607-1.415,2.248-2.069,3.663-1.461c1.414,0.608,2.069,2.248,1.461,3.663c-6.706,15.605-11.698,27.398-14.986,38.221
	c-3.286,10.83-4.906,20.689-4.912,32.737c-0.006,16.799,3.216,37.901,9.745,71.081c0.187,0.953-0.173,1.853-0.816,2.488
	c0.306,2.911,0.61,6.168,0.911,9.738c3.184,37.745,6.132,109.143,9.609,148.191l14.993-0.225c0.3-1.17,1.299-2.067,2.567-2.109
	c42.511-1.384,85.31-2.078,128.108-2.078c29.773,0,59.545,0.335,89.224,1.006c1.539,0.035,2.759,1.312,2.724,2.851l-0.084,0.369
	l13.169,0.203c0,0,0.113,0.426,0.306,1.164l12.124-178.237l2.069-30.421c7.006,4.742,14.248,9.188,21.638,13.391
	c15.439,8.782,31.47,16.455,47.304,22.844c21.79,8.794,45.535,14.294,69.14,12.482c23.761-1.824,42.937-16.24,60.533-31.47
	c34.778-30.1,66.167-64.105,93.45-101.132c13.798-18.726,26.551-38.226,38.154-58.386c8.348-14.505,18.755-33.272,14.471-50.567
	c-1.176-4.746-3.451-9.018-6.343-12.923C1282.647,610.315,1277.164,605.471,1271.522,601.257z M942.744,816.524
	c-1.09,1.088-2.856,1.087-3.944-0.004c-26.844-26.916-38.218-63.236-46.221-98.092c-0.345-1.501,0.593-2.998,2.094-3.342
	c1.501-0.344,2.997,0.594,3.342,2.095c3.727,16.28,8.209,32.678,14.549,48.159c-1.823-11.638-2.848-23.393-2.848-35.161
	c0-16.703,1.836-33.401,5.522-49.702c0.339-1.503,1.832-2.445,3.335-2.106c1.502,0.34,2.444,1.833,2.105,3.336
	c-3.593,15.89-5.385,32.178-5.385,48.472c0,18.631,2.349,37.27,7.026,55.337c5.592,9.771,12.275,18.906,20.427,27.064h0.001
	C943.836,813.67,943.834,815.436,942.744,816.524z"/>
<path style="fill:#4F58A3;" d="M730.362,2060.615c-9.075,12.82-15.768,23.954-26.853,31.603l0.572,1.186
	c0.489,1.047,0.038,2.292-1.008,2.782c-1.046,0.489-2.292,0.039-2.782-1.008l-0.346-0.719c-2.524,1.446-5.25,2.747-8.286,3.853
	c-0.089,0.684-0.478,1.317-1.149,1.632c-0.839,0.393-1.787,0.161-2.39-0.477l-0.626,0.202c-3.08,0.883-6.252,1.688-9.46,2.423
	c0.356,1.003-0.071,2.128-1.055,2.589c-1.046,0.49-2.292,0.038-2.782-1.008l-0.355-0.684c-3.048,0.612-6.121,1.153-9.208,1.554
	c0.233,0.949-0.185,1.958-1.104,2.388c-1.047,0.49-2.292,0.039-2.782-1.008l-0.465-0.924c-6.545,0.6-13.069,0.644-19.334-0.197
	c-5.657-0.759-10.309-2.668-14.406-5.262c-10.714,4.632-20.646,10.933-24.548,21.397c-0.69,1.848-1.053,3.758-1.283,5.681
	c-0.087,0.723-0.157,1.447-0.193,2.175h168.727c1.771-45.405-10.453-64.615-10.484-64.662l-0.003-0.005
	C746.971,2063.841,738.08,2063.187,730.362,2060.615z"/>
<path style="fill:#4F58A3;" d="M965.59,2104.998l-0.465,0.925c-0.49,1.046-1.736,1.497-2.782,1.007
	c-0.919-0.431-1.335-1.44-1.102-2.388c-3.087-0.401-6.16-0.942-9.209-1.554l-0.356,0.685c-0.49,1.046-1.735,1.497-2.782,1.007
	c-0.983-0.461-1.41-1.586-1.053-2.589c-3.208-0.735-6.38-1.54-9.46-2.423l-0.626-0.202c-0.603,0.639-1.551,0.87-2.39,0.477
	c-0.671-0.315-1.06-0.947-1.15-1.632c-3.034-1.105-5.761-2.406-8.285-3.852l-0.347,0.719c-0.49,1.046-1.735,1.497-2.782,1.007
	c-1.046-0.49-1.497-1.735-1.006-2.782l0.571-1.186c-11.083-7.649-17.777-18.784-26.851-31.603c-7.719,2.572-16.61,3.226-28.399,3.51
	l-0.003,0.004c-0.026,0.042-12.254,19.252-10.484,64.663h168.728c-0.036-0.728-0.105-1.452-0.193-2.175
	c-0.23-1.923-0.592-3.833-1.282-5.681c-3.903-10.464-13.835-16.765-24.548-21.397c-4.096,2.593-8.748,4.503-14.406,5.262
	C978.66,2105.642,972.135,2105.599,965.59,2104.998z"/>
<path style="fill:#BD7658;" d="M839.891,504.517l-0.142,0.156c-20.811,34.917-53.411,33.43-86.293,24.792v-0.003
	c-0.399,3.012-0.802,6.024-1.4,9.009c-2.618,13.101-7.421,25.943-15.034,36.992l0.048-0.004c0,0,50.83,105.631,118.202,1.585
	c-1.091-1.63-2.172-3.267-3.186-4.939C839.711,551.697,838.22,527.711,839.891,504.517z"/>
<path style="fill:#90A9D8;" d="M953.673,1107.993c-4.614-21.141-17.298-69.611-19.403-77.631c-0.193-0.738-0.306-1.164-0.306-1.164
	l-13.169-0.203c-0.219,1.352-1.359,2.387-2.767,2.356c-29.636-0.67-59.366-1.005-89.097-1.005c-42.738,0-85.477,0.692-127.926,2.074
	l0.001,0c-1.54,0.05-2.829-1.157-2.879-2.696l0.129-0.77l-14.993,0.225h-0.006c0,0-12.886,55.727-17.925,78.813
	c-47.329,216.88-8.993,890.757-8.993,890.757h119.944l37.046-648.318l29.393,648.318h119.944
	C962.666,1998.75,1001.002,1324.872,953.673,1107.993z"/>
<path style="fill:#BD7658;" d="M1348.29,520.14c-0.985-2.217-0.997-4.52-1.153-6.771c-0.244-3.674-0.405-7.371-1.198-11.082
	c-0.749-3.506-1.913-7.474-4.658-10.499c-1.394-1.528-3.167-2.666-5.12-3.23c-2.301-0.668-4.409-0.244-6.466,0.255
	c-3.748,0.904-6.982,2.732-9.721,5.059c-3.948,3.328-6.929,7.525-9.795,11.749c-0.503,0.739-1.005,1.477-1.503,2.21
	c-6.073,8.961-11.324,18.968-20.048,25.44c-2.048,1.513-5.734,0.05-6.274-2.666c-0.875-4.424,0.708-9.105,2.597-12.957
	c0.844-1.733,1.701-3.551,2.415-5.409c0.906-2.367,1.547-4.817,1.458-7.308c-0.099-2.796-3.618-4.904-6.016-3.651
	c-2.839,1.481-5.17,3.773-7.176,6.175c-5.659,6.801-9.562,14.852-12.348,23.365c-2.613,8.005-4.278,16.413-5.736,24.853
	c-1.481,8.565-2.744,17.2-4.504,25.673c-0.375,1.807-1.034,5.3-1.804,9.315c7.296,1.823,14.161,6.02,20.282,10.592
	c5.641,4.214,11.125,9.058,15.289,14.685c3.616-3.443,7.458-7.89,11.536-13.603c7.448-6.752,14.892-13.515,22.334-20.272
	c1.907-1.731,3.82-3.483,5.72-5.258c12.516-11.731,24.241-24.736,26.861-42.032c0.362-2.424,0.525-5.023-0.563-7.524
	C1351.611,524.751,1349.396,522.631,1348.29,520.14z"/>
<path style="fill:#474491;" d="M671.36,872.037c-1.512,0.297-2.979-0.688-3.275-2.199l-0.103-0.535
	c-0.941,3.343-1.788,6.97-2.569,10.778c2.732,0.379,5.479,0.681,8.241,0.908c-0.301-3.57-0.605-6.828-0.911-9.738
	C672.367,871.623,671.918,871.927,671.36,872.037z"/>
<path style="fill:#474491;" d="M946.394,852.124c8.313-5.249,16.246-10.914,23.708-17.03c-7.391-4.203-14.633-8.65-21.638-13.391
	L946.394,852.124z"/>
<rect x="600.519" y="2128.792" style="fill:#35347E;" width="168.727" height="4.599"/>
<path style="fill:#45428F;" d="M671.784,2092.351c2.418,3.174,4.396,5.689,6.203,9.548l0.047,0.192
	c3.208-0.735,6.38-1.54,9.46-2.423l0.626-0.202l-0.392-0.53c-0.846-1.808-1.259-2.607-1.719-3.315
	c-0.46-0.713-1.083-1.492-2.32-3.113c-2.282-2.998-5.132-5.546-8.432-6.978h0.001c-1.059-0.461-1.545-1.693-1.084-2.752
	c0.46-1.059,1.693-1.545,2.752-1.084c4.149,1.809,7.491,4.87,10.09,8.278c1.203,1.582,1.862,2.39,2.502,3.373
	c0.639,0.986,1.141,1.99,1.997,3.817l0.142,1.15c3.036-1.105,5.762-2.406,8.286-3.853c-1.416-2.974-2.028-4.029-4.241-6.952
	c-2.281-2.998-5.131-5.545-8.431-6.977h0.001c-1.06-0.46-1.545-1.692-1.084-2.752c0.461-1.059,1.693-1.544,2.752-1.084
	c4.149,1.809,7.492,4.87,10.09,8.278c2.172,2.834,3.139,4.458,4.478,7.246c11.085-7.648,17.778-18.783,26.853-31.603l0,0
	c-1.05-0.35-2.077-0.736-3.087-1.161l-0.018-0.007c-0.992-0.418-1.966-0.877-2.929-1.375l-0.082-0.041
	c-0.933-0.485-1.851-1.015-2.763-1.583l-0.169-0.102c-0.87-0.548-1.733-1.145-2.592-1.776l-0.284-0.202
	c-0.814-0.608-1.625-1.269-2.436-1.957l-0.401-0.33c-0.766-0.664-1.534-1.387-2.304-2.129l-0.52-0.489
	c-0.752-0.743-1.508-1.547-2.267-2.369l-0.56-0.59c-0.941-1.042-1.89-2.143-2.85-3.314l-0.002-0.002
	c-0.57,2.219-1.408,4.622-2.444,7.088c-2.07,4.93-4.921,10.111-7.957,14.563c-1.518,2.226-3.082,4.27-4.616,6.01
	c-0.779,0.884-1.607,1.711-2.477,2.489c-4.347,3.887-9.741,6.527-15.323,8.737c-2.232,0.884-4.495,1.699-6.733,2.499
	c-0.954,0.34-1.908,0.681-2.861,1.022l1.299,0.464C669.041,2088.805,669.396,2089.19,671.784,2092.351z"/>
<path style="fill:#45428F;" d="M660.282,2104.998c-1.163-2.427-2.386-4.757-3.921-6.77c-1.013-1.337-1.732-2.489-2.445-3.334
	c-0.721-0.851-1.369-1.421-2.477-1.913h0.001c-0.889-0.386-1.335-1.313-1.196-2.227c-4.393,1.569-8.785,3.136-13.179,4.705
	c-3.463,1.235-7.021,2.567-10.499,4.071l-0.025,0.01h0.001c4.096,2.594,8.748,4.503,14.406,5.262
	C647.213,2105.642,653.738,2105.598,660.282,2104.998z"/>
<path style="fill:#45428F;" d="M659.689,2095.694c2.039,2.679,3.511,5.606,4.848,8.455l0.096,0.393
	c3.087-0.401,6.159-0.942,9.208-1.554c-1.496-3.003-3.101-5.105-5.384-8.103c-2.492-3.246-2.136-2.86-5.276-5.724l0.001,0.001
	c-0.857-0.775-0.923-2.098-0.148-2.954l0.169-0.08c-3.159,1.127-6.32,2.256-9.48,3.385c1.427,0.742,2.57,1.689,3.405,2.7
	C658.1,2093.384,658.816,2094.553,659.689,2095.694z"/>
<path style="fill:#A2C4D4;" d="M688.941,2076.694c-1.059-0.461-2.291,0.024-2.752,1.084c-0.461,1.06,0.025,2.292,1.084,2.752h-0.001
	c3.299,1.432,6.15,3.979,8.431,6.977c2.213,2.923,2.826,3.979,4.241,6.952l0.346,0.719c0.49,1.047,1.735,1.498,2.782,1.008
	c1.046-0.49,1.498-1.735,1.008-2.782l-0.572-1.186c-1.339-2.787-2.306-4.412-4.478-7.246
	C696.432,2081.564,693.09,2078.503,688.941,2076.694z"/>
<path style="fill:#A2C4D4;" d="M689.518,2093.345c-0.64-0.983-1.299-1.792-2.502-3.373c-2.599-3.408-5.941-6.469-10.09-8.278
	c-1.059-0.461-2.292,0.025-2.752,1.084c-0.461,1.059,0.025,2.292,1.084,2.752h-0.001c3.3,1.432,6.15,3.979,8.432,6.978
	c1.237,1.621,1.86,2.4,2.32,3.113c0.46,0.709,0.873,1.508,1.719,3.315l0.392,0.53c0.603,0.638,1.551,0.87,2.39,0.477
	c0.671-0.315,1.06-0.947,1.149-1.632l-0.142-1.15C690.66,2095.335,690.157,2094.331,689.518,2093.345z"/>
<path style="fill:#A2C4D4;" d="M663.181,2089.162L663.181,2089.162c3.139,2.863,2.784,2.478,5.276,5.723
	c2.283,2.997,3.888,5.099,5.384,8.103l0.355,0.684c0.49,1.046,1.735,1.498,2.782,1.008c0.984-0.461,1.411-1.586,1.055-2.589
	l-0.047-0.192c-1.806-3.858-3.785-6.374-6.203-9.548c-2.388-3.16-2.743-3.546-5.796-6.29l-1.299-0.464
	c-0.546-0.031-1.06,0.141-1.487,0.531l-0.169,0.08C662.259,2087.064,662.324,2088.386,663.181,2089.162z"/>
<path style="fill:#A2C4D4;" d="M651.441,2092.981L651.441,2092.981c1.107,0.491,1.755,1.062,2.476,1.913
	c0.712,0.845,1.431,1.998,2.445,3.334c1.535,2.013,2.758,4.344,3.921,6.77l0.465,0.924c0.49,1.046,1.735,1.498,2.782,1.008
	c0.919-0.43,1.337-1.439,1.104-2.388l-0.096-0.393c-1.336-2.849-2.809-5.776-4.848-8.455c-0.873-1.14-1.589-2.31-2.561-3.481
	c-0.836-1.011-1.978-1.958-3.405-2.7l-0.614-0.367c-1.059-0.461-2.292,0.025-2.752,1.084l-0.112,0.525
	C650.106,2091.668,650.552,2092.595,651.441,2092.981z"/>
<rect x="856.626" y="2128.792" style="fill:#35347E;" width="168.728" height="4.599"/>
<path style="fill:#45428F;" d="M915.37,2047.087c-0.761,0.825-1.521,1.634-2.277,2.38l-0.501,0.471
	c-0.774,0.748-1.547,1.475-2.319,2.144l-0.403,0.332c-0.809,0.687-1.618,1.346-2.432,1.953l-0.296,0.21
	c-0.856,0.628-1.715,1.223-2.582,1.769l-0.171,0.103c-0.91,0.567-1.828,1.095-2.758,1.58l-0.091,0.045
	c-0.958,0.497-1.929,0.954-2.918,1.37l-0.031,0.013c-1.007,0.423-2.031,0.808-3.077,1.157c9.075,12.819,15.768,23.954,26.851,31.603
	c1.339-2.787,2.307-4.412,4.479-7.246c2.599-3.408,5.94-6.469,10.089-8.278h0.001c1.059-0.461,2.291,0.024,2.752,1.084
	c0.461,1.059-0.025,2.291-1.083,2.752c-3.299,1.432-6.149,3.979-8.431,6.977c-2.212,2.923-2.826,3.979-4.24,6.952
	c2.524,1.446,5.25,2.747,8.285,3.852l0.144-1.15c0.856-1.826,1.358-2.831,1.997-3.816c0.639-0.983,1.299-1.792,2.502-3.373
	c2.599-3.408,5.94-6.469,10.09-8.278h0c1.059-0.461,2.291,0.025,2.752,1.084c0.461,1.059-0.025,2.292-1.083,2.752
	c-3.3,1.432-6.15,3.979-8.431,6.977c-1.237,1.622-1.86,2.401-2.32,3.114c-0.46,0.709-0.873,1.508-1.719,3.315l-0.393,0.53
	l0.626,0.202c3.08,0.883,6.252,1.688,9.46,2.423l0.047-0.193c1.805-3.858,3.783-6.373,6.202-9.547
	c2.388-3.16,2.743-3.545,5.795-6.29h0.001l1.299-0.464c-0.954-0.34-1.907-0.682-2.86-1.021c-2.237-0.8-4.501-1.615-6.733-2.499
	c-5.581-2.21-10.975-4.85-15.323-8.737c-0.87-0.778-1.697-1.605-2.477-2.489c-1.535-1.74-3.099-3.784-4.616-6.01
	c-3.035-4.452-5.886-9.633-7.956-14.563c-1.035-2.466-1.874-4.869-2.444-7.088l-0.002,0.002c-0.96,1.171-1.909,2.272-2.85,3.314
	L915.37,2047.087z"/>
<path style="fill:#45428F;" d="M974.432,2092.981c-1.107,0.491-1.755,1.062-2.476,1.913c-0.712,0.844-1.431,1.998-2.445,3.334
	c-1.535,2.013-2.758,4.344-3.921,6.77c6.546,0.601,13.071,0.644,19.336-0.197c5.657-0.759,10.309-2.669,14.406-5.262l-0.011-0.004
	c-3.482-1.505-7.045-2.839-10.513-4.076c-4.394-1.569-8.787-3.136-13.18-4.706C975.766,2091.667,975.32,2092.594,974.432,2092.981z"
	/>
<path style="fill:#45428F;" d="M962.693,2089.161c-3.139,2.864-2.784,2.478-5.276,5.724c-2.284,2.997-3.887,5.099-5.384,8.103
	c3.048,0.612,6.121,1.153,9.209,1.554l0.096-0.394c1.336-2.848,2.808-5.775,4.847-8.455c0.873-1.139,1.589-2.309,2.561-3.48
	c0.836-1.011,1.978-1.958,3.405-2.701c-3.16-1.129-6.321-2.257-9.481-3.385l0.169,0.08
	C963.614,2087.063,963.549,2088.386,962.693,2089.161z"/>
<path style="fill:#A2C4D4;" d="M922.799,2096.186c1.047,0.49,2.292,0.04,2.782-1.007l0.347-0.719c1.414-2.973,2.028-4.03,4.24-6.952
	c2.282-2.998,5.132-5.545,8.431-6.977c1.059-0.461,1.544-1.693,1.083-2.752c-0.46-1.059-1.692-1.544-2.752-1.084h-0.001
	c-4.149,1.809-7.491,4.87-10.089,8.278c-2.172,2.834-3.14,4.458-4.479,7.246l-0.571,1.186
	C921.303,2094.45,921.753,2095.695,922.799,2096.186z"/>
<path style="fill:#A2C4D4;" d="M935.364,2099.943c0.839,0.393,1.787,0.162,2.39-0.477l0.393-0.53
	c0.846-1.808,1.258-2.607,1.719-3.315c0.46-0.713,1.083-1.492,2.32-3.114c2.281-2.998,5.131-5.545,8.431-6.977
	c1.059-0.461,1.544-1.693,1.083-2.752c-0.46-1.059-1.693-1.544-2.752-1.084h0c-4.15,1.809-7.491,4.87-10.09,8.278
	c-1.203,1.582-1.863,2.39-2.502,3.373c-0.639,0.986-1.141,1.99-1.997,3.816l-0.144,1.15
	C934.304,2098.996,934.693,2099.629,935.364,2099.943z"/>
<path style="fill:#A2C4D4;" d="M959.884,2086.061c-3.053,2.745-3.407,3.13-5.795,6.29c-2.418,3.174-4.396,5.689-6.202,9.547
	l-0.047,0.193c-0.357,1.003,0.07,2.128,1.053,2.589c1.047,0.49,2.292,0.039,2.782-1.007l0.356-0.685
	c1.497-3.004,3.101-5.105,5.384-8.103c2.492-3.246,2.137-2.86,5.276-5.724c0.856-0.775,0.922-2.098,0.146-2.955l-0.169-0.08
	c-0.428-0.389-0.939-0.561-1.485-0.53L959.884,2086.061L959.884,2086.061z"/>
<path style="fill:#A2C4D4;" d="M966.184,2095.693c-2.039,2.68-3.511,5.607-4.847,8.455l-0.096,0.394
	c-0.233,0.948,0.183,1.957,1.102,2.388c1.047,0.49,2.292,0.039,2.782-1.007l0.465-0.925c1.163-2.427,2.386-4.757,3.921-6.77
	c1.014-1.337,1.733-2.49,2.445-3.334c0.721-0.851,1.369-1.421,2.476-1.913c0.888-0.386,1.335-1.313,1.196-2.228l-0.112-0.524
	c-0.461-1.059-1.693-1.544-2.752-1.084h-0.001l-0.613,0.366c-1.427,0.742-2.57,1.69-3.405,2.701
	C967.773,2093.384,967.057,2094.553,966.184,2095.693z"/>
<path style="fill:#BD7658;" d="M888.097,382.349c-6.616-0.911-13.155,2.511-18.317,8.702c-8.7-16.867-31.061-27.046-45.989-37.515
	c-15.571-10.921-33.629-27.693-33.005-46.702c-11.152,7.362-18.138,13.152-34.402,14.392c-16.051,1.224-23.94,6.189-35.402,23.683
	c-7.255,11.074-8.168,22.941-11.705,40.423l0-0.001v0.001c-2.734,45.281,18.202,90.701,45.773,113.841l0.014,0.012
	c11.785,9.887,24.773,15.729,37.656,15.706c14.058-0.025,31.684-8.171,48.223-21.88c11.585-9.602,22.629-21.927,31.54-36.151
	c0.522-1.668,1.037-3.342,1.496-5.016c1.386,0.628,2.842,1.073,4.369,1.283c12.818,1.766,25.391-12.647,28.083-32.192
	C909.124,401.389,900.915,384.114,888.097,382.349z"/>
<polygon style="fill:#BD7658;" points="840.872,493.696 840.872,493.693 840.943,493.011 840.872,493.693 "/>
<path style="fill:#B56244;" d="M839.749,504.673l0.142-0.156c0.262-3.631,0.594-7.245,0.981-10.821l0-0.003l0.071-0.682
	c-16.54,13.709-34.165,21.855-48.223,21.88c-12.883,0.023-25.885-5.831-37.67-15.717c0.006,0.655,0.03,1.32,0.031,1.975
	c0.005,2.213-0.039,4.426-0.086,6.637c-0.019,1.094-0.041,2.187-0.075,3.28c-0.094,2.676-0.233,5.348-0.428,8.016
	c-0.039,0.558-0.09,1.116-0.133,1.674c-0.237,2.909-0.521,5.814-0.904,8.706v0.003C786.338,538.103,818.938,539.59,839.749,504.673z
	"/>
<path style="fill:#BD7658;" d="M572.578,1216.698c-2.156,9.331-4.305,18.669-6.454,28c-0.578,2.511-1.15,5.04-1.697,7.583
	c-3.585,16.775-5.793,34.145,1.923,49.845c1.086,2.197,2.435,4.424,4.756,5.857c2.321,1.433,5.35,1.911,7.678,3.326
	c2.075,1.258,3.399,3.143,4.811,4.902c2.296,2.877,4.538,5.822,7.307,8.417c2.615,2.452,5.836,5.047,9.816,5.964
	c2.018,0.46,4.122,0.383,6.048-0.268c2.271-0.765,3.76-2.315,5.164-3.899c2.563-2.881,4.175-6.228,5.097-9.701
	c1.343-4.985,1.397-10.133,1.34-15.238c-0.009-0.893-0.017-1.786-0.026-2.672c-0.127-10.824-1.523-22.038,1.947-32.332
	c0.818-2.411,4.68-3.313,6.673-1.391c3.243,3.134,4.614,7.882,5.26,12.123c0.296,1.905,0.63,3.887,1.104,5.82
	c0.606,2.462,1.478,4.839,2.971,6.833c1.677,2.24,5.77,1.962,7.024-0.435c1.487-2.836,2.092-6.049,2.37-9.166
	c0.767-8.814-0.621-17.654-3.191-26.234c-2.422-8.065-5.852-15.92-9.471-23.683c-2.465-5.289-4.977-10.564-7.421-15.859
	c-5.681,4.067-13.133,5.435-20.203,6.275C594.248,1222.089,582.104,1222.356,572.578,1216.698z"/>
<path style="fill:#FFFFFF;" d="M803.684,442.933c-4.418,0.295-8.677,1.572-13.046,2.19c-4.501,0.637-9.133,0.598-13.617-0.149
	c-2.852-0.476-5.116-1.73-7.619-3.11c-2.218-1.217-3.65,0.098-3.783,2.299c-0.122,2.066,0.277,4.219,1.225,6.077l0.826,1.349
	c8.364,11.487,33.891,13.494,41.501,0.008C811.887,446.784,808.969,442.58,803.684,442.933z"/>
<path style="fill:#522813;" d="M881.581,399.884L881.581,399.884c0.981-1.204,2.299-1.808,3.69-1.812
	c0.716,0,1.457,0.163,2.19,0.519c3.975,1.949,5.587,5.645,5.618,9.914c0.018,4.661-2.138,9.774-5.232,12.651
	c-0.562,0.528-0.589,1.41-0.061,1.972c0.528,0.561,1.41,0.589,1.972,0.061c3.743-3.545,6.091-9.206,6.109-14.684
	c0.031-4.955-2.082-9.957-7.188-12.423c-1.099-0.533-2.262-0.799-3.408-0.799c-2.228-0.005-4.38,1.013-5.858,2.845
	c-0.485,0.598-0.393,1.477,0.206,1.962C880.218,400.576,881.096,400.483,881.581,399.884z"/>
<polygon style="fill:#522813;" points="872.728,429.917 872.728,429.917 872.727,429.915 "/>
<path style="fill:#522813;" d="M882.528,437.533c2.634,0.001,5.341-0.999,7.594-2.991c0.576-0.51,0.631-1.391,0.121-1.969
	c-0.51-0.577-1.391-0.631-1.968-0.122c-1.774,1.566-3.816,2.291-5.747,2.293c-3.144-0.028-5.99-1.842-7.124-5.615l0-0.002
	c-0.347-1.175-0.51-2.401-0.51-3.652c-0.029-5.706,3.523-11.91,8.061-15.063c0.631-0.442,0.783-1.311,0.341-1.942
	c-0.442-0.631-1.311-0.784-1.941-0.341l-0.001,0c-5.289,3.74-9.219,10.529-9.249,17.346c-0.001,1.493,0.194,2.987,0.623,4.441
	C874.138,434.807,878.239,437.562,882.528,437.533z"/>
<path style="fill:#B56244;" d="M779.631,472.641c2.823,4.303,5.541,7.021,10.384,7.343c4.554,0.302,7.726-2.99,10.384-6.145
	C793.547,475.403,786.256,474.982,779.631,472.641z"/>
<path style="fill:#522813;" d="M942.747,812.579c-8.152-8.158-14.834-17.293-20.427-27.064c-4.677-18.067-7.026-36.706-7.026-55.337
	c0-16.294,1.792-32.582,5.385-48.472c0.339-1.503-0.603-2.996-2.105-3.336c-1.503-0.34-2.996,0.603-3.335,2.106
	c-3.686,16.301-5.522,32.999-5.522,49.702c0,11.769,1.024,23.524,2.848,35.161c-6.34-15.481-10.822-31.879-14.549-48.159
	c-0.345-1.501-1.841-2.439-3.342-2.095c-1.502,0.344-2.439,1.841-2.094,3.342c8.004,34.857,19.378,71.176,46.221,98.092
	c1.088,1.091,2.854,1.092,3.944,0.004C943.834,815.436,943.836,813.67,942.747,812.579L942.747,812.579z"/>
<path style="fill:#522813;" d="M671.36,872.037c0.558-0.11,1.007-0.414,1.383-0.787c0.643-0.635,1.003-1.536,0.816-2.488
	c-6.53-33.18-9.751-54.282-9.745-71.081c0.006-12.048,1.626-21.907,4.912-32.737c3.288-10.823,8.28-22.616,14.986-38.221
	c0.607-1.415-0.047-3.055-1.461-3.663c-1.415-0.608-3.056,0.046-3.663,1.461h-0.001c-6.706,15.614-11.776,27.55-15.198,38.8
	c-3.422,11.244-5.158,21.805-5.152,34.359c0.006,17.426,3.28,38.669,9.745,71.622l0.103,0.535
	C668.381,871.349,669.848,872.334,671.36,872.037z"/>
<path style="fill:#522813;" d="M826.136,387.147c0-6.008-3.279-10.879-7.329-10.879c-4.05,0-7.334,4.871-7.334,10.879
	s3.284,10.885,7.334,10.885C822.857,398.032,826.136,393.155,826.136,387.147z"/>
<path style="fill:#522813;" d="M745.862,387.147c0,6.008,3.284,10.885,7.334,10.885c4.05,0,7.329-4.877,7.329-10.885
	s-3.279-10.879-7.329-10.879C749.147,376.269,745.862,381.139,745.862,387.147z"/>
<path style="fill:#522813;" d="M805.36,369.284c9.675-1.448,14.84-3.212,24.09-0.038c2.575,0.884,11.579,4.127,11.579,4.127
	c-1.224-3.796-5.451-5.982-6.573-6.459c-7.34-3.123-15.052-5.001-22.832-5.557c-2.689-0.192-5.545-0.181-7.864,1.454
	c-1.692,1.193-2.992,3.884-1.925,5.854C802.387,369.682,804.353,369.435,805.36,369.284z"/>
<path style="fill:#522813;" d="M768.037,368.619c1.009,0.151,2.974,0.398,3.526-0.62c1.068-1.969-0.233-4.66-1.925-5.853
	c-2.32-1.634-5.175-1.646-7.864-1.454c-7.779,0.557-15.492,2.434-22.833,5.557c-1.121,0.477-5.348,2.662-6.572,6.459
	c0,0,9.003-3.244,11.579-4.127C753.199,365.406,758.362,367.172,768.037,368.619z"/>
<path style="fill:#C65658;" d="M738.336,400.09c-11.398,0-20.638,8.215-20.638,18.348c0,10.133,9.24,18.347,20.638,18.347
	c11.398,0,20.638-8.215,20.638-18.347C758.974,408.304,749.734,400.09,738.336,400.09z"/>
<path style="fill:#C65658;" d="M808.779,418.438c0,10.133,9.24,18.347,20.638,18.347c11.397,0,20.638-8.215,20.638-18.347
	c0-10.133-9.24-18.348-20.638-18.348C818.019,400.09,808.779,408.304,808.779,418.438z"/>
<path style="fill:#522813;" d="M774.125,420.928l15.605,5.913c0.72,0.273,1.525-0.09,1.798-0.81c0.273-0.72-0.09-1.526-0.809-1.798
	l-14.358-5.44l13.183-39.966c0.241-0.731-0.156-1.519-0.887-1.76c-0.731-0.242-1.519,0.156-1.76,0.887h0l-13.601,41.234
	C773.061,419.895,773.428,420.664,774.125,420.928z"/>
<path style="fill:#522813;" d="M701.005,1032.421L701.005,1032.421c42.449-1.383,85.188-2.075,127.926-2.075
	c29.731,0,59.462,0.335,89.097,1.005c1.408,0.031,2.548-1.004,2.767-2.356l0.084-0.369c0.035-1.54-1.185-2.816-2.724-2.851
	c-29.678-0.671-59.451-1.006-89.224-1.006c-42.799,0-85.597,0.693-128.108,2.078c-1.268,0.041-2.267,0.939-2.567,2.109l-0.129,0.77
	C698.176,1031.265,699.465,1032.472,701.005,1032.421z"/>
<path style="fill:#522813;" d="M732.628,1092.744c-1.54,0.014-2.777,1.274-2.762,2.814h-0.001l0.004,0.859
	c-0.004,13.376-3.43,25.188-9.844,35.004c-6.421,9.813-15.855,17.667-28.088,22.995c-1.413,0.615-2.059,2.259-1.445,3.671
	c0.615,1.412,2.258,2.059,3.671,1.444c13.114-5.702,23.483-14.274,30.53-25.057c7.053-10.779,10.758-23.731,10.754-38.057
	l-0.004-0.91C735.428,1093.966,734.168,1092.73,732.628,1092.744z"/>
<path style="fill:#522813;" d="M905.334,1131.42c-6.415-9.816-9.84-21.628-9.845-35.004l0.006-0.852
	c0.018-1.54-1.216-2.802-2.756-2.82c-1.54-0.018-2.803,1.216-2.82,2.757l0-0.001l-0.006,0.917
	c-0.004,14.326,3.7,27.278,10.753,38.057c7.047,10.783,17.418,19.355,30.533,25.057c1.412,0.615,3.055-0.032,3.67-1.444
	c0.615-1.412-0.031-3.056-1.443-3.671C921.189,1149.088,911.754,1141.233,905.334,1131.42z"/>
</svg>
